<?xml version="1.0" encoding="utf-8"?>
<!-- Generator: Adobe Illustrator 18.0.0, SVG Export Plug-In . SVG Version: 6.00 Build 0)  -->
<!DOCTYPE svg PUBLIC "-//W3C//DTD SVG 1.1//EN" "http://www.w3.org/Graphics/SVG/1.1/DTD/svg11.dtd">
<svg version="1.1" id="Layer_1" xmlns="http://www.w3.org/2000/svg" xmlns:xlink="http://www.w3.org/1999/xlink" x="0px" y="0px"
	 viewBox="0 0 1700.8 1133.9" enable-background="new 0 0 1700.8 1133.9" xml:space="preserve">
<circle fill="none" stroke="#000000" stroke-width="0.25" stroke-miterlimit="10" cx="804.1" cy="402.4" r="8.5"/>
<g>
	<rect x="489.6" y="406.4" fill="none" stroke="#010101" stroke-width="0.25" width="56.7" height="14.2"/>
	<rect x="631.4" y="406.4" fill="none" stroke="#010101" stroke-width="0.25" width="56.7" height="14.2"/>
</g>
<g>
	<rect x="489.6" y="717.3" fill="none" stroke="#010101" stroke-width="0.25" width="56.7" height="14.2"/>
	<rect x="631.4" y="717.3" fill="none" stroke="#010101" stroke-width="0.25" width="56.7" height="14.2"/>
</g>
<g>
	<circle fill="none" stroke="#000000" stroke-width="0.25" stroke-miterlimit="10" cx="373.2" cy="402.4" r="8.5"/>
	<circle fill="none" stroke="#000000" stroke-width="0.25" stroke-miterlimit="10" cx="804.5" cy="402.4" r="8.5"/>
</g>
<path fill="none" stroke="#000000" stroke-width="0.25" stroke-miterlimit="10" d="M804.9,759.8h-432c-13.5,0-24.5-11-24.5-24.5
	V403.1c0-13.5,11-24.5,24.5-24.5h432c13.5,0,24.5,11,24.5,24.5v332.3C829.4,748.8,818.3,759.8,804.9,759.8z"/>
<g>
	<circle fill="none" stroke="#000000" stroke-width="0.25" stroke-miterlimit="10" cx="804.5" cy="736" r="8.5"/>
	<circle fill="none" stroke="#000000" stroke-width="0.25" stroke-miterlimit="10" cx="373.2" cy="736" r="8.5"/>
</g>
<circle fill="none" stroke="#000000" stroke-width="0.25" stroke-miterlimit="10" cx="641.7" cy="695.5" r="4.3"/>
<circle fill="none" stroke="#000000" stroke-width="0.25" stroke-miterlimit="10" cx="721.7" cy="695.5" r="4.3"/>
<circle fill="none" stroke="#000000" stroke-width="0.25" stroke-miterlimit="10" cx="764.3" cy="551.3" r="4.3"/>
<circle fill="none" stroke="#000000" stroke-width="0.25" stroke-miterlimit="10" cx="628" cy="546.2" r="4.3"/>
<circle fill="none" stroke="#000000" stroke-width="0.25" stroke-miterlimit="10" cx="440.3" cy="535.1" r="4.3"/>
<circle fill="none" stroke="#000000" stroke-width="0.25" stroke-miterlimit="10" cx="504.1" cy="471.4" r="4.3"/>
<circle fill="none" stroke="#000000" stroke-width="0.25" stroke-miterlimit="10" cx="567.8" cy="535" r="4.3"/>
<circle fill="none" stroke="#000000" stroke-width="0.25" stroke-miterlimit="10" cx="504.1" cy="599" r="4.3"/>
<circle fill="none" stroke="#4D4D4D" stroke-width="0.25" stroke-miterlimit="10" cx="462.3" cy="535" r="4.3"/>
<circle fill="none" stroke="#4D4D4D" stroke-width="0.25" stroke-miterlimit="10" cx="545.2" cy="535" r="4.3"/>
<rect x="376.1" y="611.7" fill="none" stroke="#010101" stroke-width="0.25" width="14.2" height="56.7"/>
<rect x="376.1" y="470" fill="none" stroke="#010101" stroke-width="0.25" width="14.2" height="56.7"/>
<rect x="787" y="611.7" fill="none" stroke="#010101" stroke-width="0.25" width="14.2" height="56.7"/>
<rect x="787" y="470" fill="none" stroke="#010101" stroke-width="0.25" width="14.2" height="56.7"/>
<path fill="none" stroke="#000000" stroke-width="0.25" stroke-miterlimit="10" d="M863.6,526.7v85.1v0h-14.2v56.7h14.2v0v48.8
	h112.8c0,0,0-48.8,0-48.8h14.2v-56.7h-14.2v0c0,0,0-85.3,0-85.3h14.2v-56.7l-14.2,0v-49.1H863.6V470h-14.2v56.7L863.6,526.7"/>
<path fill="none" stroke="#4D4D4D" stroke-width="0.25" stroke-miterlimit="10" d="M961.2,458.2h-83c-2.5,0-4.5-2-4.5-4.5l0,0
	c0-2.5,2-4.5,4.5-4.5h83c2.5,0,4.5,2,4.5,4.5l0,0C965.7,456.2,963.7,458.2,961.2,458.2z"/>
<path fill="none" stroke="#4D4D4D" stroke-width="0.25" stroke-miterlimit="10" d="M961.2,439.9h-83c-2.5,0-4.5-2-4.5-4.5l0,0
	c0-2.5,2-4.5,4.5-4.5h83c2.5,0,4.5,2,4.5,4.5l0,0C965.7,437.9,963.7,439.9,961.2,439.9z"/>
<path fill="none" stroke="#4D4D4D" stroke-width="0.25" stroke-miterlimit="10" d="M961.2,476.2h-83c-2.5,0-4.5-2-4.5-4.5l0,0
	c0-2.5,2-4.5,4.5-4.5h83c2.5,0,4.5,2,4.5,4.5l0,0C965.7,474.2,963.7,476.2,961.2,476.2z"/>
<path fill="none" stroke="#4D4D4D" stroke-width="0.25" stroke-miterlimit="10" d="M961.2,494.2h-83c-2.5,0-4.5-2-4.5-4.5l0,0
	c0-2.5,2-4.5,4.5-4.5h83c2.5,0,4.5,2,4.5,4.5l0,0C965.7,492.2,963.7,494.2,961.2,494.2z"/>
<path fill="none" stroke="#4D4D4D" stroke-width="0.25" stroke-miterlimit="10" d="M961.2,512.2h-83c-2.5,0-4.5-2-4.5-4.5l0,0
	c0-2.5,2-4.5,4.5-4.5h83c2.5,0,4.5,2,4.5,4.5l0,0C965.7,510.2,963.7,512.2,961.2,512.2z"/>
<path fill="none" stroke="#4D4D4D" stroke-width="0.25" stroke-miterlimit="10" d="M961.2,530.2h-83c-2.5,0-4.5-2-4.5-4.5l0,0
	c0-2.5,2-4.5,4.5-4.5h83c2.5,0,4.5,2,4.5,4.5l0,0C965.7,528.2,963.7,530.2,961.2,530.2z"/>
<path fill="none" stroke="#4D4D4D" stroke-width="0.25" stroke-miterlimit="10" d="M961.2,548h-83c-2.5,0-4.5-2-4.5-4.5l0,0
	c0-2.5,2-4.5,4.5-4.5h83c2.5,0,4.5,2,4.5,4.5l0,0C965.7,546,963.7,548,961.2,548z"/>
<path fill="none" stroke="#4D4D4D" stroke-width="0.25" stroke-miterlimit="10" d="M961.2,565.9h-83c-2.5,0-4.5-2-4.5-4.5l0,0
	c0-2.5,2-4.5,4.5-4.5h83c2.5,0,4.5,2,4.5,4.5l0,0C965.7,563.8,963.7,565.9,961.2,565.9z"/>
<path fill="none" stroke="#4D4D4D" stroke-width="0.25" stroke-miterlimit="10" d="M961.2,583.9h-83c-2.5,0-4.5-2-4.5-4.5l0,0
	c0-2.5,2-4.5,4.5-4.5h83c2.5,0,4.5,2,4.5,4.5l0,0C965.7,581.8,963.7,583.9,961.2,583.9z"/>
<path fill="none" stroke="#4D4D4D" stroke-width="0.25" stroke-miterlimit="10" d="M961.2,601.7h-83c-2.5,0-4.5-2-4.5-4.5l0,0
	c0-2.5,2-4.5,4.5-4.5h83c2.5,0,4.5,2,4.5,4.5l0,0C965.7,599.7,963.7,601.7,961.2,601.7z"/>
<path fill="none" stroke="#4D4D4D" stroke-width="0.25" stroke-miterlimit="10" d="M961.2,619.5h-83c-2.5,0-4.5-2-4.5-4.5l0,0
	c0-2.5,2-4.5,4.5-4.5h83c2.5,0,4.5,2,4.5,4.5l0,0C965.7,617.5,963.7,619.5,961.2,619.5z"/>
<path fill="none" stroke="#4D4D4D" stroke-width="0.25" stroke-miterlimit="10" d="M961.2,637.5h-83c-2.5,0-4.5-2-4.5-4.5l0,0
	c0-2.5,2-4.5,4.5-4.5h83c2.5,0,4.5,2,4.5,4.5l0,0C965.7,635.5,963.7,637.5,961.2,637.5z"/>
<path fill="none" stroke="#4D4D4D" stroke-width="0.25" stroke-miterlimit="10" d="M961.2,655.5h-83c-2.5,0-4.5-2-4.5-4.5l0,0
	c0-2.5,2-4.5,4.5-4.5h83c2.5,0,4.5,2,4.5,4.5l0,0C965.7,653.5,963.7,655.5,961.2,655.5z"/>
<path fill="none" stroke="#4D4D4D" stroke-width="0.25" stroke-miterlimit="10" d="M961.2,673.4h-83c-2.5,0-4.5-2-4.5-4.5l0,0
	c0-2.5,2-4.5,4.5-4.5h83c2.5,0,4.5,2,4.5,4.5l0,0C965.7,671.3,963.7,673.4,961.2,673.4z"/>
<path fill="none" stroke="#4D4D4D" stroke-width="0.25" stroke-miterlimit="10" d="M961.2,691.4h-83c-2.5,0-4.5-2-4.5-4.5l0,0
	c0-2.5,2-4.5,4.5-4.5h83c2.5,0,4.5,2,4.5,4.5l0,0C965.7,689.3,963.7,691.4,961.2,691.4z"/>
<path fill="none" stroke="#4D4D4D" stroke-width="0.25" stroke-miterlimit="10" d="M961.2,709.2h-83c-2.5,0-4.5-2-4.5-4.5l0,0
	c0-2.5,2-4.5,4.5-4.5h83c2.5,0,4.5,2,4.5,4.5l0,0C965.7,707.2,963.7,709.2,961.2,709.2z"/>
<path fill="none" stroke="#000000" stroke-width="0.25" stroke-miterlimit="10" d="M188,526.7v85.1v0h-14.2v56.7H188v0v48.8h112.8
	c0,0,0-48.8,0-48.8H315v-56.7h-14.2v0c0,0,0-85.3,0-85.3H315v-56.7l-14.2,0v-49.1H188V470h-14.2v56.7L188,526.7"/>
<path fill="none" stroke="#4D4D4D" stroke-width="0.25" stroke-miterlimit="10" d="M285.6,458.2h-83c-2.5,0-4.5-2-4.5-4.5l0,0
	c0-2.5,2-4.5,4.5-4.5h83c2.5,0,4.5,2,4.5,4.5l0,0C290.1,456.2,288.1,458.2,285.6,458.2z"/>
<path fill="none" stroke="#4D4D4D" stroke-width="0.25" stroke-miterlimit="10" d="M285.6,439.9h-83c-2.5,0-4.5-2-4.5-4.5l0,0
	c0-2.5,2-4.5,4.5-4.5h83c2.5,0,4.5,2,4.5,4.5l0,0C290.1,437.9,288.1,439.9,285.6,439.9z"/>
<path fill="none" stroke="#4D4D4D" stroke-width="0.25" stroke-miterlimit="10" d="M285.6,476.2h-83c-2.5,0-4.5-2-4.5-4.5l0,0
	c0-2.5,2-4.5,4.5-4.5h83c2.5,0,4.5,2,4.5,4.5l0,0C290.1,474.2,288.1,476.2,285.6,476.2z"/>
<path fill="none" stroke="#4D4D4D" stroke-width="0.25" stroke-miterlimit="10" d="M285.6,494.2h-83c-2.5,0-4.5-2-4.5-4.5l0,0
	c0-2.5,2-4.5,4.5-4.5h83c2.5,0,4.5,2,4.5,4.5l0,0C290.1,492.2,288.1,494.2,285.6,494.2z"/>
<path fill="none" stroke="#4D4D4D" stroke-width="0.25" stroke-miterlimit="10" d="M285.6,512.2h-83c-2.5,0-4.5-2-4.5-4.5l0,0
	c0-2.5,2-4.5,4.5-4.5h83c2.5,0,4.5,2,4.5,4.5l0,0C290.1,510.2,288.1,512.2,285.6,512.2z"/>
<path fill="none" stroke="#4D4D4D" stroke-width="0.25" stroke-miterlimit="10" d="M285.6,530.2h-83c-2.5,0-4.5-2-4.5-4.5l0,0
	c0-2.5,2-4.5,4.5-4.5h83c2.5,0,4.5,2,4.5,4.5l0,0C290.1,528.2,288.1,530.2,285.6,530.2z"/>
<path fill="none" stroke="#4D4D4D" stroke-width="0.25" stroke-miterlimit="10" d="M285.6,548h-83c-2.5,0-4.5-2-4.5-4.5l0,0
	c0-2.5,2-4.5,4.5-4.5h83c2.5,0,4.5,2,4.5,4.5l0,0C290.1,546,288.1,548,285.6,548z"/>
<path fill="none" stroke="#4D4D4D" stroke-width="0.25" stroke-miterlimit="10" d="M285.6,565.9h-83c-2.5,0-4.5-2-4.5-4.5l0,0
	c0-2.5,2-4.5,4.5-4.5h83c2.5,0,4.5,2,4.5,4.5l0,0C290.1,563.8,288.1,565.9,285.6,565.9z"/>
<path fill="none" stroke="#4D4D4D" stroke-width="0.25" stroke-miterlimit="10" d="M285.6,583.9h-83c-2.5,0-4.5-2-4.5-4.5l0,0
	c0-2.5,2-4.5,4.5-4.5h83c2.5,0,4.5,2,4.5,4.5l0,0C290.1,581.8,288.1,583.9,285.6,583.9z"/>
<path fill="none" stroke="#4D4D4D" stroke-width="0.25" stroke-miterlimit="10" d="M285.6,601.7h-83c-2.5,0-4.5-2-4.5-4.5l0,0
	c0-2.5,2-4.5,4.5-4.5h83c2.5,0,4.5,2,4.5,4.5l0,0C290.1,599.7,288.1,601.7,285.6,601.7z"/>
<path fill="none" stroke="#4D4D4D" stroke-width="0.25" stroke-miterlimit="10" d="M285.6,619.5h-83c-2.5,0-4.5-2-4.5-4.5l0,0
	c0-2.5,2-4.5,4.5-4.5h83c2.5,0,4.5,2,4.5,4.5l0,0C290.1,617.5,288.1,619.5,285.6,619.5z"/>
<path fill="none" stroke="#4D4D4D" stroke-width="0.25" stroke-miterlimit="10" d="M285.6,637.5h-83c-2.5,0-4.5-2-4.5-4.5l0,0
	c0-2.5,2-4.5,4.5-4.5h83c2.5,0,4.5,2,4.5,4.5l0,0C290.1,635.5,288.1,637.5,285.6,637.5z"/>
<path fill="none" stroke="#4D4D4D" stroke-width="0.25" stroke-miterlimit="10" d="M285.6,655.5h-83c-2.5,0-4.5-2-4.5-4.5l0,0
	c0-2.5,2-4.5,4.5-4.5h83c2.5,0,4.5,2,4.5,4.5l0,0C290.1,653.5,288.1,655.5,285.6,655.5z"/>
<path fill="none" stroke="#4D4D4D" stroke-width="0.25" stroke-miterlimit="10" d="M285.6,673.4h-83c-2.5,0-4.5-2-4.5-4.5l0,0
	c0-2.5,2-4.5,4.5-4.5h83c2.5,0,4.5,2,4.5,4.5l0,0C290.1,671.3,288.1,673.4,285.6,673.4z"/>
<path fill="none" stroke="#4D4D4D" stroke-width="0.25" stroke-miterlimit="10" d="M285.6,691.4h-83c-2.5,0-4.5-2-4.5-4.5l0,0
	c0-2.5,2-4.5,4.5-4.5h83c2.5,0,4.5,2,4.5,4.5l0,0C290.1,689.3,288.1,691.4,285.6,691.4z"/>
<path fill="none" stroke="#4D4D4D" stroke-width="0.25" stroke-miterlimit="10" d="M285.6,709.2h-83c-2.5,0-4.5-2-4.5-4.5l0,0
	c0-2.5,2-4.5,4.5-4.5h83c2.5,0,4.5,2,4.5,4.5l0,0C290.1,707.2,288.1,709.2,285.6,709.2z"/>
<path fill="none" stroke="#000000" stroke-width="0.25" stroke-miterlimit="10" d="M631.5,207.6h-85h0v-14.2h-56.7v14.2h0h-99.3V321
	c0,0,79.2,0,99.1,0h0.1v14.2h56.7V321h0c0,0,85.1,0,85.1,0v14.2h56.7l0-14.2h18.1l0,0.2v-45.4h45.4v45.4V321h35.5V207.6h-99v-14.2
	h-56.7L631.5,207.6"/>
<circle fill="none" stroke="#000000" stroke-width="0.25" stroke-miterlimit="10" cx="494.7" cy="658.7" r="4.3"/>
<circle fill="none" stroke="#000000" stroke-width="0.25" stroke-miterlimit="10" cx="522.8" cy="658.7" r="4.3"/>
<rect x="418.8" y="255.8" fill="none" stroke="#000000" stroke-width="0.25" stroke-miterlimit="10" width="39.7" height="17"/>
<path fill="none" stroke="#000000" stroke-width="0.25" stroke-miterlimit="10" d="M631.5,812.9h-85h0v-14.2h-56.7v14.2h0h-99.3
	v113.4c0,0,99.2,0,99.2,0v14.2h56.7v-14.2h0c0,0,85.1,0,85.1,0v14.2h56.7l0-14.2c0,0,30.4,0,30.4,0V905h46.9v21.3c0,0,21.7,0,21.7,0
	V812.9h-99v-14.2h-56.7L631.5,812.9"/>
<g>
	<path fill="none" stroke="#ED1C24" stroke-width="0.25" stroke-miterlimit="10" d="M1158.1,453.2c0,0.7-0.3,1.7-0.9,2.9
		c-1.1,2.3-3,5.1-5.7,8.4c-3.7,4.5-8.7,9.5-15,15.2v5.7c0.4,1.2,0.9,2.1,1.3,2.6c1.3,1.8,2.8,2.7,4.8,2.7c3.5,0,6.5-1.6,9.1-4.7
		c2.3-2.7,3.4-5.3,3.4-7.8c0-1.1-0.4-1.9-1.2-2.6c-0.6-0.5-1.2-0.8-1.8-0.8c-1.7,0-3,1.1-3.9,3.2c-0.9,2.2-1.4,5-1.4,8.5h-1.5
		c-0.5-0.7-0.9-1.4-1.1-2c-0.3-0.6-0.4-1.1-0.4-1.5v-3c0-1.5,0.8-3.2,2.5-4.8c1.8-1.8,3.6-2.7,5.4-2.7c1.8,0,3.1,0.6,3.9,1.7
		c0.7,1,1,2.3,1,4c0,4-1.4,7.4-4.3,10.2c-2.9,2.8-6.4,4.2-10.4,4.2c-3.2,0-5.9-1.1-8-3.4c-1.3-1.5-2.5-3-3.8-4.6
		c-1.3,1.4-2,2.3-2.4,2.6c-0.3,0.4-1.1,1.5-2.2,3.4h-1.9v-1.5c4.3-5,6.4-7.6,6.4-7.9v-4.9c0-3.4,1.3-7.5,3.8-12.5
		c2.6-4.9,5.6-9.1,9-12.5c3.8-3.8,7.2-5.7,10.2-5.7c1.5,0,2.6,0.4,3.3,1.3c0.7,0.9,1.3,1.5,1.6,1.7V453.2z M1155.5,450.6
		c0-0.8-0.2-1.5-0.5-1.9c-0.3-0.5-0.9-0.7-1.7-0.7c-2.9,0-5.7,2.2-8.3,6.7c-1.9,3.2-3.6,7.3-5.1,12.4c-0.6,2.3-1.2,4.5-1.7,6.7v1.1
		c3.6-2.9,6.8-6.1,9.6-9.5c2.4-3,4.4-5.9,5.9-8.8C1154.8,454,1155.5,452,1155.5,450.6z"/>
	<path fill="none" stroke="#ED1C24" stroke-width="0.25" stroke-miterlimit="10" d="M1168.4,489.9c-2,2.1-4,2.7-6.3,2.7
		c-1.7,0-3.1-0.8-4.2-2.4c-0.8-1.3-1.3-2.4-1.3-3.4v-3.3c0.5-2.8,1-4.9,1.4-6.3c1.3-4.2,2.7-6.3,4.5-6.3c0.9,0,1.5,0.1,1.7,0.4
		c0.3,0.3,0.4,0.7,0.4,1.4c0,0.5,0,0.9,0,1.2c0,0.6-0.4,2.9-1.2,6.9c-0.8,4-1.2,6.6-1.2,7.7c0,1.1,0.5,1.7,1.6,1.7
		c0.7,0,1.5-0.6,2.6-1.8c0.8-0.9,1.9-2,2.7-2.8 M1167.4,460.3c0,1-0.5,1.9-1.5,2.6c-0.8,0.5-1.4,0.8-1.8,0.8c-0.8,0-1.6-0.3-2.3-0.9
		c-0.7-0.6-1-1.3-1-2c0-0.8,0.3-1.6,1-2.3c0.8-0.9,1.7-1.4,2.7-1.4c1.2,0,2,0.4,2.5,1.2C1167.3,458.7,1167.4,459.4,1167.4,460.3z"/>
	<path fill="none" stroke="#ED1C24" stroke-width="0.25" stroke-miterlimit="10" d="M1187.4,483.3c-0.3,0.2-0.9,0.3-1.6,0.3
		c-1.6,0-2.8-0.8-3.8-2.3c-0.7-1.2-1.4-2.4-2.2-3.6c-1.9,3.2-3.3,5.8-4.2,7.9c-0.9,2.3-1.7,4.7-2.6,7h-4.7v-2.6 M1187.4,483.3
		 M1187.7,481.8 M1169,485.4c0.2-1.1,0.4-2.4,0.5-4c0.4-3.5,0.9-5.9,1.4-7.2c0.8-2.2,2.1-3.3,3.8-3.3c0.3,0,0.7,0.3,1.3,0.9
		c0.6,0.6,0.9,1,0.9,1.2l-1.7,5.6v1.7c1.4-1.1,3-3.2,5-6.3c1.3-2.1,3-3.1,5.2-3.1c0.7,0,1.1,0.1,1.4,0.2c0.5,0.2,0.8,0.7,0.8,1.5
		c0,0.5-0.4,1.7-1.3,3.5c-0.8,1.8-1.3,3.1-1.3,3.8c0,0.9,0.5,1.5,1.6,1.8c0.4,0.1,0.8,0,1.1,0.1"/>
	<path fill="none" stroke="#ED1C24" stroke-width="0.25" stroke-miterlimit="10" d="M1208.8,485.1c-0.9,1.7-2.2,3.3-3.9,4.8
		c-2.2,1.8-4.2,2.8-6.1,2.8h-3.8c-1.5,0-3-0.7-4.5-2.1c-2-1.7-3-4.4-3-7.2 M1187.7,481.7c0.5-1.9,1.5-3.9,3.2-6
		c2.5-3.2,5.3-4.8,8.3-4.8h3.4c0.7,0,1.6,0.4,2.7,1.3c1.3,1,1.9,1.9,1.9,2.9c0,0.8-0.3,1.5-0.8,2.2c-0.7,0.8-1.5,1.2-2.5,1.2
		c-1.2,0-2-0.3-2.4-0.9c-0.4-0.6-0.6-1.4-0.6-2.5c0-0.3,0-0.6,0-1c0-0.3,0-0.7,0-1.1h-2.1c-1.8,1.8-3.1,3.6-3.8,5.4
		c-0.8,1.9-1.2,4.3-1.2,7.2c0,1.7,0.3,3,1,4c0.7,1,1.7,1.4,3.2,1.4c1.7,0,3.6-1,5.9-3.1c3.1-2.8,5-4.4,5.2-4.6"/>
	<path fill="none" stroke="#ED1C24" stroke-width="0.25" stroke-miterlimit="10" d="M1235.8,487.7c-0.5,0.8-1.2,1.6-2.1,2.6
		c-1.9,1.8-3.5,2.7-4.9,2.7c-2.3,0-3.7-1-4.2-3c-0.8-2.8-1.3-4.3-1.7-4.7c-1.4,2.4-2.7,4.1-3.8,5.1c-1.6,1.4-3.4,2.1-5.6,2.1
		c-1.8,0-3-0.8-3.8-2.3c-0.6-1.2-0.9-2.8-0.9-4.9c0-0.1,0-0.2,0-0.3 M1209,483.2c0.1-0.5,0.1-1,0.2-1.5c0.4-2.8,1-5.1,1.8-6.8
		c1.1-2.4,2.5-3.7,4.2-3.7c0.3,0,0.6,0.1,0.8,0.3c0.3,0.2,0.7,0.7,1.3,1.4c-0.9,0.9-1.6,2.9-2.1,6c-0.7,4.2-1.1,6.6-1.3,7.2v4.3h2.1
		c3.1-2.4,5.4-5.4,7-8.8c0.8-2.3,1.7-4.7,2.6-7.1c0.8-1.9,2-2.9,3.7-2.9c0.3,0,0.5,0,0.8,0c0.2,0,0.5,0,0.7,0c0.3,0,0.5,0,0.7,0v3.4
		c-0.8,0.9-1.4,2.5-1.6,4.6c-0.4,2.9-0.7,4.8-0.9,5.6v4.7c1.3,0,2.5-0.4,3.4-1.1c1.1-0.8,2.2-2.5,3.4-4.9"/>
	<path fill="none" stroke="#ED1C24" stroke-width="0.25" stroke-miterlimit="10" d="M1251.6,485.6c-1.9,2.7-3.8,4.5-5.5,5.6
		c-1.4,0.9-2.9,1.4-4.3,1.4c-2.1,0-3.6-0.7-4.7-2.2c-0.6-0.8-1-1.7-1.2-2.7 M1251.5,483.3 M1235.6,484.1V478c0-2.9,0.6-6.8,1.7-11.8
		c1.3-5.7,2.8-10.3,4.5-13.8c2.2-4.4,4.3-6.7,6.6-6.7c0.4,0,0.8,0.1,1.3,0.4c1.2,0.7,1.8,1.8,1.8,3.1v7.1c0,2.9-0.9,6.1-2.7,9.8
		c-1.7,3.1-3.4,6.2-5.2,9.3c-1.8,3.7-2.8,6.9-2.8,9.7c0.2,1.2,0.3,2.1,0.4,2.6c0.4,1.8,1,2.7,1.8,2.7c1.3,0,2.9-1.2,4.8-3.5
		c1.3-1.6,2.6-2.9,3.7-3.7 M1249.7,456.3v-7.9c-0.3,0.1-0.5,0.1-0.6,0.1c-0.3-0.1-0.5-0.1-0.7-0.1c-1,0-2.1,2.1-3.1,6.4
		c-0.8,3.2-1.6,7.2-2.3,12.1c-0.6,3.9-0.8,6.3-0.8,7.1c2.3-4.5,4.3-9.4,6.2-14.8C1249.1,457.4,1249.5,456.4,1249.7,456.3z"/>
	<path fill="none" stroke="#ED1C24" stroke-width="0.25" stroke-miterlimit="10" d="M1277.7,489.3c-1.9,2.2-3.9,3.2-6,3.2
		c-1.2,0-2.3-0.6-3.2-1.8c-0.5-0.7-0.9-1.4-1.3-2.3h-1.3c-0.8,1.2-1.5,2-2.2,2.5c-1.4,1.1-3.1,1.6-5.2,1.6c-2.2,0-3.9-0.9-5.2-2.6
		c-1-1.3-1.6-2.8-1.7-4.5 M1278.3,485.6 M1251.6,483.2c0.3-3.1,1.9-6,4.7-8.6c2.8-2.5,5.3-3.8,7.5-3.8c1,0,2,0.3,3,0.8
		c1,0.6,1.8,1.2,2.3,2c0.6-0.6,1.1-1,1.5-1.2c1.1-0.8,2-1.2,2.7-1.2c0.6,0,0.9,0.2,1,0.5c0.1,0.3,0.2,0.8,0.2,1.6
		c0,0.1-0.4,1.9-1.2,5.3c-0.8,3.4-1.2,5.6-1.2,6.6v5c2.5-0.3,4.2-1.3,5.3-3.1c0.3-0.6,0.7-1.1,1-1.5 M1251.6,485.5 M1267.9,477
		c0-1-0.3-1.8-0.8-2.4c-0.5-0.6-1.4-0.9-2.5-0.9c-1.5,0-2.8,1.2-4.1,3.5c-0.9,1.6-1.7,3.8-2.4,6.5c-0.3,1.2-0.6,2.4-0.8,3.5
		c0,0.6,0.4,1.3,1.2,2c0.3,0.2,0.7,0.5,1.3,0.9c2.1,0,4.1-1.6,5.8-4.7C1267.1,482.5,1267.9,479.7,1267.9,477z"/>
	<path fill="none" stroke="#ED1C24" stroke-width="0.25" stroke-miterlimit="10" d="M1278.3,485.6c0.2-1.1,0.4-2.5,0.6-4.1
		c0.4-3.5,0.9-5.9,1.4-7.2c0.8-2.2,2.1-3.3,3.8-3.3c0.3,0,0.7,0.3,1.3,0.9c0.6,0.6,0.9,1,0.9,1.2l-1.7,5.6v1.7c1.4-1.1,3-3.2,5-6.3
		c1.3-2.1,3-3.1,5.2-3.1c0.7,0,1.1,0.1,1.4,0.2c0.5,0.2,0.8,0.7,0.8,1.5c0,0.5-0.4,1.7-1.3,3.5c-0.8,1.8-1.3,3.1-1.3,3.8
		c0,0.9,0.5,1.5,1.6,1.8c1.1,0.3,1.8,0.5,2.2,0.7c-0.5,0.3-0.9,0.7-1.4,1c-0.3,0.2-0.9,0.3-1.6,0.3c-1.6,0-2.8-0.8-3.8-2.3
		c-0.7-1.2-1.4-2.4-2.2-3.6c-1.9,3.2-3.3,5.8-4.2,7.9c-0.9,2.3-1.7,4.7-2.6,7h-4.7v-3.2"/>
	<path fill="none" stroke="#ED1C24" stroke-width="0.25" stroke-miterlimit="10" d="M1371.4,485.6 M1371.6,485.6
		c-0.4,2-1.9,3.7-4.1,5.1c-2.2,1.4-4.1,2.2-5.7,2.2c-2.3,0-4-1.1-5.3-3.2c-1.1-1.9-1.6-4.4-1.6-7.4v-4.9c0-1.8-0.4-3.6-1.3-5.2
		c-1-2-2.4-3-4.1-3c-0.6,0-1,1.4-1.3,4.3c-0.3,2.9-1.2,6-2.8,9.5c-0.7,1.7-2.1,3.6-4.3,5.6c-2.7,2.5-5.2,3.8-7.5,3.8h-4.9
		c-2.3,0-4.3-0.9-6-2.8c-1.7-1.9-2.6-3.9-2.6-6.2c0-1.3,0.4-2.6,1.3-4.1c1.3-2.2,3-3.2,5.2-3.2c2.8,0,4.1,0.9,4.1,2.8
		c0,0.8-1.1,1.8-3.3,3.1c-2.2,1.3-3.3,2.8-3.3,4.3c0,0.8,0.5,1.7,1.5,2.7c1.2,1.2,2.8,1.8,4.6,1.8c2.8,0,5.4-2.5,7.8-7.6
		c1.7-3.7,3.3-8.4,4.6-14.2c0.5-2.5,1-5.1,1.5-7.6c-0.2,0-1.5,0.8-4.1,2.3c-2,1.2-4.3,1.8-6.9,1.8c-2.5,0-4.4-0.6-5.6-1.8
		c-1.2-1.2-1.8-2.9-1.8-5.2c0-1,0.3-2.2,0.9-3.6c0.6-1.4,1.3-2.5,2-3.4h2.1v1.2c-0.4,0.7-0.6,1.2-0.8,1.7c-0.3,0.8-0.4,1.6-0.4,2.4
		c0,1.7,0.7,2.9,2,3.7c0.9,0.5,2.2,0.8,3.7,0.8c3.1,0,6-1.2,8.7-3.6c1.6-1.4,3.6-3.8,5.9-7.1c2-2.9,3.5-4.7,4.3-5.2
		c0.1,0.2-0.2,1.3-0.8,3.4c-0.4,1.6-1.1,4-2.1,7.1c-0.8,2.8-1.6,5.3-2.3,7.5v3.3c3.3-0.6,6-2.3,8.1-5.2c1.7-2.9,3.5-5.9,5.2-8.8
		c2.3-3.8,5.1-6.6,8.3-8.5h1.6v1.7c-2.2,1.7-3.8,3.8-5.1,6.2c-3.1,6.3-5,9.8-5.5,10.4c-0.3,0.3-1.9,1.3-4.8,3
		c-1.3,0.8-2.3,1.5-3,2.3c3.6,3.6,6.1,7.4,7.5,11.2c0.4,1.1,0.9,3.7,1.5,7.6c0.3,1.8,1.1,2.8,2.4,2.8c0.5,0,1.6-1.1,3.2-3.3
		c1-1.4,2.5-2.7,3.6-3.5"/>
	<path fill="none" stroke="#ED1C24" stroke-width="0.25" stroke-miterlimit="10" d="M1399.4,487.4c-0.7,1.2-1.6,2.3-2.8,3.2
		c-1.9,1.5-3.7,2.3-5.3,2.3c-1.3,0-2.3-0.6-3.3-1.8c-0.9-1.2-1.4-2.7-1.4-4.5c0-2.3,0.5-5,1.5-8.2c0.3-1.1,0.8-2.4,1.5-4.1
		c0-0.3-0.2-0.6-0.6-0.8c-0.4-0.3-0.8-0.4-1.2-0.4c-1.8,0-3.7,1.7-5.6,5c-1.5,3.1-3.1,6.3-4.6,9.4c-1.7,3.4-3.3,5.1-4.6,5.1
		c-0.5,0-0.9-0.1-1.2-0.4c-0.3-0.3-0.5-0.8-0.5-1.6c0-0.4,0-0.8,0-0.9c0-1.3,0.1-2.6,0.2-3.9 M1371.9,482.9c0.2-1.4,0.4-2.8,0.8-4.3
		c1.1-5.1,2.7-7.6,4.7-7.6c0.7,0,1.1,0.1,1.4,0.4c0.2,0.3,0.4,0.7,0.4,1.3c0,0.3-0.3,1.9-1,4.7c-0.3,1.4-0.5,2.5-0.5,3.4
		c0,0.8,0.1,1.4,0.2,2c0.3-0.7,0.9-1.8,1.7-3.2c1.3-2.3,2.7-4.2,4.1-5.6c2-2,3.8-3,5.6-3c0.9,0,1.9,0.6,3,1.7
		c1.1,1.1,1.6,2.1,1.6,2.9v3.8l-2.6,8.8v2.2h1.7c1.6-0.8,3-2,4-3.3c0.9-1.3,1.7-2.8,2.3-3.7"/>
	<path fill="none" stroke="#ED1C24" stroke-width="0.25" stroke-miterlimit="10" d="M1399.4,483.4 M1399.4,487.3 M1413.6,486.2
		c-0.4,1-1.2,2-2.3,3.2c-2,2.1-4.2,3.2-6.5,3.2c-1.7,0-3.1-0.8-4.2-2.4c-0.7-1-1.1-1.9-1.2-2.8 M1413.6,486.2 M1399.4,483.4
		c0.5-2.8,1-4.9,1.4-6.3c1.3-4.2,2.7-6.3,4.5-6.3c0.9,0,1.5,0.1,1.7,0.4c0.3,0.3,0.4,0.7,0.4,1.4c0,0.5,0,0.9,0,1.2
		c0,0.6-0.4,2.9-1.2,6.9c-0.8,4-1.2,6.6-1.2,7.7c0,1.1,0.5,1.7,1.6,1.7c0.7,0,1.5-0.6,2.6-1.8c1.5-1.6,3-3.3,4.5-4.9 M1410.2,460.3
		c0,1-0.5,1.9-1.5,2.6c-0.8,0.5-1.4,0.8-1.8,0.8c-0.8,0-1.6-0.3-2.3-0.9c-0.7-0.6-1-1.3-1-2c0-0.8,0.3-1.6,1-2.3
		c0.8-0.9,1.7-1.4,2.7-1.4c1.2,0,2,0.4,2.5,1.2C1410.1,458.7,1410.2,459.4,1410.2,460.3z"/>
	<path fill="none" stroke="#ED1C24" stroke-width="0.25" stroke-miterlimit="10" d="M1425.3,487.8c-0.9,1.2-1.9,2.3-2.9,3.1
		c-1.5,1.1-2.9,1.7-4.3,1.7c-1.2,0-2.2-0.4-3.1-1.3c-0.9-0.8-1.4-1.9-1.4-3.2v-1.9 M1425.3,487.8 M1413.6,483.4
		c0-1.2,0.4-3.4,1.1-6.8c0.3-1.2,0.6-2.8,1.2-5c0-0.3-0.2-0.6-0.6-0.8c-0.7-0.4-1.3-0.7-1.7-1c0-0.3,0-0.5,0-0.7c0-0.1,0-0.4,0-0.9
		c2.3,0,3.9-1.6,4.5-4.7c0.7-3.1,1.7-4.7,3-4.7c0.6,0,1,0.2,1.4,0.7c0.3,0.5,0.5,1.1,0.5,1.9c0,0.6-0.1,1.3-0.3,2.1
		c-0.2,0.7-0.5,1.6-0.8,2.5v2.3c0.7,0,1.3,0,1.9,0s1.2,0,1.8,0c0.6,0,0.9,0,1.1,0v1.8c-0.6,0.2-1.2,0.3-1.7,0.4
		c-0.5,0.1-0.9,0.1-1.3,0.1c-0.6,0-1,0-1.2,0c-0.3,0-0.5,0-0.7,0c-0.2,0.1-0.5,0.2-0.8,0.3c-0.3,0.2-0.8,2.1-1.6,5.8
		c-0.9,4.4-1.4,8.2-1.4,11.5c0,0.5,0.1,1,0.4,1.3c0.2,0.3,0.6,0.5,1.1,0.5c0.5,0,1.1-0.4,2-1.2c1.2-1.1,2.4-2.7,3.7-4.8"/>
	<path fill="none" stroke="#ED1C24" stroke-width="0.25" stroke-miterlimit="10" d="M1439.6,485.8c-0.3,1.1-1.2,2.3-2.4,3.6
		c-2,2.1-4.2,3.2-6.5,3.2c-1.7,0-3.1-0.8-4.2-2.4c-0.6-0.9-1-1.7-1.2-2.5 M1439.6,485.8 M1425.2,483.9v-0.6c0.5-2.8,1-4.9,1.4-6.3
		c1.3-4.2,2.7-6.3,4.5-6.3c0.9,0,1.5,0.1,1.7,0.4c0.3,0.3,0.4,0.7,0.4,1.4c0,0.5,0,0.9,0,1.2c0,0.6-0.4,2.9-1.2,6.9
		c-0.8,4-1.2,6.6-1.2,7.7c0,1.1,0.5,1.7,1.6,1.7c0.7,0,1.5-0.6,2.6-1.8c1.5-1.6,3-3.3,4.5-4.9 M1436,460.3c0,1-0.5,1.9-1.5,2.6
		c-0.8,0.5-1.4,0.8-1.8,0.8c-0.8,0-1.6-0.3-2.3-0.9c-0.7-0.6-1-1.3-1-2c0-0.8,0.3-1.6,1-2.3c0.8-0.9,1.7-1.4,2.7-1.4
		c1.2,0,2,0.4,2.5,1.2C1435.9,458.7,1436,459.4,1436,460.3z"/>
	<path fill="none" stroke="#ED1C24" stroke-width="0.25" stroke-miterlimit="10" d="M1460.7,485.1c-0.9,1.7-2.2,3.3-3.9,4.8
		c-2.2,1.8-4.2,2.8-6.1,2.8h-3.8c-1.5,0-3-0.7-4.5-2.1c-2-1.7-3-4-3-6.7c0-2.5,1.1-5.2,3.4-8.1c2.5-3.2,5.3-4.8,8.3-4.8h3.4
		c0.7,0,1.6,0.4,2.7,1.3c1.3,1,1.9,1.9,1.9,2.9c0,0.8-0.3,1.5-0.8,2.2c-0.7,0.8-1.5,1.2-2.5,1.2c-1.2,0-2-0.3-2.4-0.9
		c-0.4-0.6-0.6-1.4-0.6-2.5c0-0.3,0-0.6,0-1c0-0.3,0-0.7,0-1.1h-2.1c-1.8,1.8-3.1,3.6-3.8,5.4c-0.8,1.9-1.2,4.3-1.2,7.2
		c0,1.7,0.3,3,1,4c0.7,1,1.7,1.4,3.2,1.4c1.7,0,3.6-1,5.9-3.1c3.1-2.8,4.8-4.3,5-4.4V485.1z"/>
</g>
<rect x="1078.4" y="841.5" fill="none" stroke="#010101" stroke-width="0.25" width="14.2" height="56.7"/>
<rect x="1489.3" y="841.5" fill="none" stroke="#010101" stroke-width="0.25" width="14.2" height="56.7"/>
<polygon fill="none" stroke="#000000" stroke-width="0.25" stroke-miterlimit="10" points="1132.6,847.1 1180.9,847.1 1181,841.3 
	1186.9,841.3 1186.9,930.4 1180.9,930.4 1180.9,924.6 1132.6,924.6 1132.6,930.4 1126.7,930.4 1126.7,841.3 1132.6,841.3 "/>
<circle fill="none" stroke="#000000" stroke-width="0.25" stroke-miterlimit="10" cx="1295" cy="886.1" r="21.3"/>
<circle fill="none" stroke="#000000" stroke-width="0.25" stroke-miterlimit="10" cx="1273.9" cy="856.9" r="4.4"/>
<circle fill="none" stroke="#000000" stroke-width="0.25" stroke-miterlimit="10" cx="1316.3" cy="856.9" r="4.4"/>
<rect x="1050.8" y="816.6" fill="none" stroke="#000000" stroke-width="0.25" stroke-miterlimit="10" width="480.8" height="138.5"/>
<g>
	<g>
		
			<rect x="1107.9" y="590" fill="none" stroke="#000000" stroke-width="0.25" stroke-miterlimit="10" width="366.5" height="130.4"/>
	</g>
</g>
<g>
	<circle fill="none" stroke="#000000" stroke-width="0.25" stroke-miterlimit="10" cx="1076.2" cy="401.2" r="8.5"/>
	<circle fill="none" stroke="#000000" stroke-width="0.25" stroke-miterlimit="10" cx="1507.6" cy="401.2" r="8.5"/>
</g>
<path fill="none" stroke="#000000" stroke-width="0.25" stroke-miterlimit="10" d="M1507.9,758.7h-432c-13.5,0-24.5-11-24.5-24.5
	V401.9c0-13.5,11-24.5,24.5-24.5h432c13.5,0,24.5,11,24.5,24.5v332.3C1532.4,747.6,1521.3,758.7,1507.9,758.7z"/>
<g>
	<circle fill="none" stroke="#000000" stroke-width="0.25" stroke-miterlimit="10" cx="1507.6" cy="734.8" r="8.5"/>
	<circle fill="none" stroke="#000000" stroke-width="0.25" stroke-miterlimit="10" cx="1076.2" cy="734.8" r="8.5"/>
</g>
</svg>
