<?xml version="1.0" encoding="utf-8"?>
<!-- Generator: Adobe Illustrator 17.0.0, SVG Export Plug-In . SVG Version: 6.00 Build 0)  -->
<!DOCTYPE svg PUBLIC "-//W3C//DTD SVG 1.1//EN" "http://www.w3.org/Graphics/SVG/1.1/DTD/svg11.dtd">
<svg version="1.1" id="Layer_1" xmlns="http://www.w3.org/2000/svg" xmlns:xlink="http://www.w3.org/1999/xlink" x="0px" y="0px"
	 width="1700.79px" height="1133.86px" viewBox="0 0 1700.79 1133.86" enable-background="new 0 0 1700.79 1133.86"
	 xml:space="preserve">
<path id="path3034_2_" inkscape:connector-curvature="0" fill="none" stroke="#000000" d="M1450.178,560.208l6.019,2.011
	l6.013,2.244v4.933l-6.013,2.244l-6.019,2.011l-0.09,5.187l5.945,2.22l5.932,2.452l-0.172,4.93l-6.088,2.033l-6.085,1.8
	l-0.272,5.181l5.865,2.427l5.842,2.659l-0.345,4.921l-6.154,1.819l-6.145,1.586l-0.452,5.168l5.776,2.63l5.745,2.86l-0.515,4.906
	l-6.214,1.603l-6.197,1.372l-0.632,5.149l5.681,2.83l5.642,3.059l-0.687,4.885l-6.267,1.386l-6.24,1.154l-0.811,5.124l5.578,3.026
	l5.532,3.254l-0.857,4.858l-6.31,1.165l-6.278,0.936l-0.989,5.092l5.469,3.219l5.415,3.445l-1.026,4.826l-6.348,0.945l-6.305,0.716
	l-1.167,5.055l5.354,3.408l5.291,3.632l-1.194,4.787l-6.376,0.723l-6.327,0.496l-1.344,5.01l5.232,3.593l5.161,3.815l-1.36,4.741
	l-6.399,0.5l-6.34,0.275l-1.517,4.96l5.103,3.774l5.024,3.992l-1.524,4.692l-6.412,0.276l-6.346,0.054l-1.689,4.905l4.969,3.949
	l4.882,4.165l-1.687,4.636l-6.417,0.052l-6.345-0.168l-1.859,4.842l4.827,4.121l4.734,4.333l-1.848,4.574l-6.416-0.172l-6.335-0.389
	l-2.027,4.775l4.681,4.286l4.579,4.496l-2.006,4.507l-6.406-0.396l-6.317-0.61l-2.192,4.701l4.528,4.448l4.42,4.652l-2.162,4.434
	l-6.387-0.618l-6.292-0.831l-2.355,4.622l4.37,4.602l4.255,4.805l-2.317,4.355l-6.362-0.841l-6.259-1.049l-2.515,4.537l4.207,4.752
	l4.085,4.95l-2.466,4.272l-6.329-1.063l-6.219-1.267l-2.672,4.447l4.039,4.896l3.91,5.089l-2.614,4.183l-6.287-1.283l-6.171-1.484
	l-2.825,4.351l3.864,5.035l3.73,5.222l-2.758,4.09l-6.239-1.502l-6.116-1.699l-2.975,4.25l3.688,5.165l3.545,5.35l-2.9,3.991
	l-6.183-1.719l-6.052-1.91l-3.122,4.142l3.505,5.292l3.357,5.47l-3.037,3.887l-6.12-1.933l-5.981-2.121l-3.264,4.031l3.317,5.411
	l3.164,5.584l-3.17,3.779l-6.048-2.146l-5.905-2.328l-3.403,3.915l3.127,5.523l2.967,5.691l-3.301,3.666l-5.969-2.355l-5.819-2.533
	l-3.539,3.795l2.933,5.628l2.766,5.791l-3.426,3.548l-5.884-2.562l-5.727-2.734l-3.669,3.668l2.734,5.727l2.562,5.884l-3.548,3.426
	l-5.791-2.766l-5.628-2.933l-3.795,3.539l2.533,5.819l2.355,5.969l-3.666,3.301l-5.691-2.967l-5.523-3.127l-3.915,3.403l2.328,5.905
	l2.146,6.048l-3.779,3.17l-5.584-3.164l-5.41-3.317l-4.031,3.264l2.121,5.981l1.933,6.12l-3.887,3.037l-5.47-3.357l-5.292-3.505
	l-4.142,3.122l1.91,6.052l1.719,6.183l-3.991,2.9l-5.35-3.545l-5.166-3.687l-4.25,2.975l1.699,6.116l1.502,6.239l-4.09,2.758
	l-5.222-3.73l-5.035-3.865l-4.351,2.825l1.484,6.171l1.283,6.288l-4.183,2.614l-5.089-3.91l-4.896-4.039l-4.447,2.672l1.267,6.219
	l1.063,6.329l-4.271,2.466l-4.95-4.085l-4.752-4.207l-4.537,2.515l1.049,6.259l0.841,6.362l-4.355,2.317l-4.805-4.255l-4.602-4.37
	l-4.622,2.355l0.831,6.292l0.618,6.388l-4.433,2.162l-4.652-4.42l-4.448-4.528l-4.701,2.192l0.61,6.317l0.396,6.406l-4.507,2.006
	l-4.496-4.58l-4.286-4.681l-4.776,2.027l0.389,6.335l0.172,6.416l-4.574,1.847l-4.333-4.734l-4.121-4.827l-4.842,1.859l0.168,6.345
	l-0.052,6.417l-4.636,1.687l-4.165-4.882l-3.949-4.969l-4.904,1.689l-0.054,6.346l-0.276,6.412l-4.692,1.524l-3.992-5.024
	l-3.774-5.103l-4.96,1.517l-0.275,6.34l-0.5,6.399l-4.742,1.359l-3.815-5.161l-3.593-5.232l-5.01,1.343l-0.496,6.327l-0.723,6.376
	l-4.787,1.194l-3.632-5.291l-3.408-5.354l-5.055,1.167l-0.716,6.305l-0.945,6.348l-4.826,1.026l-3.445-5.415l-3.219-5.469
	l-5.092,0.989l-0.936,6.278l-1.165,6.31l-4.858,0.857l-3.254-5.532l-3.026-5.578l-5.124,0.811l-1.154,6.24l-1.386,6.267
	l-4.885,0.687l-3.059-5.642l-2.83-5.681l-5.149,0.632l-1.372,6.197l-1.604,6.214l-4.906,0.515l-2.86-5.745l-2.63-5.776l-5.168,0.452
	l-1.586,6.145l-1.819,6.154l-4.921,0.345l-2.659-5.842l-2.427-5.865l-5.181,0.272l-1.8,6.085l-2.033,6.088l-4.93,0.172l-2.452-5.932
	l-2.221-5.945l-5.187,0.09l-2.011,6.019l-2.244,6.012h-4.933l-2.244-6.012l-2.011-6.019l-5.187-0.09l-2.221,5.945l-2.452,5.932
	l-4.93-0.172l-2.033-6.088l-1.8-6.085l-5.181-0.272l-2.427,5.865l-2.659,5.842l-4.921-0.345l-1.819-6.154l-1.586-6.145l-5.168-0.452
	l-2.63,5.776l-2.86,5.745l-4.905-0.515l-1.604-6.214l-1.372-6.197l-5.149-0.632l-2.83,5.681l-3.059,5.642l-4.885-0.687l-1.386-6.267
	l-1.154-6.24l-5.124-0.811l-3.026,5.578l-3.254,5.532l-4.858-0.857l-1.165-6.31l-0.937-6.278l-5.092-0.989l-3.219,5.469
	l-3.445,5.415l-4.826-1.026l-0.945-6.348l-0.716-6.305l-5.055-1.167l-3.408,5.354l-3.632,5.291l-4.787-1.194l-0.723-6.376
	l-0.496-6.327l-5.01-1.343l-3.593,5.232l-3.814,5.161l-4.742-1.359l-0.5-6.399l-0.275-6.34l-4.96-1.517l-3.774,5.103l-3.992,5.024
	l-4.692-1.524l-0.276-6.412l-0.054-6.346l-4.904-1.689l-3.949,4.969l-4.165,4.882l-4.636-1.687l-0.052-6.417l0.168-6.345
	l-4.842-1.859l-4.121,4.827l-4.333,4.734l-4.574-1.847l0.172-6.416l0.389-6.335l-4.776-2.027l-4.286,4.681l-4.496,4.58l-4.507-2.006
	l0.396-6.406l0.61-6.317l-4.701-2.192l-4.448,4.528l-4.652,4.42l-4.433-2.162l0.618-6.388l0.831-6.292l-4.622-2.355l-4.602,4.37
	l-4.805,4.255l-4.355-2.317l0.841-6.362l1.05-6.259l-4.537-2.514l-4.752,4.206l-4.95,4.085l-4.271-2.466l1.063-6.329l1.267-6.219
	l-4.447-2.672l-4.896,4.039l-5.089,3.91l-4.183-2.614l1.283-6.288l1.484-6.171l-4.351-2.825l-5.035,3.865l-5.222,3.73l-4.09-2.758
	l1.502-6.239l1.699-6.116l-4.25-2.975l-5.166,3.687l-5.35,3.545l-3.991-2.9l1.719-6.183l1.91-6.052l-4.142-3.122l-5.292,3.505
	l-5.47,3.357l-3.887-3.037l1.933-6.12l2.121-5.981l-4.031-3.264l-5.41,3.317l-5.584,3.163l-3.779-3.17l2.146-6.048l2.328-5.905
	l-3.915-3.403l-5.523,3.127l-5.691,2.967l-3.666-3.301l2.355-5.969l2.533-5.819l-3.795-3.539l-5.628,2.933l-5.791,2.766
	l-3.548-3.427l2.562-5.884l2.734-5.727l-3.669-3.669l-5.727,2.734l-5.884,2.562l-3.426-3.548l2.766-5.791l2.933-5.628l-3.539-3.795
	l-5.819,2.533l-5.969,2.355l-3.301-3.666l2.967-5.691l3.127-5.522l-3.403-3.915l-5.905,2.328l-6.048,2.146l-3.17-3.779l3.164-5.584
	l3.317-5.41l-3.264-4.031l-5.981,2.121l-6.12,1.933L484.839,901l3.357-5.47l3.505-5.292l-3.122-4.142l-6.052,1.91l-6.183,1.719
	l-2.9-3.991l3.545-5.35l3.687-5.165l-2.975-4.25l-6.116,1.699l-6.238,1.502l-2.759-4.09l3.73-5.222l3.864-5.035l-2.825-4.351
	l-6.171,1.484l-6.288,1.283l-2.614-4.183l3.91-5.089l4.039-4.896l-2.672-4.447l-6.219,1.267l-6.329,1.063l-2.466-4.272l4.085-4.95
	l4.207-4.752l-2.514-4.537l-6.259,1.049l-6.362,0.841l-2.317-4.355l4.255-4.805l4.37-4.602l-2.355-4.622l-6.292,0.831l-6.387,0.618
	l-2.162-4.434l4.42-4.652l4.528-4.448l-2.192-4.701l-6.317,0.61l-6.406,0.396l-2.006-4.507l4.579-4.496l4.681-4.286l-2.027-4.776
	l-6.335,0.389l-6.416,0.172l-1.847-4.574l4.734-4.333l4.827-4.121l-1.859-4.842l-6.345,0.168l-6.417-0.052l-1.687-4.636l4.882-4.165
	l4.969-3.949l-1.689-4.905l-6.346-0.054l-6.412-0.276l-1.524-4.692l5.024-3.992l5.103-3.774l-1.517-4.96l-6.34-0.275l-6.399-0.5
	l-1.359-4.742l5.161-3.815l5.233-3.593l-1.344-5.01l-6.327-0.496l-6.376-0.723l-1.194-4.787l5.291-3.632l5.354-3.408l-1.167-5.055
	l-6.306-0.716l-6.348-0.945l-1.026-4.825l5.415-3.445l5.469-3.219l-0.989-5.092l-6.278-0.936l-6.31-1.165l-0.857-4.858l5.532-3.254
	l5.578-3.026l-0.811-5.124l-6.241-1.154l-6.267-1.386l-0.687-4.885l5.642-3.059l5.681-2.83l-0.632-5.149l-6.197-1.372l-6.214-1.603
	l-0.515-4.906l5.745-2.86l5.776-2.63l-0.452-5.168l-6.145-1.586l-6.154-1.819l-0.345-4.921l5.842-2.659l5.865-2.427l-0.272-5.181
	l-6.085-1.8l-6.088-2.033l-0.172-4.93l5.931-2.452l5.945-2.22l-0.09-5.187l-6.019-2.011l-6.013-2.244v-4.933l6.013-2.244
	l6.019-2.011l0.09-5.187l-5.945-2.22l-5.931-2.452l0.172-4.93l6.088-2.033l6.085-1.8l0.272-5.181l-5.865-2.427l-5.842-2.659
	l0.345-4.921l6.154-1.819l6.145-1.587l0.452-5.168l-5.776-2.63l-5.745-2.86l0.515-4.906l6.214-1.603l6.197-1.372l0.632-5.149
	l-5.681-2.83l-5.642-3.059l0.687-4.885l6.267-1.386l6.241-1.154l0.811-5.124l-5.578-3.026l-5.532-3.254l0.857-4.858l6.31-1.165
	l6.278-0.936l0.989-5.092l-5.469-3.219l-5.415-3.445l1.026-4.825l6.348-0.945l6.306-0.716l1.167-5.055l-5.354-3.408l-5.291-3.632
	l1.194-4.787l6.376-0.723l6.327-0.496l1.344-5.01l-5.233-3.593l-5.161-3.815l1.359-4.742l6.399-0.5l6.34-0.275l1.517-4.96
	l-5.103-3.774l-5.024-3.992l1.524-4.692l6.412-0.276l6.346-0.054l1.689-4.905l-4.969-3.949l-4.882-4.165l1.687-4.636l6.417-0.052
	l6.345,0.168l1.859-4.842l-4.827-4.121l-4.734-4.333l1.847-4.574l6.416,0.172l6.335,0.389l2.027-4.775l-4.681-4.286l-4.579-4.496
	l2.006-4.507l6.406,0.396l6.317,0.611l2.192-4.701l-4.528-4.448l-4.42-4.652l2.162-4.434l6.387,0.618l6.292,0.831l2.355-4.622
	l-4.37-4.602l-4.255-4.805l2.317-4.355l6.362,0.841l6.259,1.049l2.514-4.537l-4.207-4.752l-4.085-4.95l2.466-4.272l6.329,1.063
	l6.219,1.267l2.672-4.447l-4.039-4.896l-3.91-5.089l2.614-4.183l6.288,1.283l6.171,1.484l2.825-4.351l-3.865-5.035l-3.73-5.222
	l2.759-4.09l6.239,1.502l6.116,1.699l2.975-4.25l-3.687-5.165l-3.545-5.35l2.9-3.991l6.183,1.719l6.052,1.91l3.122-4.142
	l-3.505-5.292l-3.357-5.47l3.037-3.887l6.12,1.933l5.981,2.121l3.264-4.031l-3.317-5.41l-3.164-5.584l3.17-3.779l6.048,2.146
	l5.905,2.328l3.403-3.915l-3.127-5.523l-2.967-5.691l3.301-3.666l5.969,2.355l5.819,2.533l3.539-3.795l-2.933-5.628l-2.766-5.791
	l3.426-3.548l5.884,2.562l5.727,2.734l3.669-3.669l-2.734-5.727l-2.562-5.884l3.548-3.426l5.791,2.766l5.628,2.933l3.795-3.538
	l-2.533-5.819l-2.355-5.969l3.666-3.301l5.691,2.967l5.523,3.127l3.915-3.403l-2.328-5.905l-2.146-6.048l3.779-3.17l5.584,3.164
	l5.41,3.317l4.031-3.264l-2.121-5.981l-1.933-6.12l3.887-3.037l5.47,3.357l5.292,3.505l4.142-3.122l-1.91-6.052l-1.719-6.183
	l3.991-2.9l5.35,3.545l5.166,3.687l4.25-2.975l-1.699-6.116l-1.502-6.239l4.09-2.758l5.222,3.73l5.035,3.865l4.351-2.825
	l-1.484-6.171l-1.283-6.288l4.183-2.614l5.089,3.91l4.896,4.039l4.447-2.672l-1.267-6.219l-1.063-6.329l4.271-2.466l4.95,4.085
	l4.752,4.206l4.537-2.514l-1.049-6.259l-0.841-6.362l4.355-2.317l4.805,4.255l4.602,4.37l4.622-2.355l-0.831-6.292l-0.618-6.388
	l4.433-2.162l4.652,4.42l4.448,4.528l4.701-2.192l-0.61-6.317l-0.396-6.406l4.507-2.006l4.496,4.58l4.286,4.681l4.776-2.027
	l-0.389-6.335l-0.172-6.416l4.574-1.847l4.333,4.734l4.121,4.827l4.842-1.859l-0.168-6.345l0.052-6.417l4.636-1.687l4.165,4.882
	l3.949,4.969l4.904-1.689l0.054-6.346l0.276-6.412l4.692-1.524l3.992,5.024l3.774,5.103l4.96-1.517l0.275-6.34l0.5-6.399
	l4.742-1.359l3.815,5.161l3.593,5.232l5.01-1.343l0.497-6.327l0.723-6.376l4.787-1.194l3.632,5.291l3.408,5.354l5.055-1.167
	l0.716-6.306l0.945-6.348l4.826-1.026l3.445,5.415l3.219,5.469l5.092-0.989l0.937-6.278l1.165-6.31l4.858-0.857l3.254,5.532
	l3.026,5.578l5.124-0.811l1.154-6.241l1.386-6.267l4.885-0.687l3.059,5.642l2.83,5.681l5.149-0.632l1.372-6.197l1.603-6.214
	l4.906-0.515l2.86,5.745l2.63,5.776l5.168-0.452l1.586-6.145l1.819-6.154l4.92-0.345l2.659,5.842l2.427,5.865l5.181-0.272l1.8-6.085
	l2.033-6.088l4.93-0.172l2.452,5.931l2.221,5.945l5.187-0.09l2.011-6.019l2.244-6.012h4.933l2.244,6.012l2.011,6.019l5.187,0.09
	l2.221-5.945l2.452-5.931l4.93,0.172l2.033,6.088l1.8,6.085l5.181,0.272l2.427-5.865l2.659-5.842l4.921,0.345l1.819,6.154
	l1.586,6.145l5.168,0.452l2.63-5.776l2.86-5.745l4.906,0.515l1.604,6.214l1.372,6.197l5.148,0.632l2.83-5.681l3.059-5.642
	l4.885,0.687l1.386,6.267l1.154,6.241l5.124,0.811l3.026-5.578l3.254-5.532l4.858,0.857l1.165,6.31l0.936,6.278l5.092,0.989
	l3.219-5.469l3.445-5.415l4.825,1.026l0.945,6.348l0.716,6.306l5.055,1.167l3.407-5.354l3.632-5.291l4.787,1.194l0.723,6.376
	l0.496,6.327l5.01,1.343l3.593-5.232l3.815-5.161l4.742,1.359l0.5,6.399l0.275,6.34l4.96,1.517l3.774-5.103l3.992-5.024l4.692,1.524
	l0.276,6.412l0.054,6.346l4.905,1.689l3.949-4.969l4.165-4.882l4.636,1.687l0.052,6.417l-0.168,6.345l4.842,1.859l4.121-4.827
	l4.333-4.734l4.574,1.847L1123,68.235l-0.389,6.335l4.776,2.027l4.286-4.681l4.496-4.58l4.507,2.006l-0.396,6.406l-0.61,6.317
	l4.701,2.192l4.448-4.528l4.652-4.42l4.434,2.162l-0.618,6.388l-0.831,6.292l4.622,2.355l4.602-4.37l4.805-4.256l4.355,2.317
	l-0.841,6.362l-1.049,6.259l4.537,2.514l4.752-4.206l4.95-4.085l4.271,2.466l-1.063,6.329l-1.267,6.219l4.447,2.672l4.896-4.039
	l5.089-3.91l4.183,2.614l-1.283,6.288l-1.484,6.171l4.351,2.825l5.035-3.865l5.222-3.73l4.09,2.758l-1.502,6.239l-1.699,6.116
	l4.25,2.975l5.165-3.687l5.35-3.545l3.991,2.9l-1.719,6.183l-1.91,6.052l4.143,3.122l5.292-3.505l5.47-3.357l3.887,3.037
	l-1.933,6.12l-2.121,5.981l4.031,3.264l5.41-3.317l5.584-3.163l3.779,3.17l-2.146,6.048l-2.328,5.905l3.915,3.403l5.523-3.127
	l5.691-2.967l3.666,3.301l-2.355,5.969l-2.533,5.819l3.795,3.538l5.628-2.933l5.791-2.766l3.548,3.426l-2.562,5.884l-2.734,5.727
	l3.669,3.669l5.727-2.734l5.884-2.562l3.426,3.548l-2.766,5.791l-2.933,5.628l3.539,3.795l5.819-2.533l5.969-2.355l3.301,3.666
	l-2.967,5.691l-3.127,5.523l3.403,3.915l5.905-2.328l6.048-2.146l3.17,3.779l-3.164,5.584l-3.317,5.411l3.264,4.031l5.981-2.121
	l6.12-1.933l3.037,3.887l-3.357,5.47l-3.505,5.292l3.122,4.142l6.052-1.91l6.183-1.719l2.9,3.991l-3.545,5.35l-3.688,5.165
	l2.975,4.25l6.116-1.699l6.239-1.502l2.759,4.09l-3.73,5.222l-3.865,5.035l2.825,4.351l6.171-1.484l6.288-1.283l2.614,4.183
	l-3.91,5.089l-4.039,4.896l2.672,4.447l6.219-1.267l6.329-1.063l2.466,4.272l-4.085,4.95l-4.207,4.752l2.515,4.537l6.259-1.049
	l6.362-0.841l2.317,4.355l-4.255,4.805l-4.37,4.602l2.355,4.622l6.292-0.831l6.387-0.618l2.162,4.434l-4.42,4.652l-4.528,4.448
	l2.192,4.701l6.317-0.611l6.406-0.396l2.006,4.507l-4.579,4.496l-4.681,4.286l2.027,4.776l6.335-0.389l6.416-0.172l1.848,4.574
	l-4.734,4.333l-4.827,4.121l1.859,4.842l6.345-0.168l6.417,0.052l1.687,4.636l-4.882,4.165l-4.969,3.949l1.689,4.905l6.346,0.054
	l6.412,0.276l1.524,4.692l-5.024,3.992l-5.103,3.774l1.517,4.96l6.34,0.275l6.399,0.5l1.36,4.742l-5.161,3.815l-5.232,3.593
	l1.344,5.01l6.327,0.496l6.376,0.723l1.194,4.787l-5.291,3.632l-5.354,3.408l1.167,5.055l6.305,0.716l6.348,0.945l1.026,4.825
	l-5.415,3.445l-5.469,3.219l0.989,5.092l6.278,0.936l6.31,1.165l0.857,4.858l-5.532,3.254l-5.578,3.026l0.811,5.124l6.24,1.154
	l6.267,1.386l0.687,4.885l-5.642,3.059l-5.681,2.83l0.632,5.149l6.197,1.372l6.214,1.603l0.515,4.905l-5.745,2.86l-5.776,2.63
	l0.452,5.168l6.145,1.586l6.154,1.819l0.345,4.921l-5.842,2.659l-5.865,2.427l0.272,5.181l6.085,1.8l6.088,2.033l0.172,4.93
	l-5.932,2.452l-5.945,2.22L1450.178,560.208z"/>
<circle fill="none" stroke="#000000" stroke-miterlimit="10" cx="916.435" cy="566.93" r="406.063"/>
<circle fill="none" stroke="#000000" stroke-width="0.25" stroke-miterlimit="10" cx="916.199" cy="1062.993" r="4.252"/>
<circle fill="none" stroke="#000000" stroke-width="0.25" stroke-miterlimit="10" cx="420.136" cy="566.93" r="4.252"/>
<circle fill="none" stroke="#000000" stroke-width="0.25" stroke-miterlimit="10" cx="486.596" cy="814.961" r="4.252"/>
<circle fill="none" stroke="#000000" stroke-width="0.25" stroke-miterlimit="10" cx="668.168" cy="996.533" r="4.252"/>
<line fill="none" stroke="#000000" stroke-width="0.25" stroke-miterlimit="10" x1="350.659" y1="566.93" x2="350.659" y2="566.93"/>
<circle fill="none" stroke="#000000" stroke-width="0.25" stroke-miterlimit="10" cx="1164.231" cy="996.533" r="4.252"/>
<circle fill="none" stroke="#000000" stroke-width="0.25" stroke-miterlimit="10" cx="1412.262" cy="566.93" r="4.252"/>
<circle fill="none" stroke="#000000" stroke-width="0.25" stroke-miterlimit="10" cx="1164.231" cy="137.327" r="4.252"/>
<circle fill="none" stroke="#000000" stroke-width="0.25" stroke-miterlimit="10" cx="916.326" cy="70.867" r="4.252"/>
<circle fill="none" stroke="#000000" stroke-width="0.25" stroke-miterlimit="10" cx="668.168" cy="137.327" r="4.252"/>
<circle fill="none" stroke="#000000" stroke-width="0.25" stroke-miterlimit="10" cx="486.596" cy="318.898" r="4.252"/>
<circle fill="none" stroke="#ED1F24" stroke-width="0.25" cx="1338.915" cy="714.707" r="4.252"/>
<circle fill="none" stroke="#ED1F24" stroke-width="0.25" cx="1379.974" cy="725.709" r="4.252"/>
<circle fill="none" stroke="#ED1F24" stroke-width="0.25" cx="1356.485" cy="649.136" r="4.252"/>
<circle fill="none" stroke="#ED1F24" stroke-width="0.25" cx="1397.544" cy="660.137" r="4.252"/>
<circle fill="none" stroke="#ED1F24" stroke-width="0.25" cx="770.849" cy="986.85" r="4.252"/>
<circle fill="none" stroke="#ED1F24" stroke-width="0.25" cx="836.421" cy="1004.42" r="4.252"/>
<circle fill="none" stroke="#ED1F24" stroke-width="0.25" cx="825.419" cy="1045.478" r="4.252"/>
<circle fill="none" stroke="#ED1F24" stroke-width="0.25" cx="497.523" cy="416.252" r="4.252"/>
<circle fill="none" stroke="#ED1F24" stroke-width="0.25" cx="456.465" cy="405.25" r="4.252"/>
<circle fill="none" stroke="#ED1F24" stroke-width="0.25" cx="479.953" cy="481.824" r="4.252"/>
<circle fill="none" stroke="#ED1F24" stroke-width="0.25" cx="438.895" cy="470.822" r="4.252"/>
<circle fill="none" stroke="#ED1F24" stroke-width="0.25" cx="1009.782" cy="84.762" r="4.252"/>
<circle fill="none" stroke="#ED1F24" stroke-width="0.25" cx="998.78" cy="125.82" r="4.252"/>
<circle fill="none" stroke="#ED1F24" stroke-width="0.25" cx="1075.353" cy="102.331" r="4.252"/>
<circle fill="none" stroke="#ED1F24" stroke-width="0.25" cx="1064.352" cy="143.39" r="4.252"/>
<circle fill="none" stroke="#000000" stroke-width="0.25" stroke-miterlimit="10" cx="1345.803" cy="814.961" r="4.252"/>
<circle fill="none" stroke="#ED1F24" stroke-width="0.25" cx="759.847" cy="1027.908" r="4.252"/>
<circle fill="none" stroke="#000000" stroke-width="0.25" stroke-miterlimit="10" cx="1415.899" cy="466.81" r="4.252"/>
<g>
	<circle fill="none" stroke="#000000" stroke-width="0.25" stroke-miterlimit="10" cx="1278.923" cy="243.981" r="4.252"/>
	<circle fill="none" stroke="#000000" stroke-width="0.25" stroke-miterlimit="10" cx="1378.35" cy="415.569" r="4.252"/>
</g>
<circle fill="none" stroke="#000000" stroke-width="0.25" stroke-miterlimit="10" cx="1253.327" cy="184.492" r="4.252"/>
<circle fill="none" stroke="#000000" stroke-width="0.25" stroke-miterlimit="10" cx="1334.383" cy="325.523" r="4.252"/>
<circle fill="none" stroke="#000000" stroke-width="0.25" stroke-miterlimit="10" cx="916.427" cy="1014.804" r="4.252"/>
<circle fill="none" stroke="#000000" stroke-width="0.25" stroke-miterlimit="10" cx="1140.463" cy="954.725" r="4.252"/>
<circle fill="none" stroke="#000000" stroke-width="0.25" stroke-miterlimit="10" cx="1304.333" cy="790.858" r="4.252"/>
<circle fill="none" stroke="#000000" stroke-width="0.25" stroke-miterlimit="10" cx="1364.308" cy="566.75" r="4.252"/>
<circle fill="none" stroke="#000000" stroke-width="0.25" stroke-miterlimit="10" cx="1140.481" cy="178.82" r="4.252"/>
<circle fill="none" stroke="#000000" stroke-width="0.25" stroke-miterlimit="10" cx="916.49" cy="119.056" r="4.252"/>
<circle fill="none" stroke="#000000" stroke-width="0.25" stroke-miterlimit="10" cx="692.473" cy="178.917" r="4.252"/>
<circle fill="none" stroke="#000000" stroke-width="0.25" stroke-miterlimit="10" cx="528.498" cy="342.925" r="4.252"/>
<circle fill="none" stroke="#000000" stroke-width="0.25" stroke-miterlimit="10" cx="468.561" cy="566.75" r="4.252"/>
<circle fill="none" stroke="#000000" stroke-width="0.25" stroke-miterlimit="10" cx="528.498" cy="790.916" r="4.252"/>
<circle fill="none" stroke="#000000" stroke-width="0.25" stroke-miterlimit="10" cx="692.514" cy="954.75" r="4.252"/>
<g>
	<g>
		<polygon fill="none" stroke="#010101" stroke-width="0.25" points="872.439,536.046 875.698,535.654 878.466,535.996 
			884.669,538.729 884.669,542.663 878.466,545.396 875.698,545.738 872.439,545.346 870.985,552.184 874.123,553.152 
			876.512,554.59 881.067,559.61 879.467,563.204 872.688,563.177 870.021,562.365 867.202,560.681 863.093,566.336 
			865.565,568.497 867.163,570.782 869.283,577.221 866.359,579.853 860.178,577.072 858.071,575.244 856.181,572.56 
			850.127,576.055 851.508,579.035 852.037,581.772 851.355,588.516 847.614,589.731 843.097,584.676 841.916,582.151 
			841.282,578.929 834.33,579.66 834.379,582.943 833.749,585.659 830.382,591.542 826.471,591.132 824.401,584.676 824.35,581.889 
			825.08,578.687 818.431,576.527 817.141,579.546 815.461,581.772 809.993,585.777 806.586,583.811 807.32,577.072 
			808.408,574.504 810.377,571.877 805.182,567.199 802.774,569.432 800.334,570.782 793.71,572.218 791.398,569.035 
			794.809,563.177 796.847,561.274 799.715,559.675 796.872,553.289 793.764,554.35 790.986,554.59 784.351,553.207 
			783.533,549.359 789.032,545.396 791.668,544.485 794.938,544.192 794.938,537.201 791.668,536.907 789.032,535.996 
			783.533,532.033 784.351,528.185 790.986,526.802 793.764,527.042 796.872,528.104 799.715,521.717 796.847,520.118 
			794.809,518.215 791.398,512.357 793.71,509.174 800.334,510.609 802.774,511.96 805.182,514.193 810.377,509.515 
			808.408,506.888 807.32,504.32 806.586,497.581 809.993,495.615 815.461,499.62 817.141,501.846 818.431,504.865 825.08,502.705 
			824.35,499.503 824.401,496.716 826.471,490.26 830.382,489.85 833.749,495.733 834.379,498.449 834.33,501.732 841.282,502.463 
			841.916,499.241 843.097,496.716 847.614,491.661 851.355,492.876 852.037,499.62 851.508,502.357 850.127,505.337 
			856.181,508.832 858.071,506.148 860.178,504.32 866.359,501.539 869.283,504.171 867.163,510.609 865.565,512.895 
			863.093,515.056 867.202,520.711 870.021,519.027 872.688,518.215 879.467,518.188 881.067,521.782 876.512,526.802 
			874.123,528.24 870.985,529.208 		"/>
	</g>
	<path fill="none" stroke="#000000" stroke-width="0.25" stroke-miterlimit="10" d="M838.957,548.067h-10.031l-0.011,0.022
		c-2.394-1.617-3.969-4.357-3.969-7.463c0-4.971,4.029-9,9-9c4.971,0,9,4.029,9,9c0,3.107-1.574,5.846-3.968,7.463L838.957,548.067z
		"/>
	<circle fill="none" stroke="#000000" stroke-width="0.25" stroke-miterlimit="10" cx="833.946" cy="523.052" r="4.11"/>
	<circle fill="none" stroke="#000000" stroke-width="0.25" stroke-miterlimit="10" cx="818.697" cy="549.402" r="4.11"/>
	<circle fill="none" stroke="#000000" stroke-width="0.25" stroke-miterlimit="10" cx="849.132" cy="549.402" r="4.11"/>
</g>
<g>
	<path fill="none" stroke="#000000" stroke-linejoin="round" stroke-miterlimit="10" d="M1027.082,540.325h-14.701
		c-0.733-1.257-1.152-2.718-1.152-4.277c0-4.697,3.807-8.504,8.504-8.504c4.697,0,8.504,3.807,8.504,8.504
		c0,1.56-0.42,3.023-1.154,4.28V540.325z"/>
</g>
<g>
	<polygon fill="none" stroke="#010101" points="1058.07,532.273 1061.329,531.881 1064.097,532.223 1070.3,534.956 1070.3,538.89 
		1064.097,541.623 1061.329,541.965 1058.07,541.573 1056.616,548.411 1059.754,549.379 1062.143,550.817 1066.698,555.837 
		1065.098,559.43 1058.319,559.404 1055.651,558.591 1052.833,556.908 1048.724,562.563 1051.196,564.724 1052.794,567.009 
		1054.914,573.448 1051.99,576.08 1045.809,573.299 1043.702,571.471 1041.812,568.786 1035.758,572.282 1037.139,575.261 
		1037.668,577.999 1036.986,584.743 1033.245,585.958 1028.728,580.903 1027.547,578.378 1026.913,575.156 1019.961,575.887 
		1020.01,579.17 1019.38,581.885 1016.013,587.769 1012.102,587.359 1010.032,580.903 1009.981,578.116 1010.711,574.914 
		1004.062,572.754 1002.772,575.773 1001.092,577.999 995.623,582.004 992.216,580.038 992.951,573.299 994.039,570.731 
		996.008,568.104 990.813,563.426 988.405,565.659 985.965,567.009 979.341,568.445 977.029,565.262 980.44,559.404 
		982.478,557.501 985.346,555.902 982.503,549.515 979.395,550.577 976.617,550.817 969.982,549.433 969.164,545.586 
		974.663,541.623 977.299,540.712 980.569,540.419 980.569,533.427 977.299,533.133 974.663,532.223 969.164,528.26 
		969.982,524.412 976.617,523.029 979.395,523.269 982.503,524.33 985.346,517.944 982.478,516.345 980.44,514.442 977.029,508.584 
		979.341,505.401 985.965,506.836 988.405,508.187 990.813,510.419 996.008,505.742 994.039,503.115 992.951,500.547 
		992.216,493.808 995.623,491.841 1001.092,495.847 1002.772,498.073 1004.062,501.092 1010.711,498.932 1009.981,495.73 
		1010.032,492.942 1012.102,486.487 1016.013,486.077 1019.38,491.96 1020.01,494.676 1019.961,497.959 1026.913,498.69 
		1027.547,495.468 1028.728,492.942 1033.245,487.887 1036.986,489.103 1037.668,495.847 1037.139,498.584 1035.758,501.564 
		1041.812,505.059 1043.702,502.375 1045.809,500.547 1051.99,497.766 1054.914,500.398 1052.794,506.836 1051.196,509.122 
		1048.724,511.283 1052.833,516.938 1055.651,515.254 1058.319,514.442 1065.098,514.415 1066.698,518.009 1062.143,523.029 
		1059.754,524.467 1056.616,525.435 	"/>
</g>
<g>
	<g>
		<g>
			<g>
				<circle fill="none" stroke="#000000" stroke-miterlimit="10" cx="846.257" cy="703.003" r="3.118"/>
				<circle fill="none" stroke="#000000" stroke-miterlimit="10" cx="846.257" cy="677.569" r="3.118"/>
				<circle fill="none" stroke="#000000" stroke-miterlimit="10" cx="820.935" cy="703.003" r="3.118"/>
				<circle fill="none" stroke="#000000" stroke-miterlimit="10" cx="820.935" cy="677.569" r="3.118"/>
			</g>
		</g>
	</g>
	<g>
		<polygon fill="none" stroke="#010101" points="871.934,686.769 875.193,686.377 877.961,686.719 884.164,689.452 884.164,693.386 
			877.961,696.119 875.193,696.461 871.934,696.069 870.48,702.907 873.618,703.875 876.007,705.313 880.562,710.333 
			878.962,713.927 872.184,713.901 869.516,713.088 866.697,711.404 862.589,717.059 865.061,719.22 866.659,721.506 
			868.779,727.944 865.855,730.576 859.673,727.795 857.567,725.967 855.677,723.283 849.622,726.778 851.003,729.758 
			851.532,732.495 850.85,739.239 847.109,740.455 842.593,735.4 841.412,732.874 840.777,729.652 833.825,730.383 833.874,733.666 
			833.244,736.382 829.878,742.266 825.966,741.855 823.896,735.4 823.845,732.612 824.575,729.41 817.927,727.25 816.636,730.269 
			814.956,732.495 809.488,736.5 806.081,734.534 806.815,727.795 807.903,725.227 809.872,722.6 804.678,717.922 802.27,720.155 
			799.83,721.506 793.205,722.941 790.893,719.758 794.305,713.901 796.343,711.997 799.21,710.398 796.367,704.012 793.26,705.073 
			790.482,705.313 783.846,703.93 783.028,700.082 788.528,696.119 791.163,695.208 794.434,694.915 794.434,687.924 
			791.163,687.63 788.528,686.719 783.028,682.756 783.846,678.909 790.482,677.525 793.26,677.765 796.367,678.827 799.21,672.44 
			796.343,670.841 794.305,668.938 790.893,663.08 793.205,659.898 799.83,661.333 802.27,662.683 804.678,664.916 809.872,660.238 
			807.903,657.611 806.815,655.043 806.081,648.304 809.488,646.338 814.956,650.343 816.636,652.569 817.927,655.588 
			824.575,653.428 823.845,650.226 823.896,647.439 825.966,640.983 829.878,640.573 833.244,646.456 833.874,649.172 
			833.825,652.455 840.777,653.186 841.412,649.964 842.593,647.439 847.109,642.384 850.85,643.599 851.532,650.343 
			851.003,653.08 849.622,656.06 855.677,659.556 857.567,656.871 859.673,655.043 865.855,652.262 868.779,654.894 
			866.659,661.333 865.061,663.618 862.589,665.779 866.697,671.434 869.516,669.75 872.184,668.938 878.962,668.911 
			880.562,672.505 876.007,677.525 873.618,678.963 870.48,679.931 		"/>
	</g>
</g>
<g>
	<g>
		<path fill="none" stroke="#000000" stroke-width="0.25" stroke-miterlimit="10" d="M829.75,697.372
			c-1.95-1.263-3.24-3.457-3.24-5.953c0-3.914,3.173-7.087,7.087-7.087s7.087,3.173,7.087,7.087c0,2.496-1.29,4.69-3.24,5.953"/>
		
			<line fill="none" stroke="#000000" stroke-width="0.25" stroke-miterlimit="10" x1="837.442" y1="697.372" x2="829.75" y2="697.372"/>
	</g>
</g>
</svg>
