<?xml version="1.0" encoding="utf-8"?>
<!-- Generator: Adobe Illustrator 17.0.0, SVG Export Plug-In . SVG Version: 6.00 Build 0)  -->
<!DOCTYPE svg PUBLIC "-//W3C//DTD SVG 1.1//EN" "http://www.w3.org/Graphics/SVG/1.1/DTD/svg11.dtd">
<svg version="1.1" id="Layer_1" xmlns="http://www.w3.org/2000/svg" xmlns:xlink="http://www.w3.org/1999/xlink" x="0px" y="0px"
	 width="1700.79px" height="1133.86px" viewBox="0 0 1700.79 1133.86" enable-background="new 0 0 1700.79 1133.86"
	 xml:space="preserve">
<path id="path3034_2_" inkscape:connector-curvature="0" fill="none" stroke="#000000" d="M1384.138,560.208l6.02,2.012l6.012,2.244
	v4.933l-6.012,2.244l-6.02,2.012l-0.09,5.187l5.944,2.221l5.931,2.452l-0.171,4.93l-6.088,2.033l-6.085,1.801l-0.273,5.181
	l5.865,2.427l5.843,2.658l-0.345,4.921l-6.154,1.819l-6.146,1.586l-0.452,5.169l5.776,2.63l5.745,2.86l-0.516,4.905l-6.214,1.604
	l-6.197,1.372l-0.633,5.149l5.682,2.83l5.642,3.059l-0.687,4.886l-6.267,1.386l-6.241,1.153l-0.811,5.124l5.578,3.026l5.532,3.254
	l-0.857,4.858l-6.311,1.165l-6.277,0.938l-0.99,5.092l5.47,3.219l5.415,3.445l-1.026,4.825l-6.348,0.945l-6.306,0.716l-1.167,5.056
	l5.354,3.407l5.29,3.632l-1.192,4.787l-6.376,0.723l-6.327,0.496l-1.344,5.01l5.232,3.594l5.161,3.814l-1.36,4.741l-6.398,0.501
	l-6.34,0.274l-1.517,4.961l5.103,3.773l5.024,3.992l-1.523,4.691l-6.412,0.275l-6.346,0.055l-1.689,4.904l4.969,3.949l4.881,4.165
	l-1.686,4.636l-6.418,0.052l-6.345-0.167l-1.859,4.842l4.828,4.121l4.733,4.332l-1.848,4.574l-6.416-0.172l-6.334-0.39l-2.027,4.775
	l4.682,4.286l4.578,4.495l-2.004,4.507l-6.407-0.396l-6.316-0.61l-2.192,4.701l4.527,4.448l4.421,4.651l-2.162,4.434l-6.388-0.618
	l-6.293-0.831l-2.354,4.622l4.37,4.602l4.256,4.805l-2.316,4.356l-6.362-0.842l-6.261-1.049l-2.513,4.537l4.206,4.752l4.085,4.949
	l-2.466,4.271l-6.33-1.062l-6.219-1.266l-2.671,4.446l4.038,4.896l3.91,5.089l-2.614,4.183l-6.288-1.283l-6.172-1.483l-2.823,4.351
	l3.863,5.034l3.73,5.223l-2.759,4.089l-6.238-1.501l-6.116-1.699l-2.976,4.25l3.688,5.166l3.545,5.35l-2.899,3.991l-6.183-1.72
	l-6.053-1.909l-3.122,4.143l3.505,5.291l3.355,5.47l-3.036,3.888l-6.12-1.934l-5.982-2.12l-3.263,4.031l3.315,5.41l3.164,5.584
	l-3.169,3.778l-6.049-2.146l-5.905-2.328l-3.402,3.915l3.127,5.523l2.967,5.691l-3.302,3.666l-5.969-2.355l-5.819-2.533
	l-3.539,3.795l2.932,5.628l2.768,5.791l-3.427,3.548l-5.885-2.562l-5.727-2.734l-3.668,3.668l2.733,5.728l2.562,5.884l-3.548,3.427
	l-5.792-2.767l-5.627-2.933l-3.795,3.539l2.533,5.819l2.355,5.969l-3.666,3.301l-5.691-2.966l-5.522-3.127l-3.915,3.402l2.328,5.905
	l2.146,6.049l-3.779,3.17l-5.584-3.164l-5.41-3.317l-4.031,3.264l2.12,5.982l1.933,6.12l-3.886,3.037l-5.471-3.356l-5.291-3.505
	l-4.143,3.122l1.909,6.053l1.719,6.183l-3.99,2.899l-5.35-3.545l-5.166-3.688l-4.249,2.976l1.698,6.116l1.502,6.238l-4.09,2.759
	l-5.223-3.73l-5.033-3.864l-4.352,2.825l1.484,6.171l1.282,6.288l-4.183,2.614l-5.089-3.91l-4.896-4.038l-4.446,2.671l1.266,6.22
	l1.063,6.328l-4.271,2.467l-4.949-4.085l-4.752-4.206l-4.537,2.514l1.049,6.26l0.842,6.362l-4.355,2.316l-4.806-4.256l-4.602-4.37
	l-4.622,2.355l0.831,6.292l0.618,6.388l-4.434,2.162l-4.651-4.421l-4.448-4.527l-4.701,2.192l0.61,6.316l0.396,6.406l-4.507,2.006
	l-4.496-4.579l-4.286-4.682l-4.775,2.027l0.39,6.335l0.172,6.416l-4.574,1.847l-4.332-4.733l-4.121-4.828l-4.842,1.859l0.167,6.345
	l-0.052,6.417l-4.636,1.688l-4.165-4.883l-3.949-4.969l-4.904,1.689l-0.054,6.346l-0.276,6.412l-4.691,1.524l-3.992-5.024
	l-3.774-5.103l-4.96,1.516l-0.274,6.34l-0.501,6.399l-4.741,1.359l-3.814-5.161l-3.594-5.232l-5.01,1.344l-0.496,6.327l-0.723,6.376
	l-4.787,1.193l-3.633-5.291l-3.406-5.353l-5.056,1.167l-0.716,6.306l-0.944,6.347l-4.825,1.027l-3.446-5.415l-3.219-5.47
	l-5.092,0.989l-0.938,6.278l-1.165,6.311l-4.858,0.857l-3.254-5.532l-3.025-5.578l-5.124,0.811l-1.154,6.241l-1.386,6.267
	l-4.885,0.686l-3.06-5.642l-2.829-5.682l-5.149,0.633l-1.371,6.197l-1.605,6.214l-4.905,0.515l-2.859-5.744l-2.631-5.776
	l-5.168,0.452l-1.586,6.146l-1.82,6.153l-4.922,0.346l-2.657-5.843l-2.427-5.864l-5.181,0.273l-1.802,6.085l-2.031,6.088
	l-4.931,0.172l-2.452-5.932l-2.221-5.944l-5.187,0.091l-2.012,6.019l-2.244,6.013h-4.933l-2.244-6.013l-2.012-6.019l-5.188-0.091
	l-2.22,5.944l-2.453,5.932l-4.93-0.172l-2.032-6.088l-1.801-6.085l-5.181-0.273l-2.427,5.864l-2.658,5.843l-4.921-0.346
	l-1.819-6.153l-1.587-6.146l-5.169-0.452l-2.63,5.776l-2.86,5.744l-4.905-0.515l-1.605-6.214l-1.37-6.197l-5.15-0.633l-2.83,5.682
	l-3.059,5.642l-4.885-0.686l-1.386-6.267l-1.154-6.241l-5.125-0.811l-3.025,5.578l-3.254,5.532l-4.858-0.857l-1.166-6.311
	l-0.936-6.278l-5.092-0.989l-3.22,5.47l-3.444,5.415l-4.826-1.027l-0.944-6.347l-0.716-6.306l-5.056-1.167l-3.407,5.353
	l-3.633,5.291l-4.786-1.193l-0.723-6.376l-0.496-6.327l-5.011-1.344l-3.593,5.232l-3.814,5.161l-4.742-1.359l-0.5-6.399l-0.275-6.34
	l-4.959-1.516l-3.775,5.103l-3.991,5.024l-4.692-1.524l-0.276-6.412l-0.054-6.346l-4.904-1.689l-3.949,4.969l-4.165,4.883
	l-4.637-1.688l-0.051-6.417l0.167-6.345l-4.842-1.859l-4.122,4.828l-4.332,4.733l-4.573-1.847l0.172-6.416l0.389-6.335l-4.775-2.027
	l-4.286,4.682l-4.496,4.579l-4.507-2.006l0.396-6.406l0.61-6.316l-4.7-2.192l-4.448,4.527l-4.652,4.421l-4.434-2.162l0.618-6.388
	l0.831-6.292l-4.622-2.355l-4.602,4.37l-4.805,4.256l-4.355-2.316l0.842-6.362l1.049-6.26l-4.537-2.514l-4.752,4.206l-4.95,4.085
	l-4.27-2.467l1.062-6.328l1.267-6.22l-4.446-2.671l-4.896,4.038l-5.089,3.91l-4.184-2.614l1.284-6.288l1.484-6.171l-4.351-2.825
	l-5.035,3.864l-5.222,3.73l-4.09-2.759l1.503-6.238l1.699-6.116l-4.25-2.976l-5.166,3.688l-5.35,3.545l-3.991-2.899l1.719-6.183
	l1.91-6.053l-4.143-3.122l-5.292,3.505l-5.47,3.356l-3.887-3.037l1.934-6.12l2.12-5.982l-4.031-3.264l-5.41,3.317l-5.584,3.164
	l-3.78-3.17l2.147-6.049l2.328-5.905l-3.916-3.402l-5.522,3.127l-5.691,2.966l-3.666-3.301l2.354-5.969l2.534-5.819l-3.794-3.539
	l-5.628,2.933l-5.791,2.767l-3.548-3.427l2.562-5.884l2.733-5.728l-3.668-3.668l-5.728,2.734l-5.885,2.562l-3.426-3.548l2.766-5.791
	l2.933-5.628l-3.538-3.795l-5.819,2.533l-5.969,2.355l-3.302-3.666l2.967-5.691l3.127-5.523l-3.402-3.915l-5.905,2.328l-6.049,2.146
	l-3.17-3.778l3.164-5.584l3.316-5.41l-3.264-4.031l-5.982,2.12l-6.12,1.934l-3.037-3.888l3.356-5.47l3.504-5.291l-3.122-4.143
	l-6.052,1.909l-6.183,1.72l-2.9-3.991l3.546-5.35l3.686-5.166l-2.975-4.25l-6.116,1.699l-6.238,1.501l-2.759-4.089l3.73-5.223
	l3.865-5.034l-2.825-4.351l-6.171,1.483l-6.288,1.283l-2.614-4.183l3.909-5.089l4.039-4.896l-2.671-4.446l-6.22,1.266l-6.329,1.062
	l-2.465-4.271l4.085-4.949l4.206-4.752l-2.514-4.537l-6.259,1.049l-6.362,0.842l-2.316-4.356l4.255-4.805l4.371-4.602l-2.355-4.622
	l-6.292,0.831l-6.388,0.618l-2.162-4.434l4.42-4.651l4.528-4.448l-2.192-4.701l-6.317,0.61l-6.406,0.397l-2.005-4.508l4.579-4.495
	l4.682-4.286l-2.027-4.775l-6.335,0.39l-6.416,0.172l-1.848-4.574l4.734-4.332l4.827-4.121l-1.858-4.842l-6.345,0.167l-6.418-0.052
	l-1.687-4.636l4.881-4.165l4.969-3.949l-1.69-4.904l-6.346-0.055l-6.412-0.275l-1.524-4.691l5.024-3.992l5.103-3.773l-1.517-4.961
	l-6.34-0.274l-6.398-0.501l-1.359-4.741l5.161-3.814l5.233-3.593l-1.344-5.011l-6.327-0.496l-6.376-0.723l-1.193-4.787l5.291-3.632
	l5.354-3.407l-1.167-5.056l-6.306-0.716l-6.349-0.945l-1.025-4.825l5.415-3.445l5.469-3.219l-0.989-5.092l-6.277-0.937l-6.311-1.166
	l-0.857-4.858l5.532-3.254l5.578-3.025l-0.812-5.125l-6.24-1.153l-6.267-1.386l-0.688-4.885l5.643-3.06l5.681-2.83l-0.632-5.149
	l-6.198-1.372l-6.213-1.604l-0.515-4.905l5.744-2.86l5.776-2.63l-0.452-5.169l-6.145-1.586l-6.154-1.819l-0.345-4.921l5.842-2.658
	l5.865-2.427l-0.272-5.181l-6.085-1.801l-6.088-2.033l-0.173-4.93l5.932-2.452l5.945-2.221l-0.091-5.187l-6.02-2.012l-6.012-2.244
	v-4.933l6.012-2.244l6.02-2.012l0.091-5.187l-5.945-2.221l-5.932-2.452l0.173-4.93l6.088-2.033l6.085-1.8l0.272-5.181l-5.865-2.427
	l-5.842-2.659l0.345-4.921l6.154-1.819l6.145-1.587l0.452-5.168l-5.776-2.63l-5.744-2.86l0.515-4.906l6.213-1.603l6.198-1.372
	l0.632-5.148l-5.681-2.83l-5.643-3.059l0.688-4.885l6.267-1.386l6.24-1.154l0.812-5.124l-5.578-3.026l-5.532-3.254l0.857-4.858
	l6.311-1.166l6.277-0.937l0.989-5.092l-5.469-3.219l-5.415-3.445l1.025-4.826l6.349-0.945l6.306-0.716l1.167-5.055l-5.354-3.408
	l-5.291-3.632l1.193-4.787l6.376-0.723l6.327-0.497l1.344-5.01l-5.233-3.593l-5.161-3.815l1.359-4.742l6.398-0.5l6.34-0.275
	l1.517-4.96l-5.103-3.774l-5.024-3.992l1.524-4.692l6.412-0.276l6.346-0.054l1.69-4.904l-4.969-3.949l-4.881-4.165l1.687-4.636
	l6.418-0.052l6.345,0.168l1.858-4.842l-4.827-4.12l-4.734-4.333l1.848-4.574l6.416,0.172l6.335,0.389l2.027-4.775l-4.682-4.286
	l-4.579-4.496l2.005-4.507l6.406,0.396l6.317,0.611l2.192-4.701l-4.528-4.448l-4.42-4.652l2.162-4.434l6.388,0.618l6.292,0.831
	l2.355-4.622l-4.371-4.603l-4.255-4.805l2.316-4.355l6.362,0.841l6.259,1.049l2.514-4.537l-4.206-4.752l-4.085-4.95l2.465-4.272
	l6.329,1.062l6.22,1.267l2.671-4.447l-4.038-4.896l-3.91-5.089l2.614-4.183l6.288,1.283l6.171,1.483l2.825-4.351l-3.865-5.034
	l-3.73-5.222l2.759-4.09l6.238,1.502l6.116,1.698l2.975-4.25l-3.686-5.166l-3.546-5.35l2.9-3.991l6.183,1.719l6.052,1.91
	l3.122-4.143l-3.504-5.291l-3.356-5.47l3.037-3.887l6.12,1.933l5.98,2.121l3.265-4.031l-3.316-5.411l-3.164-5.583l3.17-3.779
	l6.047,2.146l5.906,2.328l3.403-3.916l-3.127-5.522l-2.967-5.691l3.302-3.666l5.969,2.355l5.819,2.534l3.538-3.795l-2.933-5.628
	l-2.766-5.791l3.426-3.548l5.885,2.562l5.728,2.734l3.668-3.669l-2.733-5.727l-2.562-5.884l3.548-3.426l5.791,2.766l5.628,2.933
	l3.794-3.539l-2.534-5.819l-2.354-5.969l3.666-3.301l5.69,2.967l5.523,3.127l3.916-3.403l-2.328-5.905l-2.147-6.048l3.78-3.17
	l5.584,3.164l5.41,3.317l4.031-3.264l-2.121-5.982l-1.933-6.12l3.887-3.037l5.47,3.356l5.292,3.505l4.143-3.122l-1.91-6.052
	l-1.719-6.183l3.99-2.899l5.351,3.545l5.166,3.688l4.249-2.975l-1.698-6.116l-1.503-6.239l4.09-2.758l5.222,3.729l5.035,3.865
	l4.351-2.825l-1.484-6.171l-1.284-6.288l4.184-2.614l5.089,3.91l4.896,4.039l4.446-2.672l-1.267-6.219l-1.064-6.328l4.272-2.467
	l4.95,4.085l4.752,4.206l4.537-2.515l-1.049-6.259l-0.842-6.362l4.354-2.316l4.806,4.255l4.602,4.37l4.622-2.355l-0.831-6.292
	l-0.618-6.387l4.434-2.162l4.652,4.42l4.447,4.527l4.701-2.192l-0.61-6.317l-0.396-6.406l4.507-2.006l4.496,4.58l4.286,4.681
	l4.775-2.027l-0.389-6.334l-0.172-6.416l4.573-1.847l4.332,4.734l4.122,4.827l4.842-1.859l-0.167-6.345l0.051-6.417l4.637-1.688
	l4.165,4.882l3.949,4.968l4.904-1.689l0.054-6.346l0.276-6.412l4.692-1.524l3.991,5.024l3.774,5.104l4.96-1.517l0.275-6.34
	l0.5-6.399l4.742-1.359l3.814,5.161l3.593,5.233l5.011-1.343l0.496-6.327l0.723-6.376l4.786-1.194l3.633,5.291l3.407,5.354
	l5.056-1.167l0.716-6.306l0.944-6.348l4.826-1.026l3.444,5.415l3.22,5.469l5.092-0.989l0.936-6.278l1.166-6.31l4.857-0.857
	l3.255,5.532l3.025,5.578l5.125-0.812l1.154-6.24l1.386-6.267l4.885-0.686l3.059,5.642l2.83,5.681l5.15-0.632l1.37-6.197
	l1.605-6.214l4.904-0.516l2.86,5.745l2.63,5.776l5.169-0.452l1.587-6.146l1.819-6.153l4.92-0.345l2.659,5.842l2.427,5.864
	l5.181-0.272l1.801-6.085l2.032-6.088l4.93-0.172l2.453,5.931l2.221,5.945l5.186-0.09l2.012-6.019l2.244-6.013h4.933l2.244,6.013
	l2.012,6.019l5.187,0.09l2.221-5.945l2.453-5.931l4.93,0.172l2.031,6.088l1.802,6.085l5.181,0.272l2.427-5.864l2.657-5.842
	l4.922,0.345l1.82,6.153l1.586,6.146l5.168,0.452l2.631-5.776l2.859-5.745l4.905,0.516l1.605,6.214l1.371,6.197l5.148,0.632
	l2.83-5.681l3.06-5.642l4.885,0.686l1.386,6.267l1.154,6.24l5.124,0.812l3.025-5.578l3.254-5.532l4.858,0.857l1.165,6.31
	l0.938,6.278l5.092,0.989l3.219-5.469l3.446-5.415l4.824,1.026l0.945,6.348l0.716,6.306l5.056,1.167l3.406-5.354l3.633-5.291
	l4.787,1.194l0.723,6.376l0.496,6.327l5.01,1.343l3.594-5.233l3.814-5.161l4.741,1.359l0.501,6.399l0.274,6.34l4.96,1.517
	l3.774-5.104l3.992-5.024l4.691,1.524l0.276,6.412l0.054,6.346l4.904,1.689l3.949-4.968l4.165-4.882l4.636,1.688l0.052,6.417
	l-0.167,6.345l4.842,1.859l4.121-4.827l4.332-4.734l4.574,1.847l-0.172,6.416l-0.39,6.334l4.775,2.027l4.286-4.681l4.496-4.58
	l4.507,2.006l-0.396,6.406l-0.61,6.317l4.701,2.192l4.448-4.527l4.651-4.42l4.434,2.162l-0.618,6.387l-0.831,6.292l4.622,2.355
	l4.602-4.37l4.806-4.256l4.355,2.317l-0.842,6.362l-1.049,6.259l4.537,2.515l4.752-4.206l4.95-4.085l4.271,2.466l-1.063,6.329
	l-1.266,6.219l4.446,2.672l4.896-4.039l5.089-3.91l4.183,2.614l-1.283,6.288l-1.483,6.17l4.352,2.826l5.033-3.865l5.223-3.729
	l4.09,2.758l-1.502,6.239l-1.699,6.116l4.25,2.975l5.166-3.688l5.35-3.546l3.99,2.9l-1.719,6.183l-1.909,6.052l4.143,3.122
	l5.291-3.505l5.471-3.356l3.886,3.037l-1.933,6.12l-2.121,5.982l4.032,3.264l5.41-3.317l5.584-3.164l3.778,3.17l-2.146,6.048
	l-2.328,5.905l3.915,3.403l5.523-3.127l5.69-2.967l3.666,3.301l-2.355,5.969l-2.533,5.819l3.795,3.539l5.627-2.933l5.792-2.766
	l3.548,3.426l-2.562,5.884l-2.733,5.727l3.668,3.669l5.727-2.734l5.885-2.562l3.427,3.548l-2.768,5.791l-2.932,5.628l3.539,3.794
	l5.819-2.533l5.969-2.355l3.302,3.666l-2.967,5.691l-3.127,5.522l3.402,3.915l5.905-2.328l6.049-2.146l3.169,3.778l-3.164,5.584
	l-3.315,5.411l3.263,4.031l5.982-2.121l6.12-1.933l3.036,3.887l-3.355,5.47l-3.505,5.292l3.122,4.143l6.053-1.91l6.183-1.719
	l2.899,3.991l-3.545,5.35l-3.688,5.166l2.976,4.25l6.116-1.698l6.238-1.502l2.759,4.09l-3.73,5.222l-3.864,5.034l2.824,4.351
	l6.173-1.483l6.287-1.283l2.614,4.183l-3.91,5.089l-4.038,4.896l2.671,4.447l6.219-1.267l6.33-1.062l2.466,4.272l-4.085,4.95
	l-4.206,4.752l2.513,4.537l6.261-1.049l6.362-0.841l2.316,4.355l-4.256,4.805l-4.37,4.602l2.354,4.622l6.293-0.831l6.388-0.618
	l2.162,4.434l-4.421,4.652l-4.527,4.448l2.192,4.701l6.316-0.611l6.407-0.396l2.004,4.507l-4.578,4.496l-4.682,4.285l2.027,4.776
	l6.334-0.389l6.416-0.172l1.848,4.574l-4.733,4.333l-4.828,4.12l1.859,4.842l6.345-0.168l6.418,0.052l1.686,4.636l-4.881,4.164
	l-4.969,3.95l1.689,4.904l6.346,0.054l6.412,0.276l1.523,4.692l-5.024,3.992l-5.103,3.774l1.517,4.96l6.34,0.275l6.398,0.5
	l1.36,4.742l-5.161,3.815l-5.232,3.593l1.344,5.01l6.327,0.497l6.376,0.723l1.192,4.787l-5.29,3.632l-5.354,3.408l1.167,5.055
	l6.306,0.716l6.348,0.945l1.026,4.826l-5.415,3.445l-5.47,3.219l0.99,5.092l6.277,0.937l6.311,1.166l0.857,4.858l-5.532,3.254
	l-5.578,3.026l0.811,5.124l6.241,1.154l6.267,1.386l0.687,4.885l-5.642,3.059l-5.682,2.83l0.633,5.148l6.197,1.372l6.214,1.603
	l0.516,4.906l-5.745,2.86l-5.776,2.631l0.452,5.168l6.146,1.586l6.154,1.819l0.345,4.921l-5.843,2.659l-5.865,2.427l0.273,5.181
	l6.085,1.8l6.088,2.033l0.171,4.93l-5.931,2.452l-5.944,2.221L1384.138,560.208z"/>
<circle fill="none" stroke="#000000" stroke-miterlimit="10" cx="850.396" cy="566.93" r="406.063"/>
<circle fill="none" stroke="#000000" stroke-width="0.25" stroke-miterlimit="10" cx="850.16" cy="1062.994" r="4.251"/>
<circle fill="none" stroke="#000000" stroke-width="0.25" stroke-miterlimit="10" cx="354.097" cy="566.93" r="4.252"/>
<circle fill="none" stroke="#000000" stroke-width="0.25" stroke-miterlimit="10" cx="420.557" cy="814.962" r="4.252"/>
<circle fill="none" stroke="#000000" stroke-width="0.25" stroke-miterlimit="10" cx="602.128" cy="996.533" r="4.252"/>
<circle fill="none" stroke="#000000" stroke-width="0.25" stroke-miterlimit="10" cx="1098.191" cy="996.533" r="4.252"/>
<circle fill="none" stroke="#000000" stroke-width="0.25" stroke-miterlimit="10" cx="1346.223" cy="566.93" r="4.252"/>
<circle fill="none" stroke="#000000" stroke-width="0.25" stroke-miterlimit="10" cx="1098.191" cy="137.327" r="4.252"/>
<circle fill="none" stroke="#000000" stroke-width="0.25" stroke-miterlimit="10" cx="850.287" cy="70.867" r="4.252"/>
<circle fill="none" stroke="#000000" stroke-width="0.25" stroke-miterlimit="10" cx="602.128" cy="137.327" r="4.252"/>
<circle fill="none" stroke="#000000" stroke-width="0.25" stroke-miterlimit="10" cx="420.557" cy="318.899" r="4.252"/>
<circle fill="none" stroke="#000000" stroke-width="0.25" cx="1276.692" cy="716.44" r="4.252"/>
<circle fill="none" stroke="#000000" stroke-width="0.25" cx="1317.75" cy="727.441" r="4.252"/>
<circle fill="none" stroke="#000000" stroke-width="0.25" cx="1294.262" cy="650.868" r="4.252"/>
<circle fill="none" stroke="#000000" stroke-width="0.25" cx="1335.32" cy="661.869" r="4.252"/>
<g>
	<circle fill="none" stroke="#000000" stroke-width="0.25" cx="424.006" cy="417.604" r="4.252"/>
	<circle fill="none" stroke="#000000" stroke-width="0.25" cx="382.94" cy="406.632" r="4.252"/>
	<circle fill="none" stroke="#000000" stroke-width="0.25" cx="406.483" cy="483.188" r="4.252"/>
	<circle fill="none" stroke="#000000" stroke-width="0.25" cx="365.417" cy="472.216" r="4.252"/>
</g>
<g>
	<circle fill="none" stroke="#000000" stroke-width="0.25" cx="945.188" cy="81.926" r="4.251"/>
	<circle fill="none" stroke="#000000" stroke-width="0.25" cx="934.187" cy="122.984" r="4.252"/>
	<circle fill="none" stroke="#000000" stroke-width="0.25" cx="1010.759" cy="99.496" r="4.252"/>
	<circle fill="none" stroke="#000000" stroke-width="0.25" cx="999.758" cy="140.554" r="4.252"/>
</g>
<circle fill="none" stroke="#000000" stroke-width="0.25" stroke-miterlimit="10" cx="1279.763" cy="814.962" r="4.252"/>
<circle fill="none" stroke="#000000" stroke-width="0.25" stroke-miterlimit="10" cx="1349.86" cy="466.81" r="4.252"/>
<circle fill="none" stroke="#000000" stroke-width="0.25" stroke-miterlimit="10" cx="1212.884" cy="243.981" r="4.252"/>
<circle fill="none" stroke="#000000" stroke-width="0.25" stroke-miterlimit="10" cx="1312.311" cy="415.569" r="4.252"/>
<circle fill="none" stroke="#000000" stroke-width="0.25" stroke-miterlimit="10" cx="1187.287" cy="184.492" r="4.252"/>
<circle fill="none" stroke="#000000" stroke-width="0.25" stroke-miterlimit="10" cx="1268.343" cy="325.523" r="4.252"/>
<circle fill="none" stroke="#000000" stroke-width="0.25" stroke-miterlimit="10" cx="850.386" cy="1014.804" r="4.252"/>
<circle fill="none" stroke="#000000" stroke-width="0.25" stroke-miterlimit="10" cx="1074.424" cy="954.725" r="4.252"/>
<circle fill="none" stroke="#000000" stroke-width="0.25" stroke-miterlimit="10" cx="1238.293" cy="790.858" r="4.252"/>
<circle fill="none" stroke="#000000" stroke-width="0.25" stroke-miterlimit="10" cx="1298.269" cy="566.75" r="4.252"/>
<circle fill="none" stroke="#000000" stroke-width="0.25" stroke-miterlimit="10" cx="1074.441" cy="178.821" r="4.252"/>
<circle fill="none" stroke="#000000" stroke-width="0.25" stroke-miterlimit="10" cx="850.451" cy="119.056" r="4.252"/>
<circle fill="none" stroke="#000000" stroke-width="0.25" stroke-miterlimit="10" cx="626.433" cy="178.917" r="4.252"/>
<circle fill="none" stroke="#000000" stroke-width="0.25" stroke-miterlimit="10" cx="462.458" cy="342.925" r="4.252"/>
<circle fill="none" stroke="#000000" stroke-width="0.25" stroke-miterlimit="10" cx="402.522" cy="566.75" r="4.252"/>
<circle fill="none" stroke="#000000" stroke-width="0.25" stroke-miterlimit="10" cx="462.458" cy="790.916" r="4.252"/>
<circle fill="none" stroke="#000000" stroke-width="0.25" stroke-miterlimit="10" cx="626.475" cy="954.75" r="4.252"/>
<g>
	<g>
		<polygon fill="none" stroke="#010101" stroke-width="0.25" points="558.887,452.188 562.146,451.796 564.914,452.138 
			571.117,454.87 571.117,458.805 564.914,461.538 562.146,461.88 558.887,461.488 557.433,468.326 560.571,469.294 
			562.959,470.732 567.515,475.752 565.914,479.345 559.136,479.319 556.469,478.507 553.65,476.823 549.542,482.478 
			552.013,484.639 553.612,486.924 555.731,493.362 552.807,495.995 546.625,493.214 544.52,491.386 542.629,488.702 
			536.575,492.197 537.956,495.177 538.485,497.914 537.803,504.657 534.062,505.873 529.545,500.819 528.365,498.292 
			527.73,495.072 520.778,495.802 520.827,499.084 520.197,501.8 516.831,507.684 512.918,507.274 510.849,500.819 510.798,498.031 
			511.528,494.829 504.879,492.669 503.589,495.688 501.909,497.914 496.441,501.919 493.033,499.952 493.768,493.214 
			494.856,490.646 496.825,488.019 491.63,483.341 489.223,485.574 486.783,486.924 480.157,488.36 477.845,485.177 
			481.257,479.319 483.295,477.416 486.163,475.817 483.32,469.43 480.212,470.491 477.434,470.732 470.798,469.348 
			469.981,465.501 475.48,461.538 478.116,460.627 481.387,460.334 481.387,453.342 478.116,453.048 475.48,452.138 
			469.981,448.175 470.798,444.327 477.434,442.944 480.212,443.184 483.32,444.245 486.163,437.859 483.295,436.26 
			481.257,434.357 477.845,428.499 480.157,425.316 486.783,426.751 489.223,428.102 491.63,430.335 496.825,425.657 
			494.856,423.03 493.768,420.462 493.033,413.723 496.441,411.757 501.909,415.761 503.589,417.988 504.879,421.007 
			511.528,418.846 510.798,415.645 510.849,412.858 512.918,406.402 516.831,405.991 520.197,411.875 520.827,414.591 
			520.778,417.874 527.73,418.605 528.365,415.383 529.545,412.858 534.062,407.802 537.803,409.018 538.485,415.761 
			537.956,418.499 536.575,421.479 542.629,424.974 544.52,422.289 546.625,420.462 552.807,417.681 555.731,420.313 
			553.612,426.751 552.013,429.037 549.542,431.198 553.65,436.853 556.469,435.169 559.136,434.357 565.914,434.33 
			567.515,437.923 562.959,442.944 560.571,444.382 557.433,445.35 		"/>
	</g>
	<path fill="none" stroke="#000000" stroke-width="0.25" stroke-miterlimit="10" d="M525.405,464.209h-10.031l-0.011,0.022
		c-2.394-1.617-3.969-4.356-3.969-7.463c0-4.971,4.029-9,9-9c4.971,0,9,4.029,9,9c0,3.106-1.574,5.845-3.967,7.463L525.405,464.209z
		"/>
	<circle fill="none" stroke="#000000" stroke-width="0.25" stroke-miterlimit="10" cx="520.394" cy="439.194" r="4.11"/>
	<circle fill="none" stroke="#000000" stroke-width="0.25" stroke-miterlimit="10" cx="505.145" cy="465.543" r="4.11"/>
	<circle fill="none" stroke="#000000" stroke-width="0.25" stroke-miterlimit="10" cx="535.581" cy="465.543" r="4.11"/>
</g>
<g>
	<polygon fill="none" stroke="#010101" stroke-width="0.25" points="609.456,360.843 612.715,360.452 615.482,360.793 
		621.686,363.526 621.686,367.461 615.482,370.193 612.715,370.535 609.456,370.143 608.002,376.981 611.139,377.949 
		613.529,379.387 618.083,384.407 616.484,388.001 609.706,387.974 607.038,387.162 604.219,385.478 600.111,391.133 
		602.583,393.294 604.18,395.58 606.3,402.018 603.377,404.65 597.195,401.869 595.088,400.041 593.199,397.357 587.144,400.852 
		588.525,403.832 589.053,406.57 588.372,413.313 584.63,414.529 580.115,409.473 578.933,406.948 578.298,403.726 571.347,404.457 
		571.396,407.74 570.766,410.456 567.398,416.34 563.488,415.929 561.417,409.473 561.367,406.686 562.097,403.485 555.447,401.324 
		554.158,404.343 552.478,406.57 547.009,410.574 543.602,408.608 544.336,401.869 545.424,399.302 547.394,396.674 
		542.199,391.996 539.792,394.229 537.351,395.58 530.726,397.015 528.414,393.832 531.827,387.974 533.865,386.072 
		536.732,384.472 533.889,378.086 530.781,379.147 528.003,379.387 521.367,378.004 520.549,374.156 526.049,370.193 
		528.685,369.282 531.956,368.989 531.956,361.998 528.685,361.704 526.049,360.793 520.549,356.83 521.367,352.983 
		528.003,351.599 530.781,351.84 533.889,352.901 536.732,346.514 533.865,344.915 531.827,343.012 528.414,337.155 
		530.726,333.971 537.351,335.406 539.792,336.757 542.199,338.99 547.394,334.313 545.424,331.685 544.336,329.117 
		543.602,322.378 547.009,320.412 552.478,324.417 554.158,326.643 555.447,329.662 562.097,327.502 561.367,324.3 561.417,321.513 
		563.488,315.057 567.398,314.647 570.766,320.531 571.396,323.246 571.347,326.529 578.298,327.26 578.933,324.038 
		580.115,321.513 584.63,316.458 588.372,317.673 589.053,324.417 588.525,327.155 587.144,330.134 593.199,333.63 595.088,330.945 
		597.195,329.117 603.377,326.336 606.3,328.969 604.18,335.406 602.583,337.692 600.111,339.853 604.219,345.509 607.038,343.824 
		609.706,343.012 616.484,342.986 618.083,346.579 613.529,351.599 611.139,353.037 608.002,354.005 	"/>
</g>
<circle fill="none" stroke="#000000" stroke-width="0.25" stroke-miterlimit="10" cx="570.963" cy="347.849" r="4.11"/>
<circle fill="none" stroke="#000000" stroke-width="0.25" stroke-miterlimit="10" cx="555.714" cy="374.199" r="4.11"/>
<circle fill="none" stroke="#000000" stroke-width="0.25" stroke-miterlimit="10" cx="586.149" cy="374.199" r="4.11"/>
<g>
	<path fill="none" stroke="#000000" stroke-linejoin="round" stroke-miterlimit="10" d="M508.385,566.08h-14.701
		c-0.732-1.256-1.154-2.718-1.154-4.277c0-4.697,3.809-8.504,8.505-8.504c4.697,0,8.504,3.807,8.504,8.504
		c0,1.561-0.42,3.023-1.153,4.28V566.08z"/>
</g>
<g>
	<polygon fill="none" stroke="#010101" points="539.373,558.028 542.631,557.636 545.398,557.978 551.602,560.711 551.602,564.645 
		545.398,567.378 542.631,567.72 539.373,567.328 537.919,574.166 541.057,575.134 543.445,576.573 548.001,581.592 
		546.401,585.186 539.622,585.159 536.955,584.346 534.136,582.662 530.027,588.318 532.498,590.479 534.098,592.764 
		536.217,599.203 533.293,601.835 527.112,599.054 525.005,597.226 523.115,594.541 517.06,598.037 518.441,601.017 
		518.971,603.754 518.289,610.497 514.549,611.713 510.031,606.658 508.851,604.133 508.215,600.911 501.264,601.642 
		501.312,604.925 500.682,607.641 497.316,613.525 493.405,613.114 491.335,606.658 491.284,603.871 492.014,600.669 
		485.365,598.509 484.075,601.528 482.395,603.754 476.927,607.759 473.52,605.793 474.254,599.054 475.342,596.486 477.31,593.859 
		472.115,589.182 469.709,591.414 467.268,592.764 460.643,594.2 458.332,591.017 461.743,585.159 463.781,583.256 466.648,581.656 
		463.806,575.271 460.697,576.332 457.92,576.573 451.285,575.189 450.467,571.34 455.965,567.378 458.602,566.467 461.872,566.174 
		461.872,559.182 458.602,558.888 455.965,557.978 450.467,554.015 451.285,550.168 457.92,548.784 460.697,549.024 
		463.806,550.085 466.648,543.699 463.781,542.1 461.743,540.196 458.332,534.339 460.643,531.156 467.268,532.591 469.709,533.942 
		472.115,536.174 477.31,531.497 475.342,528.87 474.254,526.302 473.52,519.563 476.927,517.596 482.395,521.602 484.075,523.828 
		485.365,526.847 492.014,524.687 491.284,521.485 491.335,518.698 493.405,512.242 497.316,511.832 500.682,517.715 
		501.312,520.432 501.264,523.714 508.215,524.445 508.851,521.223 510.031,518.698 514.549,513.642 518.289,514.858 
		518.971,521.602 518.441,524.339 517.06,527.319 523.115,530.814 525.005,528.13 527.112,526.302 533.293,523.521 536.217,526.153 
		534.098,532.591 532.498,534.877 530.027,537.038 534.136,542.693 536.955,541.01 539.622,540.196 546.401,540.17 548.001,543.764 
		543.445,548.784 541.057,550.222 537.919,551.19 	"/>
</g>
<g>
	<g>
		<g>
			<g>
				<circle fill="none" stroke="#000000" stroke-miterlimit="10" cx="528.945" cy="676.996" r="3.118"/>
				<circle fill="none" stroke="#000000" stroke-miterlimit="10" cx="528.945" cy="651.562" r="3.118"/>
				<circle fill="none" stroke="#000000" stroke-miterlimit="10" cx="503.623" cy="676.996" r="3.118"/>
				<circle fill="none" stroke="#000000" stroke-miterlimit="10" cx="503.623" cy="651.562" r="3.118"/>
			</g>
		</g>
	</g>
	<g>
		<polygon fill="none" stroke="#010101" points="554.622,660.763 557.881,660.37 560.648,660.712 566.852,663.446 566.852,667.38 
			560.648,670.113 557.881,670.454 554.622,670.063 553.168,676.901 556.306,677.869 558.695,679.307 563.25,684.326 561.65,687.92 
			554.871,687.894 552.204,687.081 549.385,685.398 545.276,691.052 547.748,693.213 549.347,695.499 551.467,701.938 
			548.543,704.57 542.361,701.788 540.255,699.961 538.364,697.276 532.31,700.772 533.69,703.751 534.22,706.489 533.538,713.233 
			529.797,714.448 525.28,709.393 524.1,706.867 523.465,703.646 516.513,704.376 516.562,707.659 515.932,710.375 512.565,716.259 
			508.653,715.849 506.584,709.393 506.533,706.606 507.263,703.404 500.614,701.244 499.324,704.263 497.645,706.489 
			492.175,710.494 488.768,708.528 489.503,701.788 490.591,699.221 492.56,696.593 487.365,691.915 484.958,694.149 
			482.518,695.499 475.893,696.934 473.581,693.751 476.992,687.894 479.03,685.99 481.898,684.392 479.055,678.005 
			475.947,679.067 473.17,679.307 466.534,677.923 465.715,674.076 471.215,670.113 473.852,669.202 477.122,668.908 
			477.122,661.917 473.852,661.623 471.215,660.712 465.715,656.75 466.534,652.902 473.17,651.519 475.947,651.759 479.055,652.82 
			481.898,646.434 479.03,644.834 476.992,642.931 473.581,637.073 475.893,633.891 482.518,635.326 484.958,636.677 
			487.365,638.909 492.56,634.232 490.591,631.605 489.503,629.036 488.768,622.298 492.175,620.331 497.645,624.336 
			499.324,626.563 500.614,629.581 507.263,627.421 506.533,624.22 506.584,621.432 508.653,614.977 512.565,614.566 
			515.932,620.45 516.562,623.165 516.513,626.448 523.465,627.179 524.1,623.958 525.28,621.432 529.797,616.377 533.538,617.593 
			534.22,624.336 533.69,627.073 532.31,630.054 538.364,633.549 540.255,630.865 542.361,629.036 548.543,626.255 551.467,628.888 
			549.347,635.326 547.748,637.612 545.276,639.773 549.385,645.428 552.204,643.744 554.871,642.931 561.65,642.904 
			563.25,646.498 558.695,651.519 556.306,652.956 553.168,653.925 		"/>
	</g>
</g>
<g>
	<g>
		<path fill="none" stroke="#000000" stroke-width="0.25" stroke-miterlimit="10" d="M512.437,671.365
			c-1.95-1.263-3.24-3.457-3.24-5.953c0-3.914,3.173-7.087,7.087-7.087c3.913,0,7.086,3.173,7.086,7.087
			c0,2.496-1.29,4.69-3.239,5.953"/>
		
			<line fill="none" stroke="#000000" stroke-width="0.25" stroke-miterlimit="10" x1="520.13" y1="671.365" x2="512.438" y2="671.365"/>
	</g>
</g>
<circle fill="none" stroke="#000000" stroke-width="0.1" stroke-miterlimit="10" cx="570.961" cy="365.421" r="8.997"/>
<g>
	<circle fill="none" stroke="#000000" stroke-width="0.25" cx="700.937" cy="993.274" r="4.252"/>
	<circle fill="none" stroke="#000000" stroke-width="0.25" cx="689.965" cy="1034.34" r="4.252"/>
	<circle fill="none" stroke="#000000" stroke-width="0.25" cx="766.521" cy="1010.797" r="4.252"/>
	<circle fill="none" stroke="#000000" stroke-width="0.25" cx="755.549" cy="1051.863" r="4.252"/>
</g>
</svg>
