<?xml version="1.0" encoding="utf-8"?>
<!-- Generator: Adobe Illustrator 17.0.0, SVG Export Plug-In . SVG Version: 6.00 Build 0)  -->
<!DOCTYPE svg PUBLIC "-//W3C//DTD SVG 1.1//EN" "http://www.w3.org/Graphics/SVG/1.1/DTD/svg11.dtd">
<svg version="1.1" id="Layer_1" xmlns="http://www.w3.org/2000/svg" xmlns:xlink="http://www.w3.org/1999/xlink" x="0px" y="0px"
	 width="1700.79px" height="1133.86px" viewBox="0 0 1700.79 1133.86" enable-background="new 0 0 1700.79 1133.86"
	 xml:space="preserve">
<g>
	<g>
		<path fill="none" stroke="#000000" stroke-width="0.25" stroke-miterlimit="10" d="M1558.803,759.182h-431.994
			c-13.476,0-24.5-11.025-24.5-24.5V402.414c0-13.475,11.024-24.5,24.5-24.5h431.994c13.475,0,24.5,11.025,24.5,24.5v332.268
			C1583.303,748.157,1572.278,759.182,1558.803,759.182z"/>
	</g>
	<g>
		<path fill="none" stroke="#ED1C24" stroke-width="0.25" stroke-miterlimit="10" d="M1208.71,453.049
			c0,0.689-0.298,1.658-0.891,2.908c-1.096,2.315-3.002,5.115-5.721,8.399c-3.689,4.472-8.675,9.539-14.957,15.198v5.677
			c0.436,1.189,0.859,2.064,1.266,2.628c1.25,1.782,2.844,2.674,4.782,2.674c3.47,0,6.501-1.564,9.097-4.692
			c2.25-2.721,3.376-5.317,3.376-7.789c0-1.064-0.392-1.939-1.173-2.627c-0.625-0.532-1.235-0.799-1.828-0.799
			c-1.721,0-3.033,1.08-3.939,3.24c-0.906,2.158-1.359,4.989-1.359,8.494h-1.547c-0.501-0.722-0.876-1.373-1.126-1.954
			c-0.251-0.58-0.374-1.074-0.374-1.483v-3.014c0-1.538,0.827-3.154,2.484-4.85c1.782-1.819,3.595-2.73,5.439-2.73
			c1.781,0,3.078,0.58,3.891,1.74c0.688,0.972,1.033,2.288,1.033,3.95c0,3.98-1.447,7.374-4.338,10.181
			c-2.892,2.806-6.354,4.208-10.386,4.208c-3.221,0-5.878-1.126-7.972-3.381c-1.25-1.501-2.501-3.02-3.75-4.555
			c-1.251,1.407-2.04,2.29-2.368,2.649c-0.328,0.359-1.055,1.493-2.181,3.399h-1.875v-1.548c4.281-4.97,6.424-7.611,6.424-7.925
			v-4.924c0-3.378,1.281-7.528,3.844-12.454c2.564-4.924,5.564-9.091,9.002-12.499c3.814-3.784,7.222-5.675,10.223-5.675
			c1.469,0,2.562,0.438,3.282,1.314c0.719,0.875,1.266,1.453,1.642,1.734V453.049z M1206.037,450.467
			c0-0.812-0.173-1.461-0.517-1.946c-0.344-0.484-0.922-0.727-1.734-0.727c-2.907,0-5.674,2.22-8.299,6.658
			c-1.876,3.188-3.58,7.314-5.111,12.378c-0.594,2.251-1.172,4.486-1.734,6.705v1.125c3.594-2.906,6.783-6.079,9.565-9.518
			c2.437-3.001,4.391-5.924,5.86-8.769C1205.38,453.813,1206.037,451.842,1206.037,450.467z"/>
		<path fill="none" stroke="#ED1C24" stroke-width="0.25" stroke-miterlimit="10" d="M1218.93,489.758
			c-2.033,2.13-4.017,2.65-6.33,2.65c-1.688,0-3.079-0.812-4.174-2.44c-0.844-1.251-1.266-2.394-1.266-3.427v-3.332
			c0.5-2.816,0.953-4.913,1.359-6.29c1.251-4.193,2.735-6.29,4.455-6.29c0.875,0,1.454,0.142,1.734,0.423
			c0.281,0.281,0.423,0.735,0.423,1.361c-0.032,0.502-0.047,0.893-0.047,1.174c0,0.595-0.415,2.902-1.243,6.924
			c-0.828,4.021-1.242,6.58-1.242,7.676c0,1.127,0.547,1.69,1.641,1.69c0.656,0,1.531-0.596,2.626-1.785
			c0.813-0.883,1.851-1.966,2.665-2.849 M1217.993,460.173c0,1.032-0.501,1.892-1.501,2.58c-0.75,0.531-1.359,0.796-1.829,0.796
			c-0.843,0-1.61-0.311-2.297-0.938c-0.688-0.625-1.031-1.296-1.031-2.016c0-0.781,0.344-1.562,1.031-2.345
			c0.812-0.906,1.719-1.359,2.72-1.359c1.219,0,2.046,0.391,2.485,1.172C1217.852,458.563,1217.993,459.267,1217.993,460.173z"/>
		<path fill="none" stroke="#ED1C24" stroke-width="0.25" stroke-miterlimit="10" d="M1238.013,483.161
			c-0.345,0.187-0.876,0.28-1.594,0.28c-1.563,0-2.845-0.761-3.846-2.284c-0.72-1.211-1.438-2.424-2.156-3.635
			c-1.938,3.211-3.345,5.847-4.22,7.904c-0.876,2.339-1.735,4.662-2.579,6.971h-4.688v-2.64 M1238.013,483.161 M1238.235,481.667
			 M1219.532,485.243c0.174-1.092,0.357-2.429,0.547-4.011c0.422-3.511,0.884-5.921,1.383-7.232
			c0.844-2.216,2.125-3.324,3.846-3.324c0.25,0,0.671,0.314,1.266,0.938c0.594,0.626,0.891,1.017,0.891,1.173l-1.735,5.579v1.688
			c1.376-1.062,3.048-3.157,5.017-6.283c1.282-2.062,3.017-3.095,5.205-3.095c0.656,0,1.109,0.064,1.36,0.188
			c0.53,0.249,0.797,0.748,0.797,1.496c0,0.499-0.422,1.652-1.267,3.46c-0.844,1.809-1.266,3.07-1.266,3.787
			c0,0.935,0.531,1.528,1.595,1.777c0.401,0.095,0.791,0.034,1.099,0.129"/>
		<path fill="none" stroke="#ED1C24" stroke-width="0.25" stroke-miterlimit="10" d="M1259.347,484.887
			c-0.907,1.679-2.22,3.265-3.938,4.759c-2.157,1.834-4.204,2.752-6.143,2.752h-3.751c-1.47,0-2.985-0.687-4.548-2.059
			c-1.97-1.747-2.954-4.433-2.954-7.178 M1238.268,481.513c0.453-1.895,1.509-3.897,3.168-6.005
			c2.531-3.213,5.282-4.819,8.252-4.819h3.377c0.718,0,1.624,0.422,2.719,1.266c1.25,0.969,1.876,1.938,1.876,2.906
			c0,0.782-0.265,1.501-0.792,2.157c-0.651,0.782-1.488,1.173-2.513,1.173c-1.21,0-2.01-0.289-2.398-0.867
			c-0.388-0.578-0.581-1.415-0.581-2.51c0-0.311,0-0.64,0-0.984c0-0.343,0-0.703,0-1.078h-2.11c-1.812,1.84-3.078,3.633-3.798,5.378
			c-0.812,1.933-1.219,4.318-1.219,7.154c0,1.716,0.343,3.048,1.032,3.999c0.687,0.951,1.749,1.428,3.188,1.428
			c1.656,0,3.626-1.026,5.908-3.077c3.094-2.795,4.97-4.44,5.188-4.565"/>
		<path fill="none" stroke="#ED1C24" stroke-width="0.25" stroke-miterlimit="10" d="M1286.414,487.526
			c-0.464,0.776-1.181,1.64-2.146,2.589c-1.86,1.825-3.493,2.739-4.9,2.739c-2.282,0-3.689-0.999-4.221-2.997
			c-0.75-2.776-1.328-4.337-1.734-4.681c-1.439,2.406-2.72,4.11-3.845,5.11c-1.563,1.407-3.423,2.11-5.58,2.11
			c-1.75,0-3.001-0.781-3.751-2.346c-0.594-1.22-0.891-2.846-0.891-4.879c0.01-0.094,0.019-0.188,0.029-0.283 M1259.566,483.067
			c0.052-0.5,0.104-1.002,0.155-1.507c0.438-2.784,1.047-5.052,1.828-6.803c1.095-2.44,2.485-3.659,4.174-3.659
			c0.312,0,0.594,0.101,0.844,0.305c0.25,0.203,0.672,0.665,1.267,1.384c-0.876,0.876-1.564,2.878-2.064,6.005
			c-0.688,4.223-1.126,6.632-1.312,7.225v4.27h2.109c3.094-2.438,5.423-5.36,6.986-8.768c0.844-2.345,1.703-4.705,2.578-7.08
			c0.781-1.939,2.001-2.908,3.658-2.908c0.281,0,0.539,0.009,0.774,0.024c0.234,0.016,0.461,0.023,0.68,0.023
			c0.25,0,0.484-0.016,0.703-0.048v3.421c-0.812,0.906-1.359,2.453-1.641,4.639c-0.375,2.937-0.688,4.796-0.938,5.576v4.686
			c1.343,0,2.469-0.358,3.375-1.077c1.062-0.842,2.204-2.464,3.424-4.866"/>
		<path fill="none" stroke="#ED1C24" stroke-width="0.25" stroke-miterlimit="10" d="M1302.172,485.431
			c-1.906,2.691-3.785,4.475-5.504,5.57c-1.439,0.939-2.877,1.407-4.314,1.407c-2.064,0-3.643-0.734-4.735-2.204
			c-0.58-0.768-0.987-1.659-1.22-2.674 M1302.107,483.113 M1286.166,483.909v-6.09c0-2.877,0.577-6.818,1.735-11.821
			c1.312-5.661,2.828-10.275,4.547-13.839c2.156-4.441,4.345-6.662,6.565-6.662c0.375,0,0.797,0.14,1.267,0.421
			c1.219,0.72,1.828,1.752,1.828,3.097v7.084c0,2.879-0.907,6.13-2.72,9.758c-1.72,3.128-3.439,6.239-5.158,9.335
			c-1.844,3.691-2.766,6.928-2.766,9.712c0.156,1.189,0.297,2.064,0.423,2.627c0.437,1.782,1.031,2.674,1.78,2.674
			c1.283,0,2.892-1.174,4.83-3.522c1.312-1.565,2.58-2.896,3.676-3.711 M1300.326,456.093v-7.924
			c-0.282,0.094-0.485,0.141-0.61,0.141c-0.25-0.093-0.484-0.141-0.703-0.141c-1.031,0-2.079,2.142-3.142,6.424
			c-0.814,3.188-1.562,7.238-2.251,12.145c-0.562,3.938-0.844,6.299-0.844,7.08c2.251-4.502,4.33-9.425,6.236-14.771
			C1299.67,457.235,1300.106,456.25,1300.326,456.093z"/>
		<path fill="none" stroke="#ED1C24" stroke-width="0.25" stroke-miterlimit="10" d="M1328.271,489.174
			c-1.907,2.156-3.924,3.234-6.049,3.234c-1.22,0-2.298-0.61-3.235-1.833c-0.5-0.658-0.922-1.426-1.266-2.304h-1.266
			c-0.782,1.159-1.517,2.006-2.205,2.539c-1.406,1.065-3.126,1.598-5.156,1.598c-2.157,0-3.893-0.858-5.205-2.575
			c-0.976-1.283-1.552-2.777-1.726-4.482 M1328.839,485.379 M1302.165,483.05c0.31-3.133,1.885-5.993,4.726-8.58
			c2.782-2.529,5.282-3.794,7.502-3.794c0.968,0,1.97,0.275,3.001,0.827c1.031,0.551,1.812,1.217,2.344,1.998
			c0.625-0.562,1.109-0.969,1.454-1.219c1.093-0.812,1.984-1.219,2.673-1.219c0.562,0,0.906,0.156,1.031,0.469
			c0.124,0.312,0.188,0.846,0.188,1.596c0,0.125-0.414,1.877-1.242,5.254c-0.83,3.378-1.244,5.583-1.244,6.615v4.973
			c2.471-0.25,4.221-1.288,5.252-3.117c0.321-0.569,0.652-1.061,0.991-1.474 M1302.164,485.35 M1318.518,476.812
			c0-1.029-0.258-1.833-0.773-2.411c-0.516-0.576-1.353-0.865-2.508-0.865c-1.471,0-2.846,1.171-4.127,3.511
			c-0.876,1.623-1.688,3.791-2.438,6.506c-0.281,1.187-0.563,2.356-0.844,3.511c0,0.626,0.406,1.297,1.219,2.016
			c0.25,0.22,0.673,0.516,1.267,0.891c2.125,0,4.062-1.576,5.813-4.732C1317.721,482.367,1318.518,479.559,1318.518,476.812z"/>
		<path fill="none" stroke="#ED1C24" stroke-width="0.25" stroke-miterlimit="10" d="M1328.85,485.38
			c0.181-1.115,0.37-2.498,0.568-4.147c0.423-3.511,0.885-5.921,1.383-7.232c0.845-2.216,2.126-3.324,3.846-3.324
			c0.25,0,0.672,0.314,1.266,0.938c0.594,0.626,0.892,1.017,0.892,1.173l-1.735,5.579v1.688c1.375-1.062,3.048-3.157,5.017-6.283
			c1.282-2.062,3.017-3.095,5.204-3.095c0.656,0,1.11,0.064,1.361,0.188c0.529,0.249,0.797,0.748,0.797,1.496
			c0,0.499-0.423,1.652-1.267,3.46c-0.845,1.809-1.266,3.07-1.266,3.787c0,0.935,0.531,1.528,1.594,1.777
			c1.063,0.25,1.797,0.499,2.204,0.749c-0.469,0.343-0.923,0.685-1.359,1.028c-0.345,0.187-0.876,0.28-1.595,0.28
			c-1.563,0-2.845-0.761-3.845-2.284c-0.72-1.211-1.438-2.424-2.157-3.635c-1.938,3.211-3.345,5.847-4.22,7.904
			c-0.875,2.339-1.734,4.662-2.579,6.971h-4.689v-3.225"/>
		<path fill="none" stroke="#ED1C24" stroke-width="0.25" stroke-miterlimit="10" d="M1422.025,485.398 M1422.205,485.466
			c-0.438,2.017-1.938,3.685-4.145,5.138c-2.188,1.439-4.079,2.157-5.673,2.157c-2.281,0-4.032-1.062-5.252-3.188
			c-1.095-1.904-1.642-4.358-1.642-7.358v-4.874c0-1.844-0.421-3.577-1.266-5.202c-1.03-1.999-2.391-2.999-4.079-2.999
			c-0.562,0-1,1.439-1.312,4.314c-0.312,2.877-1.235,6.049-2.767,9.518c-0.688,1.689-2.126,3.564-4.313,5.628
			c-2.689,2.531-5.174,3.798-7.455,3.798h-4.924c-2.313,0-4.322-0.931-6.024-2.791c-1.704-1.859-2.556-3.915-2.556-6.165
			c0-1.25,0.438-2.626,1.312-4.126c1.25-2.156,2.984-3.235,5.205-3.235c2.75,0,4.127,0.938,4.127,2.814
			c0,0.75-1.096,1.798-3.283,3.141c-2.188,1.346-3.282,2.767-3.282,4.268c0,0.813,0.5,1.704,1.501,2.672
			c1.249,1.189,2.781,1.783,4.595,1.783c2.781,0,5.376-2.533,7.783-7.597c1.719-3.657,3.251-8.377,4.595-14.16
			c0.5-2.532,1-5.079,1.501-7.643c-0.157,0.032-1.517,0.814-4.079,2.346c-2.002,1.188-4.299,1.781-6.894,1.781
			c-2.531,0-4.391-0.586-5.579-1.758c-1.188-1.173-1.781-2.899-1.781-5.182c0-1.031,0.297-2.227,0.891-3.587
			c0.594-1.359,1.25-2.493,1.969-3.4h2.065v1.22c-0.376,0.656-0.642,1.234-0.798,1.733c-0.281,0.814-0.422,1.626-0.422,2.439
			c0,1.719,0.656,2.939,1.969,3.657c0.939,0.5,2.157,0.75,3.658,0.75c3.062,0,5.954-1.202,8.674-3.61
			c1.624-1.438,3.579-3.813,5.86-7.127c2.032-2.938,3.454-4.658,4.268-5.158c0.062,0.187-0.204,1.329-0.798,3.422
			c-0.438,1.626-1.141,3.985-2.11,7.08c-0.843,2.784-1.625,5.269-2.344,7.456v3.282c3.281-0.562,5.985-2.281,8.111-5.157
			c1.719-2.939,3.453-5.876,5.205-8.816c2.312-3.751,5.064-6.579,8.253-8.486h1.641v1.688c-2.157,1.72-3.846,3.799-5.063,6.236
			c-3.127,6.346-4.971,9.816-5.533,10.41c-0.312,0.312-1.923,1.329-4.83,3.048c-1.344,0.782-2.329,1.547-2.954,2.298
			c3.626,3.624,6.126,7.357,7.503,11.2c0.405,1.125,0.922,3.671,1.547,7.639c0.281,1.842,1.078,2.764,2.391,2.764
			c0.5,0,1.579-1.108,3.236-3.328c1.031-1.375,2.47-2.68,3.595-3.462"/>
		<path fill="none" stroke="#ED1C24" stroke-width="0.25" stroke-miterlimit="10" d="M1449.956,487.266
			c-0.687,1.212-1.629,2.294-2.825,3.247c-1.938,1.529-3.688,2.295-5.251,2.295c-1.251,0-2.337-0.602-3.259-1.805
			c-0.923-1.203-1.384-2.713-1.384-4.525c0-2.251,0.5-4.971,1.501-8.158c0.312-1.062,0.812-2.438,1.501-4.126
			c0-0.282-0.188-0.564-0.563-0.845c-0.375-0.281-0.766-0.422-1.172-0.422c-1.812,0-3.673,1.674-5.58,5.02
			c-1.532,3.129-3.063,6.256-4.595,9.385c-1.719,3.377-3.251,5.066-4.596,5.066c-0.499,0-0.906-0.141-1.218-0.422
			c-0.312-0.281-0.47-0.83-0.47-1.643c0-0.438,0-0.751,0-0.938c0-1.309,0.053-2.618,0.159-3.93 M1422.5,482.735
			c0.193-1.422,0.448-2.846,0.766-4.271c1.126-5.098,2.689-7.647,4.689-7.647c0.656,0,1.109,0.14,1.36,0.421
			c0.249,0.282,0.375,0.72,0.375,1.314c0,0.344-0.345,1.907-1.032,4.689c-0.345,1.406-0.516,2.548-0.516,3.422
			c0,0.75,0.078,1.406,0.234,1.969c0.312-0.749,0.875-1.812,1.688-3.188c1.345-2.313,2.721-4.188,4.127-5.626
			c1.969-2.001,3.845-3.001,5.627-3.001c0.938,0,1.945,0.57,3.023,1.711c1.078,1.141,1.618,2.118,1.618,2.931v3.845l-2.579,8.815
			v2.157h1.735c1.624-0.843,2.953-1.95,3.985-3.323c0.906-1.342,1.688-2.807,2.344-3.743"/>
		<path fill="none" stroke="#ED1C24" stroke-width="0.25" stroke-miterlimit="10" d="M1449.944,483.209 M1449.995,487.175
			 M1464.158,486.045c-0.41,0.959-1.163,2.017-2.257,3.171c-2.033,2.129-4.205,3.192-6.518,3.192c-1.689,0-3.08-0.812-4.174-2.44
			c-0.675-1.001-1.08-1.932-1.215-2.793 M1464.158,486.045 M1449.944,483.209c0.5-2.816,0.953-4.913,1.359-6.29
			c1.25-4.193,2.734-6.29,4.455-6.29c0.875,0,1.453,0.142,1.734,0.423c0.281,0.281,0.422,0.735,0.422,1.361
			c-0.031,0.502-0.047,0.893-0.047,1.174c0,0.595-0.414,2.902-1.242,6.924c-0.828,4.021-1.242,6.58-1.242,7.676
			c0,1.127,0.547,1.69,1.641,1.69c0.656,0,1.531-0.596,2.625-1.785c1.501-1.628,3.001-3.257,4.502-4.885 M1460.775,460.173
			c0,1.032-0.5,1.892-1.501,2.58c-0.75,0.531-1.359,0.796-1.828,0.796c-0.844,0-1.61-0.311-2.297-0.938
			c-0.688-0.625-1.031-1.296-1.031-2.016c0-0.781,0.343-1.562,1.031-2.345c0.812-0.906,1.719-1.359,2.719-1.359
			c1.22,0,2.047,0.391,2.485,1.172C1460.634,458.563,1460.775,459.267,1460.775,460.173z"/>
		<path fill="none" stroke="#ED1C24" stroke-width="0.25" stroke-miterlimit="10" d="M1475.871,487.614
			c-0.893,1.238-1.868,2.266-2.929,3.081c-1.485,1.143-2.915,1.713-4.289,1.713c-1.189,0-2.236-0.421-3.143-1.264
			c-0.906-0.844-1.359-1.906-1.359-3.187v-1.912 M1475.871,487.614 M1464.153,483.206c0.033-1.175,0.406-3.434,1.123-6.772
			c0.25-1.155,0.641-2.826,1.172-5.013c0-0.281-0.203-0.561-0.609-0.844c-0.688-0.405-1.251-0.748-1.688-1.029
			c0-0.319,0-0.542,0-0.671c0-0.128,0-0.415,0-0.861c2.345,0,3.86-1.572,4.549-4.719c0.686-3.145,1.671-4.718,2.953-4.718
			c0.562,0,1.016,0.236,1.359,0.708c0.344,0.473,0.516,1.117,0.516,1.936c0,0.629-0.102,1.314-0.305,2.052
			c-0.203,0.739-0.476,1.566-0.82,2.478v2.265c0.656,0,1.297,0,1.922,0s1.234,0,1.829,0c0.563,0,0.938,0,1.126,0v1.828
			c-0.626,0.188-1.181,0.313-1.664,0.375c-0.486,0.063-0.932,0.094-1.337,0.094c-0.595,0-1.001,0-1.22,0
			c-0.312,0-0.532,0.017-0.656,0.048c-0.219,0.062-0.469,0.18-0.75,0.35c-0.281,0.172-0.813,2.099-1.595,5.781
			c-0.938,4.369-1.405,8.191-1.405,11.466c0,0.532,0.116,0.969,0.351,1.312c0.234,0.343,0.617,0.515,1.148,0.515
			c0.47,0,1.126-0.392,1.97-1.175c1.156-1.064,2.375-2.678,3.658-4.839"/>
		<path fill="none" stroke="#ED1C24" stroke-width="0.25" stroke-miterlimit="10" d="M1490.165,485.588
			c-0.348,1.077-1.158,2.286-2.43,3.628c-2.033,2.129-4.205,3.192-6.517,3.192c-1.688,0-3.079-0.812-4.174-2.44
			c-0.596-0.884-0.98-1.713-1.156-2.488 M1490.165,485.588 M1475.778,483.77v-0.561c0.5-2.816,0.953-4.913,1.359-6.29
			c1.251-4.193,2.735-6.29,4.455-6.29c0.875,0,1.454,0.142,1.734,0.423c0.281,0.281,0.423,0.735,0.423,1.361
			c-0.031,0.502-0.047,0.893-0.047,1.174c0,0.595-0.415,2.902-1.243,6.924c-0.828,4.021-1.242,6.58-1.242,7.676
			c0,1.127,0.547,1.69,1.641,1.69c0.657,0,1.531-0.596,2.626-1.785c1.5-1.628,3.001-3.257,4.501-4.885 M1486.609,460.173
			c0,1.032-0.5,1.892-1.5,2.58c-0.75,0.531-1.359,0.796-1.829,0.796c-0.843,0-1.61-0.311-2.297-0.938
			c-0.688-0.625-1.031-1.296-1.031-2.016c0-0.781,0.344-1.562,1.031-2.345c0.812-0.906,1.719-1.359,2.72-1.359
			c1.219,0,2.046,0.391,2.485,1.172C1486.469,458.563,1486.609,459.267,1486.609,460.173z"/>
		<path fill="none" stroke="#ED1C24" stroke-width="0.25" stroke-miterlimit="10" d="M1511.319,484.887
			c-0.907,1.679-2.22,3.265-3.938,4.759c-2.157,1.834-4.204,2.752-6.142,2.752h-3.751c-1.469,0-2.984-0.687-4.547-2.059
			c-1.971-1.747-2.955-3.992-2.955-6.738c0-2.494,1.141-5.192,3.423-8.093c2.532-3.213,5.282-4.819,8.253-4.819h3.376
			c0.718,0,1.624,0.422,2.72,1.266c1.25,0.969,1.875,1.938,1.875,2.906c0,0.782-0.264,1.501-0.792,2.157
			c-0.651,0.782-1.488,1.173-2.513,1.173c-1.21,0-2.01-0.289-2.396-0.867c-0.389-0.578-0.582-1.415-0.582-2.51
			c0-0.311,0-0.64,0-0.984c0-0.343,0-0.703,0-1.078h-2.11c-1.812,1.84-3.078,3.633-3.798,5.378
			c-0.812,1.933-1.219,4.318-1.219,7.154c0,1.716,0.344,3.048,1.032,3.999c0.687,0.951,1.749,1.428,3.188,1.428
			c1.656,0,3.626-1.026,5.908-3.077c3.095-2.795,4.751-4.255,4.97-4.38V484.887z"/>
	</g>
</g>
<g>
	<g>
		
			<rect x="1158.499" y="590.013" fill="none" stroke="#000000" stroke-width="0.25" stroke-miterlimit="10" width="366.528" height="130.394"/>
	</g>
</g>
<path fill="none" stroke="#000000" stroke-width="0.25" stroke-miterlimit="10" d="M196.041,524.374v85.461v0.001h-28.173v56.059
	h28.173v-0.005v48.567h112.798c0,0,0-48.567,0-48.562h14.174v-56.059h-14.174v-0.001c0,0,0-85.452,0-85.461h14.174v-56.35
	l-14.174-0.001v-49.816H196.041v49.816h-28.173v56.342h28.173"/>
<path fill="none" stroke="#4D4D4D" stroke-width="0.25" stroke-miterlimit="10" d="M293.679,456.778h-83c-2.475,0-4.5-2.025-4.5-4.5
	l0,0c0-2.475,2.025-4.5,4.5-4.5h83c2.475,0,4.5,2.025,4.5,4.5l0,0C298.179,454.753,296.154,456.778,293.679,456.778z"/>
<path fill="none" stroke="#4D4D4D" stroke-width="0.25" stroke-miterlimit="10" d="M293.679,438.528h-83c-2.475,0-4.5-2.025-4.5-4.5
	l0,0c0-2.475,2.025-4.5,4.5-4.5h83c2.475,0,4.5,2.025,4.5,4.5l0,0C298.179,436.503,296.154,438.528,293.679,438.528z"/>
<path fill="none" stroke="#4D4D4D" stroke-width="0.25" stroke-miterlimit="10" d="M293.679,474.778h-83c-2.475,0-4.5-2.025-4.5-4.5
	l0,0c0-2.475,2.025-4.5,4.5-4.5h83c2.475,0,4.5,2.025,4.5,4.5l0,0C298.179,472.753,296.154,474.778,293.679,474.778z"/>
<path fill="none" stroke="#4D4D4D" stroke-width="0.25" stroke-miterlimit="10" d="M293.679,492.778h-83c-2.475,0-4.5-2.025-4.5-4.5
	l0,0c0-2.475,2.025-4.5,4.5-4.5h83c2.475,0,4.5,2.025,4.5,4.5l0,0C298.179,490.753,296.154,492.778,293.679,492.778z"/>
<path fill="none" stroke="#4D4D4D" stroke-width="0.25" stroke-miterlimit="10" d="M293.679,510.778h-83c-2.475,0-4.5-2.025-4.5-4.5
	l0,0c0-2.475,2.025-4.5,4.5-4.5h83c2.475,0,4.5,2.025,4.5,4.5l0,0C298.179,508.753,296.154,510.778,293.679,510.778z"/>
<path fill="none" stroke="#4D4D4D" stroke-width="0.25" stroke-miterlimit="10" d="M293.679,528.778h-83c-2.475,0-4.5-2.025-4.5-4.5
	l0,0c0-2.475,2.025-4.5,4.5-4.5h83c2.475,0,4.5,2.025,4.5,4.5l0,0C298.179,526.753,296.154,528.778,293.679,528.778z"/>
<path fill="none" stroke="#4D4D4D" stroke-width="0.25" stroke-miterlimit="10" d="M293.679,546.611h-83c-2.475,0-4.5-2.024-4.5-4.5
	l0,0c0-2.475,2.025-4.5,4.5-4.5h83c2.475,0,4.5,2.025,4.5,4.5l0,0C298.179,544.587,296.154,546.611,293.679,546.611z"/>
<path fill="none" stroke="#4D4D4D" stroke-width="0.25" stroke-miterlimit="10" d="M293.679,564.445h-83c-2.475,0-4.5-2.025-4.5-4.5
	l0,0c0-2.476,2.025-4.5,4.5-4.5h83c2.475,0,4.5,2.024,4.5,4.5l0,0C298.179,562.42,296.154,564.445,293.679,564.445z"/>
<path fill="none" stroke="#4D4D4D" stroke-width="0.25" stroke-miterlimit="10" d="M293.679,582.445h-83c-2.475,0-4.5-2.025-4.5-4.5
	l0,0c0-2.476,2.025-4.5,4.5-4.5h83c2.475,0,4.5,2.024,4.5,4.5l0,0C298.179,580.42,296.154,582.445,293.679,582.445z"/>
<path fill="none" stroke="#4D4D4D" stroke-width="0.25" stroke-miterlimit="10" d="M293.679,600.278h-83c-2.475,0-4.5-2.025-4.5-4.5
	l0,0c0-2.475,2.025-4.5,4.5-4.5h83c2.475,0,4.5,2.025,4.5,4.5l0,0C298.179,598.253,296.154,600.278,293.679,600.278z"/>
<path fill="none" stroke="#4D4D4D" stroke-width="0.25" stroke-miterlimit="10" d="M293.679,618.111h-83c-2.475,0-4.5-2.024-4.5-4.5
	l0,0c0-2.475,2.025-4.5,4.5-4.5h83c2.475,0,4.5,2.025,4.5,4.5l0,0C298.179,616.087,296.154,618.111,293.679,618.111z"/>
<path fill="none" stroke="#4D4D4D" stroke-width="0.25" stroke-miterlimit="10" d="M293.679,636.111h-83c-2.475,0-4.5-2.024-4.5-4.5
	l0,0c0-2.475,2.025-4.5,4.5-4.5h83c2.475,0,4.5,2.025,4.5,4.5l0,0C298.179,634.087,296.154,636.111,293.679,636.111z"/>
<path fill="none" stroke="#4D4D4D" stroke-width="0.25" stroke-miterlimit="10" d="M293.679,654.111h-83c-2.475,0-4.5-2.024-4.5-4.5
	l0,0c0-2.475,2.025-4.5,4.5-4.5h83c2.475,0,4.5,2.025,4.5,4.5l0,0C298.179,652.087,296.154,654.111,293.679,654.111z"/>
<path fill="none" stroke="#4D4D4D" stroke-width="0.25" stroke-miterlimit="10" d="M293.679,671.945h-83c-2.475,0-4.5-2.025-4.5-4.5
	l0,0c0-2.476,2.025-4.5,4.5-4.5h83c2.475,0,4.5,2.024,4.5,4.5l0,0C298.179,669.92,296.154,671.945,293.679,671.945z"/>
<path fill="none" stroke="#4D4D4D" stroke-width="0.25" stroke-miterlimit="10" d="M293.679,689.945h-83c-2.475,0-4.5-2.025-4.5-4.5
	l0,0c0-2.476,2.025-4.5,4.5-4.5h83c2.475,0,4.5,2.024,4.5,4.5l0,0C298.179,687.92,296.154,689.945,293.679,689.945z"/>
<path fill="none" stroke="#4D4D4D" stroke-width="0.25" stroke-miterlimit="10" d="M293.679,707.778h-83c-2.475,0-4.5-2.025-4.5-4.5
	l0,0c0-2.475,2.025-4.5,4.5-4.5h83c2.475,0,4.5,2.025,4.5,4.5l0,0C298.179,705.753,296.154,707.778,293.679,707.778z"/>
<path fill="none" stroke="#000000" stroke-width="0.25" stroke-miterlimit="10" d="M1019.138,609.659v-85.285v-0.001h28.173v-56.35
	h-28.173v0.005v-49.821H906.34c0,0,0,49.821,0,49.816h-14.174v56.35h14.174v0.001c0,0,0,85.285,0,85.294h-14.174v56.227
	l14.174,0.001v48.562h112.798v-48.562h28.173v-56.227h-28.173"/>
<path fill="none" stroke="#4D4D4D" stroke-width="0.25" stroke-miterlimit="10" d="M921.5,677.607h83c2.475,0,4.5,2.025,4.5,4.5l0,0
	c0,2.475-2.025,4.5-4.5,4.5h-83c-2.475,0-4.5-2.025-4.5-4.5l0,0C917,679.632,919.025,677.607,921.5,677.607z"/>
<path fill="none" stroke="#4D4D4D" stroke-width="0.25" stroke-miterlimit="10" d="M921.5,695.857h83c2.475,0,4.5,2.025,4.5,4.5l0,0
	c0,2.475-2.025,4.5-4.5,4.5h-83c-2.475,0-4.5-2.025-4.5-4.5l0,0C917,697.882,919.025,695.857,921.5,695.857z"/>
<path fill="none" stroke="#4D4D4D" stroke-width="0.25" stroke-miterlimit="10" d="M921.5,659.607h83c2.475,0,4.5,2.025,4.5,4.5l0,0
	c0,2.475-2.025,4.5-4.5,4.5h-83c-2.475,0-4.5-2.025-4.5-4.5l0,0C917,661.632,919.025,659.607,921.5,659.607z"/>
<path fill="none" stroke="#4D4D4D" stroke-width="0.25" stroke-miterlimit="10" d="M921.5,641.607h83c2.475,0,4.5,2.025,4.5,4.5l0,0
	c0,2.475-2.025,4.5-4.5,4.5h-83c-2.475,0-4.5-2.025-4.5-4.5l0,0C917,643.632,919.025,641.607,921.5,641.607z"/>
<path fill="none" stroke="#4D4D4D" stroke-width="0.25" stroke-miterlimit="10" d="M921.5,623.607h83c2.475,0,4.5,2.025,4.5,4.5l0,0
	c0,2.475-2.025,4.5-4.5,4.5h-83c-2.475,0-4.5-2.025-4.5-4.5l0,0C917,625.632,919.025,623.607,921.5,623.607z"/>
<path fill="none" stroke="#4D4D4D" stroke-width="0.25" stroke-miterlimit="10" d="M921.5,605.607h83c2.475,0,4.5,2.025,4.5,4.5l0,0
	c0,2.475-2.025,4.5-4.5,4.5h-83c-2.475,0-4.5-2.025-4.5-4.5l0,0C917,607.632,919.025,605.607,921.5,605.607z"/>
<path fill="none" stroke="#4D4D4D" stroke-width="0.25" stroke-miterlimit="10" d="M921.5,587.773h83c2.475,0,4.5,2.025,4.5,4.5l0,0
	c0,2.475-2.025,4.5-4.5,4.5h-83c-2.475,0-4.5-2.025-4.5-4.5l0,0C917,589.798,919.025,587.773,921.5,587.773z"/>
<path fill="none" stroke="#4D4D4D" stroke-width="0.25" stroke-miterlimit="10" d="M921.5,569.94h83c2.475,0,4.5,2.025,4.5,4.5l0,0
	c0,2.475-2.025,4.5-4.5,4.5h-83c-2.475,0-4.5-2.025-4.5-4.5l0,0C917,571.965,919.025,569.94,921.5,569.94z"/>
<path fill="none" stroke="#4D4D4D" stroke-width="0.25" stroke-miterlimit="10" d="M921.5,551.94h83c2.475,0,4.5,2.025,4.5,4.5l0,0
	c0,2.475-2.025,4.5-4.5,4.5h-83c-2.475,0-4.5-2.025-4.5-4.5l0,0C917,553.965,919.025,551.94,921.5,551.94z"/>
<path fill="none" stroke="#4D4D4D" stroke-width="0.25" stroke-miterlimit="10" d="M921.5,534.107h83c2.475,0,4.5,2.025,4.5,4.5l0,0
	c0,2.475-2.025,4.5-4.5,4.5h-83c-2.475,0-4.5-2.025-4.5-4.5l0,0C917,536.132,919.025,534.107,921.5,534.107z"/>
<path fill="none" stroke="#4D4D4D" stroke-width="0.25" stroke-miterlimit="10" d="M921.5,516.273h83c2.475,0,4.5,2.025,4.5,4.5l0,0
	c0,2.475-2.025,4.5-4.5,4.5h-83c-2.475,0-4.5-2.025-4.5-4.5l0,0C917,518.298,919.025,516.273,921.5,516.273z"/>
<path fill="none" stroke="#4D4D4D" stroke-width="0.25" stroke-miterlimit="10" d="M921.5,498.273h83c2.475,0,4.5,2.025,4.5,4.5l0,0
	c0,2.475-2.025,4.5-4.5,4.5h-83c-2.475,0-4.5-2.025-4.5-4.5l0,0C917,500.298,919.025,498.273,921.5,498.273z"/>
<path fill="none" stroke="#4D4D4D" stroke-width="0.25" stroke-miterlimit="10" d="M921.5,480.273h83c2.475,0,4.5,2.025,4.5,4.5l0,0
	c0,2.475-2.025,4.5-4.5,4.5h-83c-2.475,0-4.5-2.025-4.5-4.5l0,0C917,482.298,919.025,480.273,921.5,480.273z"/>
<path fill="none" stroke="#4D4D4D" stroke-width="0.25" stroke-miterlimit="10" d="M921.5,462.44h83c2.475,0,4.5,2.025,4.5,4.5l0,0
	c0,2.475-2.025,4.5-4.5,4.5h-83c-2.475,0-4.5-2.025-4.5-4.5l0,0C917,464.465,919.025,462.44,921.5,462.44z"/>
<path fill="none" stroke="#4D4D4D" stroke-width="0.25" stroke-miterlimit="10" d="M921.5,444.44h83c2.475,0,4.5,2.025,4.5,4.5l0,0
	c0,2.475-2.025,4.5-4.5,4.5h-83c-2.475,0-4.5-2.025-4.5-4.5l0,0C917,446.465,919.025,444.44,921.5,444.44z"/>
<path fill="none" stroke="#4D4D4D" stroke-width="0.25" stroke-miterlimit="10" d="M921.5,426.607h83c2.475,0,4.5,2.025,4.5,4.5l0,0
	c0,2.475-2.025,4.5-4.5,4.5h-83c-2.475,0-4.5-2.025-4.5-4.5l0,0C917,428.632,919.025,426.607,921.5,426.607z"/>
<g>
	<path fill="none" stroke="#000000" stroke-width="0.25" stroke-miterlimit="10" d="M444.741,333.948"/>
	<path fill="none" stroke="#000000" stroke-width="0.25" stroke-miterlimit="10" d="M648.969,220.562h-85.053h-0.001v-14.173
		h-56.743v14.173h0.006h-98.9v113.386c23.086,0,98.896,0,98.894,0v14.173h56.743v-14.173h0.001c0,0,85.053,0,85.062,0v14.173h56.664
		l0-14.173h17.891l0.001,0.153v-45.355h45.354v45.355v-0.153h34.968V220.562h-98.215v-14.173h-56.664v14.173"/>
</g>
<rect x="435.988" y="268.751" fill="none" stroke="#000000" stroke-width="0.25" stroke-miterlimit="10" width="39.685" height="17.008"/>
<circle fill="none" stroke="#000000" stroke-width="0.25" stroke-miterlimit="10" cx="822.232" cy="400.14" r="8.504"/>
<rect x="393.863" y="609.472" fill="none" stroke="#010101" stroke-width="0.25" width="14.109" height="56.409"/>
<rect x="393.833" y="468.024" fill="none" stroke="#010101" stroke-width="0.25" width="14.109" height="56.409"/>
<rect x="804.79" y="609.672" fill="none" stroke="#010101" stroke-width="0.25" width="14.109" height="56.409"/>
<rect x="804.761" y="467.965" fill="none" stroke="#010101" stroke-width="0.25" width="14.109" height="56.409"/>
<rect x="507.463" y="715.017" fill="none" stroke="#010101" stroke-width="0.25" width="56.693" height="14.144"/>
<rect x="649.068" y="715.048" fill="none" stroke="#010101" stroke-width="0.25" width="56.693" height="14.141"/>
<rect x="507.336" y="404.145" fill="none" stroke="#010101" stroke-width="0.25" width="56.883" height="13.89"/>
<rect x="649.194" y="404.049" fill="none" stroke="#010101" stroke-width="0.25" width="56.693" height="14.141"/>
<circle fill="none" stroke="#000000" stroke-width="0.25" stroke-miterlimit="10" cx="390.867" cy="733.741" r="8.504"/>
<circle fill="none" stroke="#000000" stroke-width="0.25" stroke-miterlimit="10" cx="822.242" cy="733.741" r="8.504"/>
<circle fill="none" stroke="#000000" stroke-width="0.25" stroke-miterlimit="10" cx="390.867" cy="400.134" r="8.504"/>
<path fill="none" stroke="#000000" stroke-width="0.25" stroke-miterlimit="10" d="M822.96,758.24H390.966
	c-13.475,0-24.5-11.025-24.5-24.5V401.473c0-13.475,11.025-24.5,24.5-24.5H822.96c13.475,0,24.5,11.025,24.5,24.5V733.74
	C847.46,747.215,836.435,758.24,822.96,758.24z"/>
<circle fill="none" stroke="#000000" stroke-width="0.25" stroke-miterlimit="10" cx="659.828" cy="705.061" r="4.252"/>
<circle fill="none" stroke="#000000" stroke-width="0.25" stroke-miterlimit="10" cx="739.788" cy="705.061" r="4.252"/>
<circle fill="none" stroke="#000000" stroke-width="0.25" stroke-miterlimit="10" cx="782.389" cy="560.851" r="4.252"/>
<circle fill="none" stroke="#000000" stroke-width="0.25" stroke-miterlimit="10" cx="646.164" cy="555.763" r="4.252"/>
<circle fill="none" stroke="#000000" stroke-width="0.25" stroke-miterlimit="10" cx="458.42" cy="533.924" r="4.252"/>
<circle fill="none" stroke="#000000" stroke-width="0.25" stroke-miterlimit="10" cx="522.199" cy="470.269" r="4.252"/>
<circle fill="none" stroke="#000000" stroke-width="0.25" stroke-miterlimit="10" cx="585.979" cy="533.791" r="4.252"/>
<circle fill="none" stroke="#000000" stroke-width="0.25" stroke-miterlimit="10" cx="522.199" cy="597.828" r="4.252"/>
<circle fill="none" stroke="#4D4D4D" stroke-width="0.25" stroke-miterlimit="10" cx="480.434" cy="533.791" r="4.252"/>
<circle fill="none" stroke="#4D4D4D" stroke-width="0.25" stroke-miterlimit="10" cx="563.319" cy="533.791" r="4.252"/>
<circle fill="none" stroke="#000000" stroke-width="0.25" stroke-miterlimit="10" cx="512.356" cy="657.535" r="4.252"/>
<circle fill="none" stroke="#000000" stroke-width="0.25" stroke-miterlimit="10" cx="540.547" cy="657.535" r="4.252"/>
<path fill="none" stroke="#000000" stroke-width="0.25" stroke-miterlimit="10" d="M649.087,809.785h-84.923h-0.001v-14.173h-56.743
	v14.173h0.005h-98.111v113.386c0,0,98.111,0,98.106,0v14.174h56.743v-14.174h0.001c0,0,84.923,0,84.932,0v14.174h56.664
	l0.001-14.174h30.44v-21.268h46.853v21.268h21.766V809.785h-99.06v-14.173h-56.664v14.173"/>
<polygon fill="none" stroke="#000000" stroke-width="0.1" stroke-miterlimit="10" points="1181.321,823.333 1229.667,823.333 
	1229.701,820.45 1235.583,820.45 1235.584,909.458 1229.667,909.458 1229.667,906.5 1181.321,906.5 1181.321,909.458 
	1175.403,909.458 1175.404,820.45 1181.286,820.45 "/>
<rect x="1097.678" y="795.704" fill="none" stroke="#000000" stroke-width="0.1" stroke-miterlimit="10" width="480.674" height="130.129"/>
<rect x="1130.595" y="820.922" fill="none" stroke="#000000" stroke-width="0.1" stroke-miterlimit="10" width="14.109" height="56.408"/>
<rect x="1541.583" y="820.922" fill="none" stroke="#000000" stroke-width="0.1" stroke-miterlimit="10" width="14.109" height="56.408"/>
<circle fill="none" stroke="#000000" stroke-width="0.1" stroke-miterlimit="10" cx="1343.74" cy="865.25" r="21.26"/>
<circle fill="none" stroke="#000000" stroke-width="0.1" stroke-miterlimit="10" cx="1322.649" cy="835.99" r="4.394"/>
<circle fill="none" stroke="#000000" stroke-width="0.1" stroke-miterlimit="10" cx="1364.998" cy="835.99" r="4.394"/>
<circle fill="none" stroke="#000000" stroke-width="0.25" stroke-miterlimit="10" cx="1126.71" cy="734.682" r="8.504"/>
<circle fill="none" stroke="#000000" stroke-width="0.25" stroke-miterlimit="10" cx="1558.085" cy="734.682" r="8.504"/>
<circle fill="none" stroke="#000000" stroke-width="0.25" stroke-miterlimit="10" cx="1126.71" cy="401.076" r="8.504"/>
<circle fill="none" stroke="#000000" stroke-width="0.25" stroke-miterlimit="10" cx="1558.085" cy="401.07" r="8.504"/>
</svg>
