<?xml version="1.0" encoding="utf-8"?>
<!-- Generator: Adobe Illustrator 17.0.0, SVG Export Plug-In . SVG Version: 6.00 Build 0)  -->
<!DOCTYPE svg PUBLIC "-//W3C//DTD SVG 1.1//EN" "http://www.w3.org/Graphics/SVG/1.1/DTD/svg11.dtd">
<svg version="1.1" id="Layer_1" xmlns="http://www.w3.org/2000/svg" xmlns:xlink="http://www.w3.org/1999/xlink" x="0px" y="0px"
	 width="1984.252px" height="1417.323px" viewBox="0 0 1984.252 1417.323" enable-background="new 0 0 1984.252 1417.323"
	 xml:space="preserve">
<circle fill="none" stroke="#000000" stroke-width="0.25" stroke-miterlimit="10" cx="1128.125" cy="44.519" r="11.338"/>
<circle fill="none" stroke="#000000" stroke-width="0.25" stroke-miterlimit="10" cx="320.25" cy="44.518" r="11.338"/>
<circle fill="none" stroke="#000000" stroke-width="0.25" stroke-miterlimit="10" cx="1128.125" cy="1093.339" r="11.338"/>
<circle fill="none" stroke="#000000" stroke-width="0.25" stroke-miterlimit="10" cx="1936.001" cy="44.518" r="11.339"/>
<circle fill="none" stroke="#000000" stroke-width="0.25" stroke-miterlimit="10" cx="1936.001" cy="1093.339" r="11.339"/>
<circle fill="none" stroke="#000000" stroke-width="0.25" stroke-miterlimit="10" cx="320.25" cy="1093.339" r="11.338"/>
<circle fill="none" stroke="#000000" stroke-width="0.25" stroke-miterlimit="10" cx="320.25" cy="568.929" r="11.338"/>
<circle fill="none" stroke="#000000" stroke-width="0.25" stroke-miterlimit="10" cx="1936.001" cy="568.929" r="11.339"/>
<circle fill="none" stroke="#000000" stroke-width="0.25" stroke-miterlimit="10" cx="1042.257" cy="662.254" r="4.253"/>
<circle fill="none" stroke="#000000" stroke-width="0.25" stroke-miterlimit="10" cx="1032.998" cy="520.901" r="4.251"/>
<circle fill="none" stroke="#000000" stroke-width="0.25" stroke-miterlimit="10" cx="806.757" cy="568.426" r="53.845"/>
<path fill="none" stroke="#010101" stroke-width="0.25" stroke-linecap="round" stroke-linejoin="round" stroke-miterlimit="10" d="
	M880.037,501.665c0-3.906-3.162-7.089-7.09-7.089c-3.922,0-7.084,3.183-7.084,7.089c0,3.907,3.162,7.09,7.084,7.09
	C876.875,508.755,880.037,505.572,880.037,501.665z"/>
<path fill="none" stroke="#010101" stroke-width="0.25" stroke-linecap="round" stroke-linejoin="round" stroke-miterlimit="10" d="
	M880.037,635.286c0-3.906-3.162-7.089-7.09-7.089c-3.922,0-7.084,3.183-7.084,7.089c0,3.907,3.162,7.09,7.084,7.09
	C876.875,642.376,880.037,639.193,880.037,635.286z"/>
<path fill="none" stroke="#010101" stroke-width="0.25" stroke-linecap="round" stroke-linejoin="round" stroke-miterlimit="10" d="
	M746.413,501.665c0-3.906-3.162-7.089-7.09-7.089c-3.922,0-7.083,3.183-7.083,7.089c0,3.907,3.16,7.09,7.083,7.09
	C743.25,508.755,746.413,505.572,746.413,501.665z"/>
<path fill="none" stroke="#010101" stroke-width="0.25" stroke-linecap="round" stroke-linejoin="round" stroke-miterlimit="10" d="
	M746.413,635.286c0-3.906-3.162-7.089-7.09-7.089c-3.922,0-7.083,3.183-7.083,7.089c0,3.907,3.16,7.09,7.083,7.09
	C743.25,642.376,746.413,639.193,746.413,635.286z"/>
<circle fill="none" stroke="#000000" stroke-width="0.25" stroke-miterlimit="10" cx="1810.692" cy="968.531" r="4.252"/>
<circle fill="none" stroke="#000000" stroke-width="0.25" stroke-miterlimit="10" cx="1792.62" cy="986.702" r="4.252"/>
<circle fill="none" stroke="#000000" stroke-width="0.25" stroke-miterlimit="10" cx="1778.745" cy="936.593" r="4.252"/>
<circle fill="none" stroke="#000000" stroke-width="0.25" stroke-miterlimit="10" cx="1760.582" cy="954.64" r="4.251"/>
<circle fill="none" stroke="#000000" stroke-width="0.25" stroke-miterlimit="10" cx="1007.142" cy="936.669" r="4.252"/>
<circle fill="none" stroke="#000000" stroke-width="0.25" stroke-miterlimit="10" cx="1024.964" cy="954.652" r="4.252"/>
<circle fill="none" stroke="#000000" stroke-width="0.25" stroke-miterlimit="10" cx="992.593" cy="985.905" r="4.252"/>
<circle fill="none" stroke="#000000" stroke-width="0.25" stroke-miterlimit="10" cx="974.854" cy="968.524" r="4.252"/>
<circle fill="none" stroke="#000000" stroke-width="0.25" stroke-miterlimit="10" cx="992.828" cy="151.088" r="4.252"/>
<circle fill="none" stroke="#000000" stroke-width="0.25" stroke-miterlimit="10" cx="1024.964" cy="182.883" r="4.252"/>
<circle fill="none" stroke="#000000" stroke-width="0.25" stroke-miterlimit="10" cx="1006.911" cy="201.197" r="4.252"/>
<circle fill="none" stroke="#000000" stroke-width="0.25" stroke-miterlimit="10" cx="974.854" cy="168.812" r="4.252"/>
<circle fill="none" stroke="#000000" stroke-width="0.25" stroke-miterlimit="10" cx="1792.913" cy="151.088" r="4.252"/>
<circle fill="none" stroke="#000000" stroke-width="0.25" stroke-miterlimit="10" cx="1810.692" cy="168.945" r="4.252"/>
<circle fill="none" stroke="#000000" stroke-width="0.25" stroke-miterlimit="10" cx="1760.582" cy="183.163" r="4.251"/>
<circle fill="none" stroke="#000000" stroke-width="0.25" stroke-miterlimit="10" cx="1778.477" cy="201.197" r="4.251"/>
<path fill="none" stroke="#000000" stroke-width="0.25" stroke-miterlimit="10" d="M1484.497,910.854
	c-189.023,50.648-383.317-61.526-433.965-250.55c-50.649-189.023,61.525-383.316,250.549-433.965
	c189.025-50.649,383.316,61.526,433.965,250.549C1785.694,665.912,1673.521,860.205,1484.497,910.854z"/>
<circle fill="none" stroke="#000000" stroke-width="0.25" stroke-miterlimit="10" cx="1184.816" cy="929.152" r="4.252"/>
<circle fill="none" stroke="#000000" stroke-width="0.25" stroke-miterlimit="10" cx="1500.994" cy="970.779" r="4.252"/>
<circle fill="none" stroke="#000000" stroke-width="0.25" stroke-miterlimit="10" cx="1753.977" cy="776.635" r="4.251"/>
<circle fill="none" stroke="#000000" stroke-width="0.25" stroke-miterlimit="10" cx="1795.631" cy="460.381" r="4.251"/>
<circle fill="none" stroke="#000000" stroke-width="0.25" stroke-miterlimit="10" cx="1601.456" cy="207.42" r="4.252"/>
<circle fill="none" stroke="#000000" stroke-width="0.25" stroke-miterlimit="10" cx="1285.297" cy="165.79" r="4.252"/>
<circle fill="none" stroke="#000000" stroke-width="0.25" stroke-miterlimit="10" cx="1032.285" cy="359.935" r="4.252"/>
<circle fill="none" stroke="#000000" stroke-width="0.25" stroke-miterlimit="10" cx="990.637" cy="676.047" r="4.252"/>
<circle fill="none" stroke="#000000" stroke-width="0.25" stroke-miterlimit="10" cx="1042.241" cy="662.22" r="4.252"/>
<circle fill="none" stroke="#000000" stroke-width="0.25" stroke-miterlimit="10" cx="1139.453" cy="237.644" r="4.252"/>
<circle fill="none" stroke="#000000" stroke-width="0.25" stroke-miterlimit="10" cx="1447.536" cy="155.131" r="4.252"/>
<path fill="none" stroke="#000000" stroke-width="0.25" stroke-miterlimit="10" d="M1727.924,313.431
	c0.608,2.268-0.739,4.6-3.009,5.207c-2.266,0.608-4.598-0.738-5.205-3.006c-0.609-2.268,0.736-4.6,3.006-5.207
	C1724.984,309.815,1727.315,311.162,1727.924,313.431z"/>
<path fill="none" stroke="#000000" stroke-width="0.25" stroke-miterlimit="10" d="M1810.468,621.575
	c0.607,2.268-0.738,4.601-3.006,5.208c-2.269,0.607-4.601-0.738-5.209-3.007c-0.605-2.268,0.738-4.6,3.008-5.207
	C1807.528,617.961,1809.86,619.308,1810.468,621.575z"/>
<circle fill="none" stroke="#000000" stroke-width="0.25" stroke-miterlimit="10" cx="1646.872" cy="898.91" r="4.252"/>
<circle fill="none" stroke="#000000" stroke-width="0.25" stroke-miterlimit="10" cx="1338.748" cy="981.548" r="4.251"/>
<circle fill="none" stroke="#000000" stroke-width="0.25" stroke-miterlimit="10" cx="1062.472" cy="822.014" r="4.252"/>
<circle fill="none" stroke="#000000" stroke-width="0.25" stroke-miterlimit="10" cx="979.92" cy="513.887" r="4.252"/>
<circle fill="none" stroke="#000000" stroke-width="0.25" stroke-miterlimit="10" cx="1104.855" cy="789.556" r="4.253"/>
<circle fill="none" stroke="#000000" stroke-width="0.25" stroke-miterlimit="10" cx="1211.473" cy="882.848" r="4.251"/>
<circle fill="none" stroke="#000000" stroke-width="0.25" stroke-miterlimit="10" cx="1345.751" cy="928.452" r="4.252"/>
<circle fill="none" stroke="#000000" stroke-width="0.25" stroke-miterlimit="10" cx="1487.108" cy="918.958" r="4.252"/>
<circle fill="none" stroke="#000000" stroke-width="0.25" stroke-miterlimit="10" cx="1614.109" cy="856.219" r="4.252"/>
<circle fill="none" stroke="#000000" stroke-width="0.25" stroke-miterlimit="10" cx="1707.231" cy="749.629" r="4.252"/>
<circle fill="none" stroke="#000000" stroke-width="0.25" stroke-miterlimit="10" cx="1752.65" cy="615.598" r="4.251"/>
<circle fill="none" stroke="#000000" stroke-width="0.25" stroke-miterlimit="10" cx="1743.184" cy="474.402" r="4.252"/>
<circle fill="none" stroke="#000000" stroke-width="0.25" stroke-miterlimit="10" cx="1680.704" cy="347.661" r="4.252"/>
<circle fill="none" stroke="#000000" stroke-width="0.25" stroke-miterlimit="10" cx="1574.348" cy="254.439" r="4.252"/>
<circle fill="none" stroke="#000000" stroke-width="0.25" stroke-miterlimit="10" cx="1440.494" cy="208.78" r="4.251"/>
<circle fill="none" stroke="#000000" stroke-width="0.25" stroke-miterlimit="10" cx="1299.292" cy="218.015" r="4.252"/>
<circle fill="none" stroke="#000000" stroke-width="0.25" stroke-miterlimit="10" cx="1172.23" cy="280.41" r="4.252"/>
<circle fill="none" stroke="#000000" stroke-width="0.25" stroke-miterlimit="10" cx="1078.746" cy="386.808" r="4.252"/>
<circle fill="none" stroke="#000000" stroke-width="0.25" stroke-miterlimit="10" cx="1032.981" cy="520.867" r="4.252"/>
<path fill="none" stroke="#000000" stroke-width="0.25" stroke-miterlimit="10" d="M1718.993,480.821
	c-48.219-179.953-233.188-286.744-413.139-238.526c-179.953,48.218-286.744,233.187-238.526,413.14
	c48.218,179.952,233.187,286.744,413.139,238.526C1660.419,845.743,1767.212,660.773,1718.993,480.821z"/>
<path fill="none" stroke="#000000" stroke-width="0.25" stroke-miterlimit="10" d="M1650.56,499.158
	c-38.092-142.157-184.211-226.52-326.369-188.429c-142.156,38.091-226.52,184.211-188.428,326.368
	c38.09,142.157,184.211,226.52,326.367,188.429C1604.288,787.435,1688.649,641.315,1650.56,499.158z"/>
<circle fill="none" stroke="#000000" stroke-width="0.25" stroke-miterlimit="10" cx="1393.16" cy="891.365" r="1.454"/>
<circle fill="none" stroke="#000000" stroke-width="0.25" stroke-miterlimit="10" cx="1393.16" cy="870.105" r="1.454"/>
<circle fill="none" stroke="#000000" stroke-width="0.25" stroke-miterlimit="10" cx="1426.904" cy="889.446" r="1.454"/>
<circle fill="none" stroke="#000000" stroke-width="0.25" stroke-miterlimit="10" cx="1460.385" cy="884.22" r="1.454"/>
<circle fill="none" stroke="#000000" stroke-width="0.25" stroke-miterlimit="10" cx="1493.167" cy="875.519" r="1.455"/>
<circle fill="none" stroke="#000000" stroke-width="0.25" stroke-miterlimit="10" cx="1486.465" cy="855.304" r="1.454"/>
<circle fill="none" stroke="#000000" stroke-width="0.25" stroke-miterlimit="10" cx="1524.604" cy="863.438" r="1.455"/>
<circle fill="none" stroke="#000000" stroke-width="0.25" stroke-miterlimit="10" cx="1515.982" cy="843.898" r="1.454"/>
<circle fill="none" stroke="#000000" stroke-width="0.25" stroke-miterlimit="10" cx="1554.695" cy="848.083" r="1.454"/>
<circle fill="none" stroke="#000000" stroke-width="0.25" stroke-miterlimit="10" cx="1583.193" cy="829.671" r="1.454"/>
<circle fill="none" stroke="#000000" stroke-width="0.25" stroke-miterlimit="10" cx="1424.636" cy="868.381" r="1.454"/>
<circle fill="none" stroke="#000000" stroke-width="0.25" stroke-miterlimit="10" cx="1455.93" cy="863.427" r="1.454"/>
<circle fill="none" stroke="#000000" stroke-width="0.25" stroke-miterlimit="10" cx="1544.191" cy="829.671" r="1.454"/>
<circle fill="none" stroke="#000000" stroke-width="0.25" stroke-miterlimit="10" cx="1570.754" cy="812.49" r="1.454"/>
<circle fill="none" stroke="#000000" stroke-width="0.25" stroke-miterlimit="10" cx="1609.48" cy="808.327" r="1.454"/>
<circle fill="none" stroke="#000000" stroke-width="0.25" stroke-miterlimit="10" cx="1595.278" cy="792.591" r="1.455"/>
<circle fill="none" stroke="#000000" stroke-width="0.25" stroke-miterlimit="10" cx="1617.543" cy="770.172" r="1.454"/>
<circle fill="none" stroke="#000000" stroke-width="0.25" stroke-miterlimit="10" cx="1633.346" cy="784.411" r="1.454"/>
<circle fill="none" stroke="#000000" stroke-width="0.25" stroke-miterlimit="10" cx="1654.591" cy="758.079" r="1.455"/>
<circle fill="none" stroke="#000000" stroke-width="0.25" stroke-miterlimit="10" cx="1637.445" cy="745.589" r="1.454"/>
<circle fill="none" stroke="#000000" stroke-width="0.25" stroke-miterlimit="10" cx="1654.591" cy="719.126" r="1.455"/>
<circle fill="none" stroke="#000000" stroke-width="0.25" stroke-miterlimit="10" cx="1673.014" cy="729.753" r="1.454"/>
<circle fill="none" stroke="#000000" stroke-width="0.25" stroke-miterlimit="10" cx="1668.992" cy="690.921" r="1.454"/>
<circle fill="none" stroke="#000000" stroke-width="0.25" stroke-miterlimit="10" cx="1688.445" cy="699.539" r="1.454"/>
<circle fill="none" stroke="#000000" stroke-width="0.25" stroke-miterlimit="10" cx="1700.561" cy="668.135" r="1.454"/>
<circle fill="none" stroke="#000000" stroke-width="0.25" stroke-miterlimit="10" cx="1680.277" cy="661.455" r="1.454"/>
<circle fill="none" stroke="#000000" stroke-width="0.25" stroke-miterlimit="10" cx="1709.277" cy="635.359" r="1.454"/>
<circle fill="none" stroke="#000000" stroke-width="0.25" stroke-miterlimit="10" cx="1688.439" cy="630.942" r="1.454"/>
<circle fill="none" stroke="#000000" stroke-width="0.25" stroke-miterlimit="10" cx="1693.461" cy="599.694" r="1.454"/>
<circle fill="none" stroke="#000000" stroke-width="0.25" stroke-miterlimit="10" cx="1714.641" cy="601.92" r="1.455"/>
<circle fill="none" stroke="#000000" stroke-width="0.25" stroke-miterlimit="10" cx="1695.139" cy="568.128" r="1.454"/>
<circle fill="none" stroke="#000000" stroke-width="0.25" stroke-miterlimit="10" cx="1716.398" cy="568.128" r="1.454"/>
<circle fill="none" stroke="#000000" stroke-width="0.25" stroke-miterlimit="10" cx="1693.447" cy="536.557" r="1.454"/>
<circle fill="none" stroke="#000000" stroke-width="0.25" stroke-miterlimit="10" cx="1714.646" cy="534.365" r="1.454"/>
<circle fill="none" stroke="#000000" stroke-width="0.25" stroke-miterlimit="10" cx="1688.531" cy="505.351" r="1.454"/>
<circle fill="none" stroke="#000000" stroke-width="0.25" stroke-miterlimit="10" cx="1709.266" cy="500.956" r="1.454"/>
<circle fill="none" stroke="#000000" stroke-width="0.25" stroke-miterlimit="10" cx="1680.327" cy="474.826" r="1.455"/>
<circle fill="none" stroke="#000000" stroke-width="0.25" stroke-miterlimit="10" cx="1700.529" cy="468.367" r="1.455"/>
<circle fill="none" stroke="#000000" stroke-width="0.25" stroke-miterlimit="10" cx="1669.03" cy="445.283" r="1.455"/>
<circle fill="none" stroke="#000000" stroke-width="0.25" stroke-miterlimit="10" cx="1688.447" cy="436.674" r="1.454"/>
<circle fill="none" stroke="#000000" stroke-width="0.25" stroke-miterlimit="10" cx="1654.725" cy="417.101" r="1.455"/>
<circle fill="none" stroke="#000000" stroke-width="0.25" stroke-miterlimit="10" cx="1673.131" cy="406.511" r="1.455"/>
<circle fill="none" stroke="#000000" stroke-width="0.25" stroke-miterlimit="10" cx="1637.482" cy="390.667" r="1.454"/>
<circle fill="none" stroke="#000000" stroke-width="0.25" stroke-miterlimit="10" cx="1654.675" cy="378.139" r="1.455"/>
<circle fill="none" stroke="#000000" stroke-width="0.25" stroke-miterlimit="10" cx="1617.57" cy="366.126" r="1.454"/>
<circle fill="none" stroke="#000000" stroke-width="0.25" stroke-miterlimit="10" cx="1633.372" cy="351.859" r="1.455"/>
<circle fill="none" stroke="#000000" stroke-width="0.25" stroke-miterlimit="10" cx="1595.206" cy="343.76" r="1.455"/>
<circle fill="none" stroke="#000000" stroke-width="0.25" stroke-miterlimit="10" cx="1609.454" cy="327.956" r="1.455"/>
<circle fill="none" stroke="#000000" stroke-width="0.25" stroke-miterlimit="10" cx="1570.651" cy="323.861" r="1.455"/>
<circle fill="none" stroke="#000000" stroke-width="0.25" stroke-miterlimit="10" cx="1583.128" cy="306.603" r="1.454"/>
<circle fill="none" stroke="#000000" stroke-width="0.25" stroke-miterlimit="10" cx="1544.197" cy="306.603" r="1.455"/>
<circle fill="none" stroke="#000000" stroke-width="0.25" stroke-miterlimit="10" cx="1554.761" cy="288.261" r="1.454"/>
<circle fill="none" stroke="#000000" stroke-width="0.25" stroke-miterlimit="10" cx="1524.617" cy="272.911" r="1.455"/>
<circle fill="none" stroke="#000000" stroke-width="0.25" stroke-miterlimit="10" cx="1515.916" cy="292.297" r="1.454"/>
<circle fill="none" stroke="#000000" stroke-width="0.25" stroke-miterlimit="10" cx="1486.445" cy="281.015" r="1.454"/>
<circle fill="none" stroke="#000000" stroke-width="0.25" stroke-miterlimit="10" cx="1492.911" cy="260.799" r="1.455"/>
<circle fill="none" stroke="#000000" stroke-width="0.25" stroke-miterlimit="10" cx="1460.363" cy="252.018" r="1.454"/>
<circle fill="none" stroke="#000000" stroke-width="0.25" stroke-miterlimit="10" cx="1455.986" cy="272.742" r="1.454"/>
<circle fill="none" stroke="#000000" stroke-width="0.25" stroke-miterlimit="10" cx="1424.715" cy="267.829" r="1.455"/>
<circle fill="none" stroke="#000000" stroke-width="0.25" stroke-miterlimit="10" cx="1426.988" cy="246.672" r="1.454"/>
<circle fill="none" stroke="#000000" stroke-width="0.25" stroke-miterlimit="10" cx="1393.16" cy="266.15" r="1.454"/>
<circle fill="none" stroke="#000000" stroke-width="0.25" stroke-miterlimit="10" cx="1393.16" cy="244.891" r="1.454"/>
<circle fill="none" stroke="#000000" stroke-width="0.25" stroke-miterlimit="10" cx="1359.361" cy="246.745" r="1.454"/>
<circle fill="none" stroke="#000000" stroke-width="0.25" stroke-miterlimit="10" cx="1361.609" cy="267.829" r="1.454"/>
<circle fill="none" stroke="#000000" stroke-width="0.25" stroke-miterlimit="10" cx="1330.43" cy="272.867" r="1.454"/>
<circle fill="none" stroke="#000000" stroke-width="0.25" stroke-miterlimit="10" cx="1325.93" cy="252.092" r="1.454"/>
<circle fill="none" stroke="#000000" stroke-width="0.25" stroke-miterlimit="10" cx="1299.836" cy="280.954" r="1.455"/>
<circle fill="none" stroke="#000000" stroke-width="0.25" stroke-miterlimit="10" cx="1293.383" cy="260.839" r="1.454"/>
<circle fill="none" stroke="#000000" stroke-width="0.25" stroke-miterlimit="10" cx="1270.361" cy="292.284" r="1.454"/>
<circle fill="none" stroke="#000000" stroke-width="0.25" stroke-miterlimit="10" cx="1261.711" cy="272.858" r="1.455"/>
<circle fill="none" stroke="#000000" stroke-width="0.25" stroke-miterlimit="10" cx="1242.174" cy="306.622" r="1.454"/>
<circle fill="none" stroke="#000000" stroke-width="0.25" stroke-miterlimit="10" cx="1231.55" cy="288.219" r="1.455"/>
<circle fill="none" stroke="#000000" stroke-width="0.25" stroke-miterlimit="10" cx="1215.642" cy="323.861" r="1.454"/>
<circle fill="none" stroke="#000000" stroke-width="0.25" stroke-miterlimit="10" cx="1203.124" cy="306.622" r="1.455"/>
<circle fill="none" stroke="#000000" stroke-width="0.25" stroke-miterlimit="10" cx="1191.043" cy="343.728" r="1.455"/>
<circle fill="none" stroke="#000000" stroke-width="0.25" stroke-miterlimit="10" cx="1176.932" cy="327.952" r="1.454"/>
<circle fill="none" stroke="#000000" stroke-width="0.25" stroke-miterlimit="10" cx="1168.781" cy="366.162" r="1.454"/>
<circle fill="none" stroke="#000000" stroke-width="0.25" stroke-miterlimit="10" cx="1153" cy="351.894" r="1.454"/>
<circle fill="none" stroke="#000000" stroke-width="0.25" stroke-miterlimit="10" cx="1148.9" cy="390.643" r="1.454"/>
<circle fill="none" stroke="#000000" stroke-width="0.25" stroke-miterlimit="10" cx="1131.738" cy="378.096" r="1.454"/>
<circle fill="none" stroke="#000000" stroke-width="0.25" stroke-miterlimit="10" cx="1131.717" cy="417.095" r="1.454"/>
<circle fill="none" stroke="#000000" stroke-width="0.25" stroke-miterlimit="10" cx="1113.32" cy="406.574" r="1.454"/>
<circle fill="none" stroke="#000000" stroke-width="0.25" stroke-miterlimit="10" cx="1117.324" cy="445.303" r="1.454"/>
<circle fill="none" stroke="#000000" stroke-width="0.25" stroke-miterlimit="10" cx="1097.881" cy="436.667" r="1.454"/>
<circle fill="none" stroke="#000000" stroke-width="0.25" stroke-miterlimit="10" cx="1105.982" cy="474.869" r="1.454"/>
<circle fill="none" stroke="#000000" stroke-width="0.25" stroke-miterlimit="10" cx="1085.794" cy="468.381" r="1.455"/>
<circle fill="none" stroke="#000000" stroke-width="0.25" stroke-miterlimit="10" cx="1097.795" cy="505.384" r="1.455"/>
<circle fill="none" stroke="#000000" stroke-width="0.25" stroke-miterlimit="10" cx="1076.9" cy="501.009" r="1.454"/>
<circle fill="none" stroke="#000000" stroke-width="0.25" stroke-miterlimit="10" cx="1092.788" cy="536.584" r="1.455"/>
<circle fill="none" stroke="#000000" stroke-width="0.25" stroke-miterlimit="10" cx="1071.698" cy="534.389" r="1.454"/>
<circle fill="none" stroke="#000000" stroke-width="0.25" stroke-miterlimit="10" cx="1069.923" cy="568.128" r="1.455"/>
<circle fill="none" stroke="#000000" stroke-width="0.25" stroke-miterlimit="10" cx="1091.184" cy="568.128" r="1.454"/>
<circle fill="none" stroke="#000000" stroke-width="0.25" stroke-miterlimit="10" cx="1071.698" cy="601.969" r="1.454"/>
<circle fill="none" stroke="#000000" stroke-width="0.25" stroke-miterlimit="10" cx="1092.889" cy="599.648" r="1.455"/>
<circle fill="none" stroke="#000000" stroke-width="0.25" stroke-miterlimit="10" cx="1076.9" cy="635.131" r="1.454"/>
<circle fill="none" stroke="#000000" stroke-width="0.25" stroke-miterlimit="10" cx="1097.795" cy="630.676" r="1.455"/>
<circle fill="none" stroke="#000000" stroke-width="0.25" stroke-miterlimit="10" cx="1085.826" cy="668.135" r="1.454"/>
<circle fill="none" stroke="#000000" stroke-width="0.25" stroke-miterlimit="10" cx="1106.321" cy="661.647" r="1.455"/>
<circle fill="none" stroke="#000000" stroke-width="0.25" stroke-miterlimit="10" cx="1097.795" cy="699.644" r="1.455"/>
<circle fill="none" stroke="#000000" stroke-width="0.25" stroke-miterlimit="10" cx="1117.438" cy="690.905" r="1.455"/>
<circle fill="none" stroke="#000000" stroke-width="0.25" stroke-miterlimit="10" cx="1113.28" cy="729.734" r="1.454"/>
<circle fill="none" stroke="#000000" stroke-width="0.25" stroke-miterlimit="10" cx="1131.62" cy="719.521" r="1.454"/>
<circle fill="none" stroke="#000000" stroke-width="0.25" stroke-miterlimit="10" cx="1131.62" cy="757.826" r="1.454"/>
<circle fill="none" stroke="#000000" stroke-width="0.25" stroke-miterlimit="10" cx="1148.641" cy="745.767" r="1.455"/>
<circle fill="none" stroke="#000000" stroke-width="0.25" stroke-miterlimit="10" cx="1153.034" cy="784.533" r="1.454"/>
<circle fill="none" stroke="#000000" stroke-width="0.25" stroke-miterlimit="10" cx="1168.858" cy="770.102" r="1.455"/>
<circle fill="none" stroke="#000000" stroke-width="0.25" stroke-miterlimit="10" cx="1176.869" cy="808.347" r="1.454"/>
<circle fill="none" stroke="#000000" stroke-width="0.25" stroke-miterlimit="10" cx="1191.018" cy="792.582" r="1.455"/>
<circle fill="none" stroke="#000000" stroke-width="0.25" stroke-miterlimit="10" cx="1203.221" cy="829.347" r="1.455"/>
<circle fill="none" stroke="#000000" stroke-width="0.25" stroke-miterlimit="10" cx="1215.837" cy="812.576" r="1.455"/>
<circle fill="none" stroke="#000000" stroke-width="0.25" stroke-miterlimit="10" cx="1231.555" cy="848.227" r="1.454"/>
<circle fill="none" stroke="#000000" stroke-width="0.25" stroke-miterlimit="10" cx="1242.361" cy="829.778" r="1.455"/>
<circle fill="none" stroke="#000000" stroke-width="0.25" stroke-miterlimit="10" cx="1261.814" cy="863.383" r="1.454"/>
<circle fill="none" stroke="#000000" stroke-width="0.25" stroke-miterlimit="10" cx="1270.21" cy="844.055" r="1.455"/>
<circle fill="none" stroke="#000000" stroke-width="0.25" stroke-miterlimit="10" cx="1299.75" cy="855.523" r="1.454"/>
<circle fill="none" stroke="#000000" stroke-width="0.25" stroke-miterlimit="10" cx="1293.154" cy="875.66" r="1.454"/>
<circle fill="none" stroke="#000000" stroke-width="0.25" stroke-miterlimit="10" cx="1325.977" cy="884.312" r="1.454"/>
<circle fill="none" stroke="#000000" stroke-width="0.25" stroke-miterlimit="10" cx="1330.435" cy="863.383" r="1.454"/>
<circle fill="none" stroke="#000000" stroke-width="0.25" stroke-miterlimit="10" cx="1361.653" cy="868.651" r="1.455"/>
<circle fill="none" stroke="#000000" stroke-width="0.25" stroke-miterlimit="10" cx="1359.299" cy="889.911" r="1.454"/>
<path fill="none" stroke="#000000" stroke-width="0.25" d="M1163.71,734.848c34.742,47.789,84.051,84.304,141.403,103.023
	l-0.023,0.073c1.821,0.481,3.164,2.14,3.164,4.111c0,2.349-1.903,4.252-4.252,4.252c-0.42,0-0.825-0.061-1.208-0.174l-0.02,0.07
	c-59.125-19.215-109.977-56.776-145.838-105.967l0.069-0.047c-0.517-0.704-0.821-1.573-0.821-2.514c0-2.348,1.903-4.252,4.25-4.252
	c1.364,0,2.578,0.642,3.356,1.64"/>
<path fill="none" stroke="#000000" stroke-width="0.25" d="M1662.942,655.531c-18.621,57.663-55.215,107.249-103.178,142.155l0,0
	c-0.976,0.778-1.342,1.96-1.342,3.306c0,2.349,1.904,4.252,4.252,4.252c0.896,0,1.729-0.277,2.415-0.752l0.005,0.008
	c49.145-35.845,86.676-86.657,105.89-145.733l0,0c0.188-0.482,0.282-1.144,0.282-1.69c0-2.349-2.068-4.125-4.416-4.125
	c-2.08,0-3.813,1.495-4.18,3.47L1662.942,655.531z"/>
<path fill="none" stroke="#000000" stroke-width="0.25" d="M1483.532,290.484c59.111,19.217,109.951,56.771,145.805,105.949l0,0
	c0.459,0.679,0.662,1.539,0.662,2.421c0,2.349-1.902,4.252-4.252,4.252c-1.506,0-2.893-0.74-3.646-1.921l0,0
	c-34.873-47.687-84.284-84.07-141.709-102.628l0,0c-1.693-0.56-2.754-2.165-2.754-4.046c0-2.349,1.903-4.252,4.252-4.252
	C1482.476,290.258,1483.022,290.268,1483.532,290.484z"/>
<path fill="none" stroke="#000000" stroke-width="0.25" d="M1115.417,477.542c19.279-59.011,56.845-109.753,106-145.532l0,0
	c0.715-0.545,1.551-0.701,2.519-0.701c2.349,0,4.252,1.903,4.252,4.252c0,1.361-0.612,2.607-1.608,3.386l0,0
	c-47.807,34.772-84.326,84.125-103.021,141.525l0,0c-0.568,1.679-2.118,2.901-3.99,2.901c-2.348,0-4.251-1.903-4.251-4.252
	C1115.316,478.56,1115.296,478.177,1115.417,477.542L1115.417,477.542z"/>
<line fill="none" stroke="#000000" stroke-width="0.25" stroke-miterlimit="10" x1="1434.798" y1="831.351" x2="1445.88" y2="901.329"/>
<line fill="none" stroke="#000000" stroke-width="0.25" stroke-miterlimit="10" x1="1656.34" y1="526.652" x2="1726.388" y2="515.558"/>
<line fill="none" stroke="#000000" stroke-width="0.25" stroke-miterlimit="10" x1="1340.335" y1="234.943" x2="1351.419" y2="304.921"/>
<line fill="none" stroke="#000000" stroke-width="0.25" stroke-miterlimit="10" x1="1059.999" y1="621.104" x2="1129.976" y2="610.021"/>
<g>
	<rect x="508.544" y="118.658" fill="none" stroke="#010101" stroke-width="0.25" width="56.693" height="14.173"/>
	<rect x="650.276" y="118.658" fill="none" stroke="#010101" stroke-width="0.25" width="56.693" height="14.173"/>
</g>
<g>
	<rect x="508.544" y="429.642" fill="none" stroke="#010101" stroke-width="0.25" width="56.693" height="14.173"/>
	<rect x="650.276" y="429.642" fill="none" stroke="#010101" stroke-width="0.25" width="56.693" height="14.173"/>
</g>
<g>
	<circle fill="none" stroke="#000000" stroke-width="0.25" stroke-miterlimit="10" cx="392.069" cy="114.677" r="8.504"/>
	<circle fill="none" stroke="#000000" stroke-width="0.25" stroke-miterlimit="10" cx="823.444" cy="114.677" r="8.504"/>
</g>
<g>
	<circle fill="none" stroke="#000000" stroke-width="0.25" stroke-miterlimit="10" cx="823.444" cy="448.314" r="8.504"/>
	<circle fill="none" stroke="#000000" stroke-width="0.25" stroke-miterlimit="10" cx="392.069" cy="448.314" r="8.504"/>
</g>
<g>
	<rect x="395.029" y="324.015" fill="none" stroke="#010101" stroke-width="0.25" width="14.173" height="56.693"/>
	<rect x="395.029" y="182.283" fill="none" stroke="#010101" stroke-width="0.25" width="14.173" height="56.693"/>
</g>
<g>
	<rect x="805.939" y="324.015" fill="none" stroke="#010101" stroke-width="0.25" width="14.173" height="56.693"/>
	<rect x="805.939" y="182.283" fill="none" stroke="#010101" stroke-width="0.25" width="14.173" height="56.693"/>
</g>
<g>
	<circle fill="none" stroke="#000000" stroke-width="0.25" cx="877.334" cy="249.627" r="4.252"/>
	<circle fill="none" stroke="#000000" stroke-width="0.25" cx="914.146" cy="270.881" r="4.252"/>
	<circle fill="none" stroke="#000000" stroke-width="0.25" cx="911.277" cy="190.838" r="4.252"/>
	<circle fill="none" stroke="#000000" stroke-width="0.25" cx="948.089" cy="212.091" r="4.252"/>
</g>
<rect x="424.083" y="145.865" fill="none" stroke="#000000" stroke-width="0.25" stroke-miterlimit="10" width="366.128" height="269.292"/>
<rect x="277.732" y="2" fill="none" stroke="#000000" stroke-width="0.25" stroke-miterlimit="10" width="1700.787" height="1133.858"/>
</svg>
