<?xml version="1.0" encoding="utf-8"?>
<!-- Generator: Adobe Illustrator 17.0.0, SVG Export Plug-In . SVG Version: 6.00 Build 0)  -->
<!DOCTYPE svg PUBLIC "-//W3C//DTD SVG 1.1//EN" "http://www.w3.org/Graphics/SVG/1.1/DTD/svg11.dtd">
<svg version="1.1" id="Layer_1" xmlns="http://www.w3.org/2000/svg" xmlns:xlink="http://www.w3.org/1999/xlink" x="0px" y="0px"
	 width="1700.79px" height="1133.86px" viewBox="0 0 1700.79 1133.86" enable-background="new 0 0 1700.79 1133.86"
	 xml:space="preserve">
<circle fill="none" stroke="#000000" stroke-width="0.25" stroke-miterlimit="10" cx="850.394" cy="42.52" r="11.339"/>
<circle fill="none" stroke="#000000" stroke-width="0.25" stroke-miterlimit="10" cx="42.519" cy="42.519" r="11.338"/>
<circle fill="none" stroke="#000000" stroke-width="0.25" stroke-miterlimit="10" cx="850.394" cy="1091.34" r="11.339"/>
<circle fill="none" stroke="#000000" stroke-width="0.25" stroke-miterlimit="10" cx="1658.27" cy="42.519" r="11.339"/>
<circle fill="none" stroke="#000000" stroke-width="0.25" stroke-miterlimit="10" cx="1658.27" cy="1091.34" r="11.339"/>
<circle fill="none" stroke="#000000" stroke-width="0.25" stroke-miterlimit="10" cx="42.519" cy="1091.34" r="11.338"/>
<circle fill="none" stroke="#000000" stroke-width="0.25" stroke-miterlimit="10" cx="42.519" cy="566.93" r="11.338"/>
<circle fill="none" stroke="#000000" stroke-width="0.25" stroke-miterlimit="10" cx="1658.27" cy="566.93" r="11.339"/>
<circle fill="none" stroke="#000000" stroke-width="0.25" stroke-miterlimit="10" cx="764.526" cy="660.255" r="4.252"/>
<circle fill="none" stroke="#000000" stroke-width="0.25" stroke-miterlimit="10" cx="755.267" cy="518.902" r="4.252"/>
<circle fill="none" stroke="#000000" stroke-width="0.25" stroke-miterlimit="10" cx="529.026" cy="566.427" r="53.845"/>
<path fill="none" stroke="#010101" stroke-width="0.25" stroke-linecap="round" stroke-linejoin="round" stroke-miterlimit="10" d="
	M602.306,499.666c0-3.906-3.163-7.089-7.09-7.089c-3.922,0-7.084,3.183-7.084,7.089c0,3.907,3.162,7.09,7.084,7.09
	C599.143,506.756,602.306,503.573,602.306,499.666z"/>
<path fill="none" stroke="#010101" stroke-width="0.25" stroke-linecap="round" stroke-linejoin="round" stroke-miterlimit="10" d="
	M602.306,633.287c0-3.906-3.163-7.089-7.09-7.089c-3.922,0-7.084,3.183-7.084,7.089c0,3.907,3.162,7.09,7.084,7.09
	C599.143,640.377,602.306,637.194,602.306,633.287z"/>
<path fill="none" stroke="#010101" stroke-width="0.25" stroke-linecap="round" stroke-linejoin="round" stroke-miterlimit="10" d="
	M468.681,499.666c0-3.906-3.162-7.089-7.09-7.089c-3.923,0-7.083,3.183-7.083,7.089c0,3.907,3.16,7.09,7.083,7.09
	C465.519,506.756,468.681,503.573,468.681,499.666z"/>
<path fill="none" stroke="#010101" stroke-width="0.25" stroke-linecap="round" stroke-linejoin="round" stroke-miterlimit="10" d="
	M468.681,633.287c0-3.906-3.162-7.089-7.09-7.089c-3.923,0-7.083,3.183-7.083,7.089c0,3.907,3.16,7.09,7.083,7.09
	C465.519,640.377,468.681,637.194,468.681,633.287z"/>
<circle fill="none" stroke="#000000" stroke-width="0.25" stroke-miterlimit="10" cx="1532.96" cy="966.532" r="4.252"/>
<circle fill="none" stroke="#000000" stroke-width="0.25" stroke-miterlimit="10" cx="1514.889" cy="984.703" r="4.252"/>
<circle fill="none" stroke="#000000" stroke-width="0.25" stroke-miterlimit="10" cx="1501.013" cy="934.594" r="4.252"/>
<circle fill="none" stroke="#000000" stroke-width="0.25" stroke-miterlimit="10" cx="1482.851" cy="952.641" r="4.251"/>
<circle fill="none" stroke="#000000" stroke-width="0.25" stroke-miterlimit="10" cx="729.411" cy="934.67" r="4.252"/>
<circle fill="none" stroke="#000000" stroke-width="0.25" stroke-miterlimit="10" cx="747.233" cy="952.653" r="4.252"/>
<circle fill="none" stroke="#000000" stroke-width="0.25" stroke-miterlimit="10" cx="714.861" cy="983.906" r="4.252"/>
<circle fill="none" stroke="#000000" stroke-width="0.25" stroke-miterlimit="10" cx="697.124" cy="966.525" r="4.252"/>
<circle fill="none" stroke="#000000" stroke-width="0.25" stroke-miterlimit="10" cx="715.097" cy="149.089" r="4.252"/>
<circle fill="none" stroke="#000000" stroke-width="0.25" stroke-miterlimit="10" cx="747.233" cy="180.885" r="4.252"/>
<circle fill="none" stroke="#000000" stroke-width="0.25" stroke-miterlimit="10" cx="729.18" cy="199.198" r="4.252"/>
<circle fill="none" stroke="#000000" stroke-width="0.25" stroke-miterlimit="10" cx="697.124" cy="166.813" r="4.252"/>
<circle fill="none" stroke="#000000" stroke-width="0.25" stroke-miterlimit="10" cx="1515.181" cy="149.089" r="4.252"/>
<circle fill="none" stroke="#000000" stroke-width="0.25" stroke-miterlimit="10" cx="1532.96" cy="166.946" r="4.252"/>
<circle fill="none" stroke="#000000" stroke-width="0.25" stroke-miterlimit="10" cx="1482.851" cy="181.164" r="4.251"/>
<circle fill="none" stroke="#000000" stroke-width="0.25" stroke-miterlimit="10" cx="1500.745" cy="199.198" r="4.251"/>
<path fill="none" stroke="#000000" stroke-width="0.25" stroke-miterlimit="10" d="M1206.766,908.854
	c-189.024,50.648-383.317-61.526-433.965-250.55c-50.649-189.023,61.525-383.316,250.549-433.965
	c189.025-50.649,383.316,61.526,433.965,250.549C1507.963,663.913,1395.789,858.206,1206.766,908.854z"/>
<circle fill="none" stroke="#000000" stroke-width="0.25" stroke-miterlimit="10" cx="907.084" cy="927.153" r="4.252"/>
<circle fill="none" stroke="#000000" stroke-width="0.25" stroke-miterlimit="10" cx="1223.262" cy="968.78" r="4.252"/>
<circle fill="none" stroke="#000000" stroke-width="0.25" stroke-miterlimit="10" cx="1476.245" cy="774.636" r="4.251"/>
<circle fill="none" stroke="#000000" stroke-width="0.25" stroke-miterlimit="10" cx="1517.899" cy="458.382" r="4.251"/>
<circle fill="none" stroke="#000000" stroke-width="0.25" stroke-miterlimit="10" cx="1323.725" cy="205.421" r="4.252"/>
<circle fill="none" stroke="#000000" stroke-width="0.25" stroke-miterlimit="10" cx="1007.566" cy="163.791" r="4.252"/>
<circle fill="none" stroke="#000000" stroke-width="0.25" stroke-miterlimit="10" cx="754.553" cy="357.936" r="4.252"/>
<circle fill="none" stroke="#000000" stroke-width="0.25" stroke-miterlimit="10" cx="712.905" cy="674.048" r="4.252"/>
<circle fill="none" stroke="#000000" stroke-width="0.25" stroke-miterlimit="10" cx="764.51" cy="660.221" r="4.252"/>
<circle fill="none" stroke="#000000" stroke-width="0.25" stroke-miterlimit="10" cx="861.721" cy="235.645" r="4.252"/>
<circle fill="none" stroke="#000000" stroke-width="0.25" stroke-miterlimit="10" cx="1169.805" cy="153.132" r="4.252"/>
<path fill="none" stroke="#000000" stroke-width="0.25" stroke-miterlimit="10" d="M1450.192,311.432
	c0.608,2.268-0.739,4.6-3.009,5.207c-2.266,0.608-4.598-0.738-5.205-3.006c-0.609-2.268,0.736-4.6,3.006-5.208
	C1447.253,307.816,1449.584,309.163,1450.192,311.432z"/>
<path fill="none" stroke="#000000" stroke-width="0.25" stroke-miterlimit="10" d="M1532.736,619.576
	c0.607,2.269-0.738,4.601-3.006,5.208c-2.269,0.607-4.601-0.738-5.209-3.007c-0.605-2.267,0.738-4.6,3.008-5.207
	C1529.797,615.962,1532.129,617.309,1532.736,619.576z"/>
<circle fill="none" stroke="#000000" stroke-width="0.25" stroke-miterlimit="10" cx="1369.141" cy="896.911" r="4.252"/>
<circle fill="none" stroke="#000000" stroke-width="0.25" stroke-miterlimit="10" cx="1061.017" cy="979.549" r="4.251"/>
<circle fill="none" stroke="#000000" stroke-width="0.25" stroke-miterlimit="10" cx="784.74" cy="820.015" r="4.252"/>
<circle fill="none" stroke="#000000" stroke-width="0.25" stroke-miterlimit="10" cx="702.188" cy="511.888" r="4.252"/>
<circle fill="none" stroke="#000000" stroke-width="0.25" stroke-miterlimit="10" cx="827.124" cy="787.557" r="4.252"/>
<circle fill="none" stroke="#000000" stroke-width="0.25" stroke-miterlimit="10" cx="933.741" cy="880.849" r="4.251"/>
<circle fill="none" stroke="#000000" stroke-width="0.25" stroke-miterlimit="10" cx="1068.02" cy="926.453" r="4.252"/>
<circle fill="none" stroke="#000000" stroke-width="0.25" stroke-miterlimit="10" cx="1209.376" cy="916.959" r="4.252"/>
<circle fill="none" stroke="#000000" stroke-width="0.25" stroke-miterlimit="10" cx="1336.377" cy="854.22" r="4.252"/>
<circle fill="none" stroke="#000000" stroke-width="0.25" stroke-miterlimit="10" cx="1429.5" cy="747.63" r="4.252"/>
<circle fill="none" stroke="#000000" stroke-width="0.25" stroke-miterlimit="10" cx="1474.919" cy="613.599" r="4.252"/>
<circle fill="none" stroke="#000000" stroke-width="0.25" stroke-miterlimit="10" cx="1465.453" cy="472.403" r="4.252"/>
<circle fill="none" stroke="#000000" stroke-width="0.25" stroke-miterlimit="10" cx="1402.973" cy="345.662" r="4.252"/>
<circle fill="none" stroke="#000000" stroke-width="0.25" stroke-miterlimit="10" cx="1296.617" cy="252.44" r="4.252"/>
<circle fill="none" stroke="#000000" stroke-width="0.25" stroke-miterlimit="10" cx="1162.763" cy="206.781" r="4.251"/>
<circle fill="none" stroke="#000000" stroke-width="0.25" stroke-miterlimit="10" cx="1021.561" cy="216.016" r="4.252"/>
<circle fill="none" stroke="#000000" stroke-width="0.25" stroke-miterlimit="10" cx="894.499" cy="278.411" r="4.252"/>
<circle fill="none" stroke="#000000" stroke-width="0.25" stroke-miterlimit="10" cx="801.014" cy="384.809" r="4.252"/>
<circle fill="none" stroke="#000000" stroke-width="0.25" stroke-miterlimit="10" cx="755.25" cy="518.868" r="4.252"/>
<path fill="none" stroke="#000000" stroke-width="0.25" stroke-miterlimit="10" d="M1441.262,478.822
	c-48.219-179.953-233.188-286.744-413.139-238.526c-179.953,48.218-286.745,233.187-238.527,413.14
	c48.218,179.952,233.187,286.744,413.139,238.526C1382.688,843.744,1489.48,658.774,1441.262,478.822z"/>
<path fill="none" stroke="#000000" stroke-width="0.25" stroke-miterlimit="10" d="M1372.827,497.159
	c-38.091-142.157-184.211-226.52-326.368-188.429C904.303,346.821,819.94,492.941,858.031,635.099
	c38.09,142.157,184.211,226.52,326.367,188.429C1326.557,785.437,1410.918,639.316,1372.827,497.159z"/>
<circle fill="none" stroke="#000000" stroke-width="0.25" stroke-miterlimit="10" cx="1115.429" cy="889.366" r="1.454"/>
<circle fill="none" stroke="#000000" stroke-width="0.25" stroke-miterlimit="10" cx="1115.429" cy="868.106" r="1.454"/>
<circle fill="none" stroke="#000000" stroke-width="0.25" stroke-miterlimit="10" cx="1149.173" cy="887.447" r="1.454"/>
<circle fill="none" stroke="#000000" stroke-width="0.25" stroke-miterlimit="10" cx="1182.653" cy="882.221" r="1.454"/>
<circle fill="none" stroke="#000000" stroke-width="0.25" stroke-miterlimit="10" cx="1215.435" cy="873.521" r="1.455"/>
<circle fill="none" stroke="#000000" stroke-width="0.25" stroke-miterlimit="10" cx="1208.733" cy="853.305" r="1.454"/>
<circle fill="none" stroke="#000000" stroke-width="0.25" stroke-miterlimit="10" cx="1246.873" cy="861.438" r="1.455"/>
<circle fill="none" stroke="#000000" stroke-width="0.25" stroke-miterlimit="10" cx="1238.251" cy="841.899" r="1.454"/>
<circle fill="none" stroke="#000000" stroke-width="0.25" stroke-miterlimit="10" cx="1276.964" cy="846.084" r="1.454"/>
<circle fill="none" stroke="#000000" stroke-width="0.25" stroke-miterlimit="10" cx="1305.462" cy="827.672" r="1.454"/>
<circle fill="none" stroke="#000000" stroke-width="0.25" stroke-miterlimit="10" cx="1146.905" cy="866.382" r="1.454"/>
<circle fill="none" stroke="#000000" stroke-width="0.25" stroke-miterlimit="10" cx="1178.198" cy="861.428" r="1.454"/>
<circle fill="none" stroke="#000000" stroke-width="0.25" stroke-miterlimit="10" cx="1266.46" cy="827.672" r="1.454"/>
<circle fill="none" stroke="#000000" stroke-width="0.25" stroke-miterlimit="10" cx="1293.022" cy="810.491" r="1.454"/>
<circle fill="none" stroke="#000000" stroke-width="0.25" stroke-miterlimit="10" cx="1331.749" cy="806.328" r="1.454"/>
<circle fill="none" stroke="#000000" stroke-width="0.25" stroke-miterlimit="10" cx="1317.546" cy="790.592" r="1.455"/>
<circle fill="none" stroke="#000000" stroke-width="0.25" stroke-miterlimit="10" cx="1339.812" cy="768.173" r="1.454"/>
<circle fill="none" stroke="#000000" stroke-width="0.25" stroke-miterlimit="10" cx="1355.614" cy="782.412" r="1.455"/>
<circle fill="none" stroke="#000000" stroke-width="0.25" stroke-miterlimit="10" cx="1376.859" cy="756.08" r="1.455"/>
<circle fill="none" stroke="#000000" stroke-width="0.25" stroke-miterlimit="10" cx="1359.714" cy="743.59" r="1.454"/>
<circle fill="none" stroke="#000000" stroke-width="0.25" stroke-miterlimit="10" cx="1376.859" cy="717.127" r="1.455"/>
<circle fill="none" stroke="#000000" stroke-width="0.25" stroke-miterlimit="10" cx="1395.282" cy="727.754" r="1.455"/>
<circle fill="none" stroke="#000000" stroke-width="0.25" stroke-miterlimit="10" cx="1391.261" cy="688.922" r="1.454"/>
<circle fill="none" stroke="#000000" stroke-width="0.25" stroke-miterlimit="10" cx="1410.714" cy="697.54" r="1.454"/>
<circle fill="none" stroke="#000000" stroke-width="0.25" stroke-miterlimit="10" cx="1422.829" cy="666.136" r="1.454"/>
<circle fill="none" stroke="#000000" stroke-width="0.25" stroke-miterlimit="10" cx="1402.546" cy="659.456" r="1.454"/>
<circle fill="none" stroke="#000000" stroke-width="0.25" stroke-miterlimit="10" cx="1431.546" cy="633.36" r="1.454"/>
<circle fill="none" stroke="#000000" stroke-width="0.25" stroke-miterlimit="10" cx="1410.708" cy="628.943" r="1.454"/>
<circle fill="none" stroke="#000000" stroke-width="0.25" stroke-miterlimit="10" cx="1415.729" cy="597.695" r="1.454"/>
<circle fill="none" stroke="#000000" stroke-width="0.25" stroke-miterlimit="10" cx="1436.91" cy="599.921" r="1.455"/>
<circle fill="none" stroke="#000000" stroke-width="0.25" stroke-miterlimit="10" cx="1417.407" cy="566.129" r="1.455"/>
<circle fill="none" stroke="#000000" stroke-width="0.25" stroke-miterlimit="10" cx="1438.667" cy="566.129" r="1.454"/>
<circle fill="none" stroke="#000000" stroke-width="0.25" stroke-miterlimit="10" cx="1415.716" cy="534.558" r="1.454"/>
<circle fill="none" stroke="#000000" stroke-width="0.25" stroke-miterlimit="10" cx="1436.915" cy="532.366" r="1.454"/>
<circle fill="none" stroke="#000000" stroke-width="0.25" stroke-miterlimit="10" cx="1410.799" cy="503.352" r="1.454"/>
<circle fill="none" stroke="#000000" stroke-width="0.25" stroke-miterlimit="10" cx="1431.534" cy="498.957" r="1.454"/>
<circle fill="none" stroke="#000000" stroke-width="0.25" stroke-miterlimit="10" cx="1402.595" cy="472.827" r="1.455"/>
<circle fill="none" stroke="#000000" stroke-width="0.25" stroke-miterlimit="10" cx="1422.797" cy="466.368" r="1.455"/>
<circle fill="none" stroke="#000000" stroke-width="0.25" stroke-miterlimit="10" cx="1391.298" cy="443.284" r="1.455"/>
<circle fill="none" stroke="#000000" stroke-width="0.25" stroke-miterlimit="10" cx="1410.716" cy="434.675" r="1.454"/>
<circle fill="none" stroke="#000000" stroke-width="0.25" stroke-miterlimit="10" cx="1376.994" cy="415.102" r="1.455"/>
<circle fill="none" stroke="#000000" stroke-width="0.25" stroke-miterlimit="10" cx="1395.4" cy="404.512" r="1.455"/>
<circle fill="none" stroke="#000000" stroke-width="0.25" stroke-miterlimit="10" cx="1359.751" cy="388.668" r="1.454"/>
<circle fill="none" stroke="#000000" stroke-width="0.25" stroke-miterlimit="10" cx="1376.943" cy="376.14" r="1.455"/>
<circle fill="none" stroke="#000000" stroke-width="0.25" stroke-miterlimit="10" cx="1339.839" cy="364.127" r="1.454"/>
<circle fill="none" stroke="#000000" stroke-width="0.25" stroke-miterlimit="10" cx="1355.64" cy="349.86" r="1.455"/>
<circle fill="none" stroke="#000000" stroke-width="0.25" stroke-miterlimit="10" cx="1317.475" cy="341.761" r="1.455"/>
<circle fill="none" stroke="#000000" stroke-width="0.25" stroke-miterlimit="10" cx="1331.723" cy="325.957" r="1.455"/>
<circle fill="none" stroke="#000000" stroke-width="0.25" stroke-miterlimit="10" cx="1292.919" cy="321.862" r="1.455"/>
<circle fill="none" stroke="#000000" stroke-width="0.25" stroke-miterlimit="10" cx="1305.396" cy="304.603" r="1.454"/>
<circle fill="none" stroke="#000000" stroke-width="0.25" stroke-miterlimit="10" cx="1266.465" cy="304.603" r="1.455"/>
<circle fill="none" stroke="#000000" stroke-width="0.25" stroke-miterlimit="10" cx="1277.03" cy="286.262" r="1.454"/>
<circle fill="none" stroke="#000000" stroke-width="0.25" stroke-miterlimit="10" cx="1246.885" cy="270.912" r="1.455"/>
<circle fill="none" stroke="#000000" stroke-width="0.25" stroke-miterlimit="10" cx="1238.185" cy="290.298" r="1.454"/>
<circle fill="none" stroke="#000000" stroke-width="0.25" stroke-miterlimit="10" cx="1208.714" cy="279.016" r="1.454"/>
<circle fill="none" stroke="#000000" stroke-width="0.25" stroke-miterlimit="10" cx="1215.18" cy="258.8" r="1.455"/>
<circle fill="none" stroke="#000000" stroke-width="0.25" stroke-miterlimit="10" cx="1182.632" cy="250.019" r="1.454"/>
<circle fill="none" stroke="#000000" stroke-width="0.25" stroke-miterlimit="10" cx="1178.255" cy="270.743" r="1.454"/>
<circle fill="none" stroke="#000000" stroke-width="0.25" stroke-miterlimit="10" cx="1146.984" cy="265.83" r="1.455"/>
<circle fill="none" stroke="#000000" stroke-width="0.25" stroke-miterlimit="10" cx="1149.257" cy="244.673" r="1.454"/>
<circle fill="none" stroke="#000000" stroke-width="0.25" stroke-miterlimit="10" cx="1115.429" cy="264.151" r="1.454"/>
<circle fill="none" stroke="#000000" stroke-width="0.25" stroke-miterlimit="10" cx="1115.429" cy="242.892" r="1.454"/>
<circle fill="none" stroke="#000000" stroke-width="0.25" stroke-miterlimit="10" cx="1081.63" cy="244.746" r="1.454"/>
<circle fill="none" stroke="#000000" stroke-width="0.25" stroke-miterlimit="10" cx="1083.878" cy="265.83" r="1.454"/>
<circle fill="none" stroke="#000000" stroke-width="0.25" stroke-miterlimit="10" cx="1052.698" cy="270.868" r="1.455"/>
<circle fill="none" stroke="#000000" stroke-width="0.25" stroke-miterlimit="10" cx="1048.198" cy="250.093" r="1.454"/>
<circle fill="none" stroke="#000000" stroke-width="0.25" stroke-miterlimit="10" cx="1022.105" cy="278.956" r="1.455"/>
<circle fill="none" stroke="#000000" stroke-width="0.25" stroke-miterlimit="10" cx="1015.651" cy="258.84" r="1.454"/>
<circle fill="none" stroke="#000000" stroke-width="0.25" stroke-miterlimit="10" cx="992.63" cy="290.285" r="1.454"/>
<circle fill="none" stroke="#000000" stroke-width="0.25" stroke-miterlimit="10" cx="983.98" cy="270.859" r="1.455"/>
<circle fill="none" stroke="#000000" stroke-width="0.25" stroke-miterlimit="10" cx="964.442" cy="304.624" r="1.454"/>
<circle fill="none" stroke="#000000" stroke-width="0.25" stroke-miterlimit="10" cx="953.819" cy="286.22" r="1.455"/>
<circle fill="none" stroke="#000000" stroke-width="0.25" stroke-miterlimit="10" cx="937.91" cy="321.862" r="1.454"/>
<circle fill="none" stroke="#000000" stroke-width="0.25" stroke-miterlimit="10" cx="925.392" cy="304.624" r="1.455"/>
<circle fill="none" stroke="#000000" stroke-width="0.25" stroke-miterlimit="10" cx="913.312" cy="341.728" r="1.455"/>
<circle fill="none" stroke="#000000" stroke-width="0.25" stroke-miterlimit="10" cx="899.2" cy="325.953" r="1.454"/>
<circle fill="none" stroke="#000000" stroke-width="0.25" stroke-miterlimit="10" cx="891.05" cy="364.163" r="1.455"/>
<circle fill="none" stroke="#000000" stroke-width="0.25" stroke-miterlimit="10" cx="875.269" cy="349.895" r="1.454"/>
<circle fill="none" stroke="#000000" stroke-width="0.25" stroke-miterlimit="10" cx="871.169" cy="388.644" r="1.454"/>
<circle fill="none" stroke="#000000" stroke-width="0.25" stroke-miterlimit="10" cx="854.007" cy="376.097" r="1.454"/>
<circle fill="none" stroke="#000000" stroke-width="0.25" stroke-miterlimit="10" cx="853.985" cy="415.096" r="1.454"/>
<circle fill="none" stroke="#000000" stroke-width="0.25" stroke-miterlimit="10" cx="835.589" cy="404.575" r="1.454"/>
<circle fill="none" stroke="#000000" stroke-width="0.25" stroke-miterlimit="10" cx="839.592" cy="443.304" r="1.454"/>
<circle fill="none" stroke="#000000" stroke-width="0.25" stroke-miterlimit="10" cx="820.149" cy="434.668" r="1.454"/>
<circle fill="none" stroke="#000000" stroke-width="0.25" stroke-miterlimit="10" cx="828.25" cy="472.87" r="1.454"/>
<circle fill="none" stroke="#000000" stroke-width="0.25" stroke-miterlimit="10" cx="808.063" cy="466.382" r="1.454"/>
<circle fill="none" stroke="#000000" stroke-width="0.25" stroke-miterlimit="10" cx="820.064" cy="503.385" r="1.454"/>
<circle fill="none" stroke="#000000" stroke-width="0.25" stroke-miterlimit="10" cx="799.169" cy="499.01" r="1.454"/>
<circle fill="none" stroke="#000000" stroke-width="0.25" stroke-miterlimit="10" cx="815.056" cy="534.585" r="1.455"/>
<circle fill="none" stroke="#000000" stroke-width="0.25" stroke-miterlimit="10" cx="793.966" cy="532.39" r="1.454"/>
<circle fill="none" stroke="#000000" stroke-width="0.25" stroke-miterlimit="10" cx="792.191" cy="566.129" r="1.455"/>
<circle fill="none" stroke="#000000" stroke-width="0.25" stroke-miterlimit="10" cx="813.452" cy="566.129" r="1.454"/>
<circle fill="none" stroke="#000000" stroke-width="0.25" stroke-miterlimit="10" cx="793.966" cy="599.97" r="1.454"/>
<circle fill="none" stroke="#000000" stroke-width="0.25" stroke-miterlimit="10" cx="815.158" cy="597.649" r="1.454"/>
<circle fill="none" stroke="#000000" stroke-width="0.25" stroke-miterlimit="10" cx="799.169" cy="633.132" r="1.454"/>
<circle fill="none" stroke="#000000" stroke-width="0.25" stroke-miterlimit="10" cx="820.064" cy="628.677" r="1.454"/>
<circle fill="none" stroke="#000000" stroke-width="0.25" stroke-miterlimit="10" cx="808.095" cy="666.136" r="1.454"/>
<circle fill="none" stroke="#000000" stroke-width="0.25" stroke-miterlimit="10" cx="828.59" cy="659.648" r="1.455"/>
<circle fill="none" stroke="#000000" stroke-width="0.25" stroke-miterlimit="10" cx="820.064" cy="697.646" r="1.454"/>
<circle fill="none" stroke="#000000" stroke-width="0.25" stroke-miterlimit="10" cx="839.707" cy="688.906" r="1.454"/>
<circle fill="none" stroke="#000000" stroke-width="0.25" stroke-miterlimit="10" cx="835.549" cy="727.735" r="1.454"/>
<circle fill="none" stroke="#000000" stroke-width="0.25" stroke-miterlimit="10" cx="853.889" cy="717.523" r="1.454"/>
<circle fill="none" stroke="#000000" stroke-width="0.25" stroke-miterlimit="10" cx="853.889" cy="755.827" r="1.454"/>
<circle fill="none" stroke="#000000" stroke-width="0.25" stroke-miterlimit="10" cx="870.91" cy="743.769" r="1.455"/>
<circle fill="none" stroke="#000000" stroke-width="0.25" stroke-miterlimit="10" cx="875.303" cy="782.534" r="1.454"/>
<circle fill="none" stroke="#000000" stroke-width="0.25" stroke-miterlimit="10" cx="891.127" cy="768.102" r="1.455"/>
<circle fill="none" stroke="#000000" stroke-width="0.25" stroke-miterlimit="10" cx="899.138" cy="806.348" r="1.454"/>
<circle fill="none" stroke="#000000" stroke-width="0.25" stroke-miterlimit="10" cx="913.287" cy="790.583" r="1.455"/>
<circle fill="none" stroke="#000000" stroke-width="0.25" stroke-miterlimit="10" cx="925.49" cy="827.348" r="1.455"/>
<circle fill="none" stroke="#000000" stroke-width="0.25" stroke-miterlimit="10" cx="938.106" cy="810.577" r="1.455"/>
<circle fill="none" stroke="#000000" stroke-width="0.25" stroke-miterlimit="10" cx="953.823" cy="846.229" r="1.455"/>
<circle fill="none" stroke="#000000" stroke-width="0.25" stroke-miterlimit="10" cx="964.629" cy="827.779" r="1.455"/>
<circle fill="none" stroke="#000000" stroke-width="0.25" stroke-miterlimit="10" cx="984.083" cy="861.384" r="1.454"/>
<circle fill="none" stroke="#000000" stroke-width="0.25" stroke-miterlimit="10" cx="992.479" cy="842.056" r="1.455"/>
<circle fill="none" stroke="#000000" stroke-width="0.25" stroke-miterlimit="10" cx="1022.019" cy="853.524" r="1.454"/>
<circle fill="none" stroke="#000000" stroke-width="0.25" stroke-miterlimit="10" cx="1015.423" cy="873.661" r="1.454"/>
<circle fill="none" stroke="#000000" stroke-width="0.25" stroke-miterlimit="10" cx="1048.245" cy="882.313" r="1.454"/>
<circle fill="none" stroke="#000000" stroke-width="0.25" stroke-miterlimit="10" cx="1052.703" cy="861.384" r="1.454"/>
<circle fill="none" stroke="#000000" stroke-width="0.25" stroke-miterlimit="10" cx="1083.921" cy="866.652" r="1.455"/>
<circle fill="none" stroke="#000000" stroke-width="0.25" stroke-miterlimit="10" cx="1081.567" cy="887.912" r="1.454"/>
<path fill="none" stroke="#000000" stroke-width="0.25" d="M885.979,732.849c34.742,47.789,84.051,84.304,141.403,103.023
	l-0.024,0.073c1.821,0.481,3.164,2.14,3.164,4.111c0,2.349-1.903,4.252-4.252,4.252c-0.42,0-0.825-0.061-1.208-0.174l-0.02,0.07
	c-59.125-19.215-109.977-56.776-145.837-105.967l0.068-0.047c-0.517-0.704-0.822-1.573-0.822-2.514c0-2.348,1.904-4.252,4.252-4.252
	c1.363,0,2.577,0.642,3.355,1.64"/>
<path fill="none" stroke="#000000" stroke-width="0.25" d="M1385.211,653.532c-18.621,57.663-55.215,107.249-103.178,142.155l0,0
	c-0.976,0.778-1.342,1.96-1.342,3.306c0,2.349,1.904,4.252,4.252,4.252c0.896,0,1.729-0.277,2.415-0.752l0.005,0.008
	c49.145-35.845,86.676-86.657,105.89-145.733l0,0c0.188-0.482,0.282-1.144,0.282-1.69c0-2.349-2.068-4.125-4.416-4.125
	c-2.08,0-3.813,1.495-4.18,3.47L1385.211,653.532z"/>
<path fill="none" stroke="#000000" stroke-width="0.25" d="M1205.801,288.485c59.111,19.217,109.951,56.771,145.805,105.949l0,0
	c0.459,0.679,0.662,1.539,0.662,2.421c0,2.349-1.902,4.252-4.252,4.252c-1.506,0-2.893-0.74-3.648-1.921l0,0
	c-34.872-47.686-84.283-84.07-141.708-102.628l0,0c-1.693-0.56-2.754-2.164-2.754-4.046c0-2.349,1.903-4.252,4.252-4.252
	C1204.745,288.259,1205.292,288.27,1205.801,288.485z"/>
<path fill="none" stroke="#000000" stroke-width="0.25" d="M837.685,475.543c19.28-59.011,56.845-109.753,106-145.532l0,0
	c0.715-0.545,1.551-0.701,2.518-0.701c2.349,0,4.252,1.903,4.252,4.252c0,1.361-0.612,2.607-1.607,3.386l0,0
	c-47.808,34.772-84.326,84.125-103.023,141.525l0,0c-0.568,1.679-2.118,2.901-3.989,2.901c-2.348,0-4.252-1.903-4.252-4.252
	C837.585,476.561,837.565,476.178,837.685,475.543L837.685,475.543z"/>
<line fill="none" stroke="#000000" stroke-width="0.25" stroke-miterlimit="10" x1="1157.066" y1="829.352" x2="1168.149" y2="899.33"/>
<line fill="none" stroke="#000000" stroke-width="0.25" stroke-miterlimit="10" x1="1378.608" y1="524.653" x2="1448.656" y2="513.559"/>
<line fill="none" stroke="#000000" stroke-width="0.25" stroke-miterlimit="10" x1="1062.604" y1="232.944" x2="1073.688" y2="302.922"/>
<line fill="none" stroke="#000000" stroke-width="0.25" stroke-miterlimit="10" x1="782.268" y1="619.104" x2="852.243" y2="608.021"/>
<g>
	<rect x="230.813" y="116.659" fill="none" stroke="#010101" stroke-width="0.25" width="56.693" height="14.173"/>
	<rect x="372.545" y="116.659" fill="none" stroke="#010101" stroke-width="0.25" width="56.693" height="14.173"/>
</g>
<g>
	<rect x="230.813" y="427.643" fill="none" stroke="#010101" stroke-width="0.25" width="56.693" height="14.173"/>
	<rect x="372.545" y="427.643" fill="none" stroke="#010101" stroke-width="0.25" width="56.693" height="14.173"/>
</g>
<g>
	<circle fill="none" stroke="#000000" stroke-width="0.25" stroke-miterlimit="10" cx="114.338" cy="112.678" r="8.504"/>
	<circle fill="none" stroke="#000000" stroke-width="0.25" stroke-miterlimit="10" cx="545.713" cy="112.678" r="8.504"/>
</g>
<g>
	<circle fill="none" stroke="#000000" stroke-width="0.25" stroke-miterlimit="10" cx="545.713" cy="446.315" r="8.504"/>
	<circle fill="none" stroke="#000000" stroke-width="0.25" stroke-miterlimit="10" cx="114.338" cy="446.315" r="8.504"/>
</g>
<g>
	<rect x="117.297" y="322.016" fill="none" stroke="#010101" stroke-width="0.25" width="14.173" height="56.693"/>
	<rect x="117.297" y="180.284" fill="none" stroke="#010101" stroke-width="0.25" width="14.173" height="56.693"/>
</g>
<g>
	<rect x="528.207" y="322.016" fill="none" stroke="#010101" stroke-width="0.25" width="14.173" height="56.693"/>
	<rect x="528.207" y="180.284" fill="none" stroke="#010101" stroke-width="0.25" width="14.173" height="56.693"/>
</g>
<g>
	<circle fill="none" stroke="#000000" stroke-width="0.25" cx="599.604" cy="247.628" r="4.252"/>
	<circle fill="none" stroke="#000000" stroke-width="0.25" cx="636.416" cy="268.882" r="4.252"/>
	<circle fill="none" stroke="#000000" stroke-width="0.25" cx="633.546" cy="188.838" r="4.252"/>
	<circle fill="none" stroke="#000000" stroke-width="0.25" cx="670.358" cy="210.092" r="4.252"/>
</g>
<rect x="146.352" y="143.866" fill="none" stroke="#000000" stroke-width="0.25" stroke-miterlimit="10" width="366.128" height="269.292"/>
</svg>
