solid connections
facet normal 0.866025403784452 0.499999999999977 -1.09541166154949e-16
outer loop
vertex 16.7009618943233 103.25 -6.0
vertex 16.9393398282202 102.93933982822 6.0
vertex 16.9393398282202 102.93933982822 -6.0
endloop
endfacet
facet normal 0.707106781186537 0.707106781186558 0.0
outer loop
vertex 16.9393398282202 102.93933982822 6.0
vertex 16.7009618943233 103.25 -6.0
vertex 16.7009618943233 103.25 6.0
endloop
endfacet
facet normal 0.0 0.0 1.0
outer loop
vertex -3.0 100.0 6.0
vertex -0.299038105676686 103.25 6.0
vertex -3.0 108.0 6.0
endloop
endfacet
facet normal 0.0 0.0 1.0
outer loop
vertex -0.299038105676686 103.25 6.0
vertex -3.0 100.0 6.0
vertex -0.0606601717798108 102.93933982822 6.0
endloop
endfacet
facet normal 0.0 0.0 1.0
outer loop
vertex -0.0606601717798108 102.93933982822 6.0
vertex -3.0 100.0 6.0
vertex 0.250000000000009 102.700961894323 6.0
endloop
endfacet
facet normal 0.0 0.0 1.0
outer loop
vertex 0.250000000000009 102.700961894323 6.0
vertex -3.0 100.0 6.0
vertex 0.611771432346222 102.551111260566 6.0
endloop
endfacet
facet normal 0.0 0.0 1.0
outer loop
vertex 0.611771432346222 102.551111260566 6.0
vertex -3.0 100.0 6.0
vertex 1.0 102.5 6.0
endloop
endfacet
facet normal 0.0 0.0 1.0
outer loop
vertex 1.0 102.5 6.0
vertex -3.0 100.0 6.0
vertex 22.0 100.0 6.0
endloop
endfacet
facet normal 0.0 0.0 1.0
outer loop
vertex -3.0 108.0 6.0
vertex -0.299038105676686 103.25 6.0
vertex -0.448888739433601 103.611771432346 6.0
endloop
endfacet
facet normal 0.0 0.0 1.0
outer loop
vertex -3.0 108.0 6.0
vertex -0.448888739433601 103.611771432346 6.0
vertex -0.499999999999999 104.0 6.0
endloop
endfacet
facet normal 0.0 0.0 1.0
outer loop
vertex 1.0 102.5 6.0
vertex 22.0 100.0 6.0
vertex 1.38822856765378 102.551111260566 6.0
endloop
endfacet
facet normal 0.0 0.0 1.0
outer loop
vertex 1.38822856765378 102.551111260566 6.0
vertex 22.0 100.0 6.0
vertex 1.75 102.700961894323 6.0
endloop
endfacet
facet normal 0.0 0.0 1.0
outer loop
vertex 1.75 102.700961894323 6.0
vertex 22.0 100.0 6.0
vertex 2.06066017177983 102.93933982822 6.0
endloop
endfacet
facet normal 0.0 0.0 1.0
outer loop
vertex 2.06066017177983 102.93933982822 6.0
vertex 22.0 100.0 6.0
vertex 2.29903810567667 103.25 6.0
endloop
endfacet
facet normal 0.0 0.0 1.0
outer loop
vertex 2.29903810567667 103.25 6.0
vertex 22.0 100.0 6.0
vertex 2.44888873943361 103.611771432346 6.0
endloop
endfacet
facet normal 0.0 0.0 1.0
outer loop
vertex 2.44888873943361 103.611771432346 6.0
vertex 22.0 100.0 6.0
vertex 2.5 104.0 6.0
endloop
endfacet
facet normal 0.0 0.0 1.0
outer loop
vertex 2.5 104.0 6.0
vertex 22.0 100.0 6.0
vertex 17.25 102.700961894323 6.0
endloop
endfacet
facet normal 0.0 0.0 1.0
outer loop
vertex 2.5 104.0 6.0
vertex 17.25 102.700961894323 6.0
vertex 16.9393398282202 102.93933982822 6.0
endloop
endfacet
facet normal 0.0 0.0 1.0
outer loop
vertex 2.5 104.0 6.0
vertex 16.9393398282202 102.93933982822 6.0
vertex 16.7009618943233 103.25 6.0
endloop
endfacet
facet normal 0.0 0.0 1.0
outer loop
vertex 2.5 104.0 6.0
vertex 16.7009618943233 103.25 6.0
vertex 16.5511112605664 103.611771432346 6.0
endloop
endfacet
facet normal 0.0 0.0 1.0
outer loop
vertex 2.5 104.0 6.0
vertex 16.5511112605664 103.611771432346 6.0
vertex 16.5 104.0 6.0
endloop
endfacet
facet normal 0.0 0.0 1.0
outer loop
vertex 17.25 102.700961894323 6.0
vertex 22.0 100.0 6.0
vertex 17.6117714323462 102.551111260566 6.0
endloop
endfacet
facet normal 0.0 0.0 1.0
outer loop
vertex 17.6117714323462 102.551111260566 6.0
vertex 22.0 100.0 6.0
vertex 18.0 102.5 6.0
endloop
endfacet
facet normal 0.0 0.0 1.0
outer loop
vertex 18.0 102.5 6.0
vertex 22.0 100.0 6.0
vertex 18.3882285676538 102.551111260566 6.0
endloop
endfacet
facet normal 0.0 0.0 1.0
outer loop
vertex 18.3882285676538 102.551111260566 6.0
vertex 22.0 100.0 6.0
vertex 18.75 102.700961894323 6.0
endloop
endfacet
facet normal 0.0 0.0 1.0
outer loop
vertex 18.75 102.700961894323 6.0
vertex 22.0 100.0 6.0
vertex 19.0606601717799 102.93933982822 6.0
endloop
endfacet
facet normal 0.0 0.0 1.0
outer loop
vertex 19.0606601717799 102.93933982822 6.0
vertex 22.0 100.0 6.0
vertex 19.2990381056767 103.25 6.0
endloop
endfacet
facet normal 0.0 0.0 1.0
outer loop
vertex 19.2990381056767 103.25 6.0
vertex 22.0 100.0 6.0
vertex 19.4488887394336 103.611771432346 6.0
endloop
endfacet
facet normal 0.0 0.0 1.0
outer loop
vertex 19.4488887394336 103.611771432346 6.0
vertex 22.0 100.0 6.0
vertex 19.5 104.0 6.0
endloop
endfacet
facet normal 0.0 0.0 1.0
outer loop
vertex -3.0 108.0 6.0
vertex 1.0 105.5 6.0
vertex 22.0 108.0 6.0
endloop
endfacet
facet normal 0.0 0.0 1.0
outer loop
vertex 1.0 105.5 6.0
vertex -3.0 108.0 6.0
vertex 0.611771432346222 105.448888739434 6.0
endloop
endfacet
facet normal 0.0 0.0 1.0
outer loop
vertex 0.611771432346222 105.448888739434 6.0
vertex -3.0 108.0 6.0
vertex 0.250000000000004 105.299038105677 6.0
endloop
endfacet
facet normal 0.0 0.0 1.0
outer loop
vertex 0.250000000000004 105.299038105677 6.0
vertex -3.0 108.0 6.0
vertex -0.0606601717797806 105.06066017178 6.0
endloop
endfacet
facet normal 0.0 0.0 1.0
outer loop
vertex -0.0606601717797806 105.06066017178 6.0
vertex -3.0 108.0 6.0
vertex -0.299038105676618 104.75 6.0
endloop
endfacet
facet normal 0.0 0.0 1.0
outer loop
vertex -0.299038105676618 104.75 6.0
vertex -3.0 108.0 6.0
vertex -0.448888739433599 104.388228567654 6.0
endloop
endfacet
facet normal 0.0 0.0 1.0
outer loop
vertex -0.448888739433599 104.388228567654 6.0
vertex -3.0 108.0 6.0
vertex -0.499999999999999 104.0 6.0
endloop
endfacet
facet normal 0.0 0.0 1.0
outer loop
vertex 22.0 108.0 6.0
vertex 1.0 105.5 6.0
vertex 1.38822856765379 105.448888739434 6.0
endloop
endfacet
facet normal 0.0 0.0 1.0
outer loop
vertex 22.0 108.0 6.0
vertex 1.38822856765379 105.448888739434 6.0
vertex 1.75000000000001 105.299038105677 6.0
endloop
endfacet
facet normal 0.0 0.0 1.0
outer loop
vertex 22.0 108.0 6.0
vertex 1.75000000000001 105.299038105677 6.0
vertex 2.06066017177982 105.06066017178 6.0
endloop
endfacet
facet normal 0.0 0.0 1.0
outer loop
vertex 22.0 108.0 6.0
vertex 2.06066017177982 105.06066017178 6.0
vertex 2.29903810567665 104.75 6.0
endloop
endfacet
facet normal 0.0 0.0 1.0
outer loop
vertex 22.0 108.0 6.0
vertex 2.29903810567665 104.75 6.0
vertex 2.44888873943359 104.388228567654 6.0
endloop
endfacet
facet normal 0.0 0.0 1.0
outer loop
vertex 22.0 108.0 6.0
vertex 2.44888873943359 104.388228567654 6.0
vertex 2.5 104.0 6.0
endloop
endfacet
facet normal 0.0 0.0 1.0
outer loop
vertex 22.0 108.0 6.0
vertex 2.5 104.0 6.0
vertex 17.25 105.299038105677 6.0
endloop
endfacet
facet normal 0.0 0.0 1.0
outer loop
vertex 17.25 105.299038105677 6.0
vertex 2.5 104.0 6.0
vertex 16.9393398282202 105.06066017178 6.0
endloop
endfacet
facet normal 0.0 0.0 1.0
outer loop
vertex 16.9393398282202 105.06066017178 6.0
vertex 2.5 104.0 6.0
vertex 16.7009618943234 104.75 6.0
endloop
endfacet
facet normal 0.0 0.0 1.0
outer loop
vertex 16.7009618943234 104.75 6.0
vertex 2.5 104.0 6.0
vertex 16.5511112605664 104.388228567654 6.0
endloop
endfacet
facet normal 0.0 0.0 1.0
outer loop
vertex 16.5511112605664 104.388228567654 6.0
vertex 2.5 104.0 6.0
vertex 16.5 104.0 6.0
endloop
endfacet
facet normal 0.0 0.0 1.0
outer loop
vertex 22.0 108.0 6.0
vertex 17.25 105.299038105677 6.0
vertex 17.6117714323462 105.448888739434 6.0
endloop
endfacet
facet normal 0.0 0.0 1.0
outer loop
vertex 22.0 108.0 6.0
vertex 17.6117714323462 105.448888739434 6.0
vertex 18.0 105.5 6.0
endloop
endfacet
facet normal 0.0 0.0 1.0
outer loop
vertex 22.0 108.0 6.0
vertex 18.0 105.5 6.0
vertex 18.3882285676538 105.448888739434 6.0
endloop
endfacet
facet normal 0.0 0.0 1.0
outer loop
vertex 22.0 108.0 6.0
vertex 18.3882285676538 105.448888739434 6.0
vertex 18.75 105.299038105677 6.0
endloop
endfacet
facet normal 0.0 0.0 1.0
outer loop
vertex 22.0 108.0 6.0
vertex 18.75 105.299038105677 6.0
vertex 19.0606601717798 105.06066017178 6.0
endloop
endfacet
facet normal 0.0 0.0 1.0
outer loop
vertex 22.0 108.0 6.0
vertex 19.0606601717798 105.06066017178 6.0
vertex 19.2990381056766 104.75 6.0
endloop
endfacet
facet normal 0.0 0.0 1.0
outer loop
vertex 22.0 108.0 6.0
vertex 19.2990381056766 104.75 6.0
vertex 19.4488887394336 104.388228567654 6.0
endloop
endfacet
facet normal 0.0 0.0 1.0
outer loop
vertex 22.0 108.0 6.0
vertex 19.4488887394336 104.388228567654 6.0
vertex 19.5 104.0 6.0
endloop
endfacet
facet normal 0.0 0.0 1.0
outer loop
vertex 22.0 108.0 6.0
vertex 19.5 104.0 6.0
vertex 22.0 100.0 6.0
endloop
endfacet
facet normal 0.0 1.0 0.0
outer loop
vertex -3.0 108.0 6.0
vertex 22.0 108.0 -6.0
vertex -3.0 108.0 -6.0
endloop
endfacet
facet normal 0.0 1.0 0.0
outer loop
vertex 22.0 108.0 -6.0
vertex -3.0 108.0 6.0
vertex 22.0 108.0 6.0
endloop
endfacet
facet normal -0.0 -1.0 -0.0
outer loop
vertex 22.0 100.0 6.0
vertex -3.0 100.0 -6.0
vertex 22.0 100.0 -6.0
endloop
endfacet
facet normal -0.0 -1.0 -0.0
outer loop
vertex -3.0 100.0 -6.0
vertex 22.0 100.0 6.0
vertex -3.0 100.0 6.0
endloop
endfacet
facet normal 0.707106781186525 -0.70710678118657 7.21787143205783e-17
outer loop
vertex 16.9393398282202 105.06066017178 -6.0
vertex 16.7009618943234 104.75 6.0
vertex 16.7009618943234 104.75 -6.0
endloop
endfacet
facet normal 0.866025403784423 -0.500000000000028 0.0
outer loop
vertex 16.7009618943234 104.75 6.0
vertex 16.9393398282202 105.06066017178 -6.0
vertex 16.9393398282202 105.06066017178 6.0
endloop
endfacet
facet normal 0.707106781186537 0.707106781186558 0.0
outer loop
vertex 16.9393398282202 102.93933982822 6.0
vertex 17.25 102.700961894323 -6.0
vertex 16.9393398282202 102.93933982822 -6.0
endloop
endfacet
facet normal 0.500000000000003 0.866025403784437 0.0
outer loop
vertex 17.25 102.700961894323 -6.0
vertex 16.9393398282202 102.93933982822 6.0
vertex 17.25 102.700961894323 6.0
endloop
endfacet
facet normal -0.499999999999973 -0.866025403784454 0.0
outer loop
vertex 18.75 105.299038105677 6.0
vertex 18.3882285676538 105.448888739434 -6.0
vertex 18.75 105.299038105677 -6.0
endloop
endfacet
facet normal -0.258819045102526 -0.965925826289067 0.0
outer loop
vertex 18.3882285676538 105.448888739434 -6.0
vertex 18.75 105.299038105677 6.0
vertex 18.3882285676538 105.448888739434 6.0
endloop
endfacet
facet normal -2.7152151852036e-14 1.0 0.0
outer loop
vertex 18.0 102.5 6.0
vertex 18.3882285676538 102.551111260566 -6.0
vertex 18.0 102.5 -6.0
endloop
endfacet
facet normal -0.258819045102498 0.965925826289074 0.0
outer loop
vertex 18.3882285676538 102.551111260566 -6.0
vertex 18.0 102.5 6.0
vertex 18.3882285676538 102.551111260566 6.0
endloop
endfacet
facet normal -0.258819045102498 0.965925826289074 0.0
outer loop
vertex 18.3882285676538 102.551111260566 6.0
vertex 18.75 102.700961894323 -6.0
vertex 18.3882285676538 102.551111260566 -6.0
endloop
endfacet
facet normal -0.499999999999972 0.866025403784455 0.0
outer loop
vertex 18.75 102.700961894323 -6.0
vertex 18.3882285676538 102.551111260566 6.0
vertex 18.75 102.700961894323 6.0
endloop
endfacet
facet normal 0.96592582628908 0.258819045102478 -3.44524029942698e-16
outer loop
vertex 16.5511112605664 103.611771432346 -6.0
vertex 16.7009618943233 103.25 6.0
vertex 16.7009618943233 103.25 -6.0
endloop
endfacet
facet normal 0.866025403784452 0.499999999999977 -1.09541166154949e-16
outer loop
vertex 16.7009618943233 103.25 6.0
vertex 16.5511112605664 103.611771432346 -6.0
vertex 16.5511112605664 103.611771432346 6.0
endloop
endfacet
facet normal -2.81145517207661e-14 -1.0 0.0
outer loop
vertex 18.0 105.5 6.0
vertex 17.6117714323462 105.448888739434 -6.0
vertex 18.0 105.5 -6.0
endloop
endfacet
facet normal 0.258819045102527 -0.965925826289067 4.53734366595448e-17
outer loop
vertex 17.6117714323462 105.448888739434 -6.0
vertex 18.0 105.5 6.0
vertex 17.6117714323462 105.448888739434 6.0
endloop
endfacet
facet normal -1.0 0.0 0.0
outer loop
vertex -3.0 108.0 6.0
vertex -3.0 100.0 -6.0
vertex -3.0 100.0 6.0
endloop
endfacet
facet normal -1.0 0.0 0.0
outer loop
vertex -3.0 100.0 -6.0
vertex -3.0 108.0 6.0
vertex -3.0 108.0 -6.0
endloop
endfacet
facet normal -0.965925826289072 0.258819045102508 -2.2651922951565e-16
outer loop
vertex 19.4488887394336 103.611771432346 6.0
vertex 19.2990381056767 103.25 -6.0
vertex 19.2990381056767 103.25 6.0
endloop
endfacet
facet normal -0.866025403784454 0.499999999999973 -1.09088516708024e-16
outer loop
vertex 19.2990381056767 103.25 -6.0
vertex 19.4488887394336 103.611771432346 6.0
vertex 19.4488887394336 103.611771432346 -6.0
endloop
endfacet
facet normal 1.0 -5.37339926707508e-15 -3.52413576595377e-16
outer loop
vertex 16.5 104.0 -6.0
vertex 16.5511112605664 103.611771432346 6.0
vertex 16.5511112605664 103.611771432346 -6.0
endloop
endfacet
facet normal 0.96592582628908 0.258819045102478 -3.44524029942698e-16
outer loop
vertex 16.5511112605664 103.611771432346 6.0
vertex 16.5 104.0 -6.0
vertex 16.5 104.0 6.0
endloop
endfacet
facet normal 0.258819045102527 -0.965925826289067 4.53734366595448e-17
outer loop
vertex 17.6117714323462 105.448888739434 6.0
vertex 17.25 105.299038105677 -6.0
vertex 17.6117714323462 105.448888739434 -6.0
endloop
endfacet
facet normal 0.499999999999986 -0.866025403784447 1.17552150980122e-16
outer loop
vertex 17.25 105.299038105677 -6.0
vertex 17.6117714323462 105.448888739434 6.0
vertex 17.25 105.299038105677 6.0
endloop
endfacet
facet normal -0.866025403784454 0.499999999999973 -1.09088516708024e-16
outer loop
vertex 19.2990381056767 103.25 6.0
vertex 19.0606601717799 102.93933982822 -6.0
vertex 19.0606601717799 102.93933982822 6.0
endloop
endfacet
facet normal -0.707106781186552 0.707106781186543 0.0
outer loop
vertex 19.0606601717799 102.93933982822 -6.0
vertex 19.2990381056767 103.25 6.0
vertex 19.2990381056767 103.25 -6.0
endloop
endfacet
facet normal 0.965925826289061 -0.258819045102547 -1.17430712807626e-16
outer loop
vertex 16.5511112605664 104.388228567654 -6.0
vertex 16.5 104.0 6.0
vertex 16.5 104.0 -6.0
endloop
endfacet
facet normal 1.0 -5.37339926707508e-15 -3.52413576595377e-16
outer loop
vertex 16.5 104.0 6.0
vertex 16.5511112605664 104.388228567654 -6.0
vertex 16.5511112605664 104.388228567654 6.0
endloop
endfacet
facet normal 0.499999999999986 -0.866025403784447 1.17552150980122e-16
outer loop
vertex 17.25 105.299038105677 6.0
vertex 16.9393398282202 105.06066017178 -6.0
vertex 17.25 105.299038105677 -6.0
endloop
endfacet
facet normal 0.707106781186525 -0.70710678118657 7.21787143205783e-17
outer loop
vertex 16.9393398282202 105.06066017178 -6.0
vertex 17.25 105.299038105677 6.0
vertex 16.9393398282202 105.06066017178 6.0
endloop
endfacet
facet normal -0.707106781186536 -0.707106781186559 0.0
outer loop
vertex 19.0606601717798 105.06066017178 6.0
vertex 18.75 105.299038105677 -6.0
vertex 19.0606601717798 105.06066017178 -6.0
endloop
endfacet
facet normal -0.499999999999973 -0.866025403784454 0.0
outer loop
vertex 18.75 105.299038105677 -6.0
vertex 19.0606601717798 105.06066017178 6.0
vertex 18.75 105.299038105677 6.0
endloop
endfacet
facet normal 0.866025403784423 -0.500000000000028 0.0
outer loop
vertex 16.7009618943234 104.75 -6.0
vertex 16.5511112605664 104.388228567654 6.0
vertex 16.5511112605664 104.388228567654 -6.0
endloop
endfacet
facet normal 0.965925826289061 -0.258819045102547 -1.17430712807626e-16
outer loop
vertex 16.5511112605664 104.388228567654 6.0
vertex 16.7009618943234 104.75 -6.0
vertex 16.7009618943234 104.75 6.0
endloop
endfacet
facet normal 1.0 0.0 0.0
outer loop
vertex 22.0 108.0 -6.0
vertex 22.0 100.0 6.0
vertex 22.0 100.0 -6.0
endloop
endfacet
facet normal 1.0 0.0 0.0
outer loop
vertex 22.0 100.0 6.0
vertex 22.0 108.0 -6.0
vertex 22.0 108.0 6.0
endloop
endfacet
facet normal 0.0 0.0 -1.0
outer loop
vertex -3.0 108.0 -6.0
vertex -0.299038105676618 104.75 -6.0
vertex -3.0 100.0 -6.0
endloop
endfacet
facet normal 0.0 0.0 -1.0
outer loop
vertex -0.299038105676618 104.75 -6.0
vertex -3.0 108.0 -6.0
vertex -0.0606601717798219 105.06066017178 -6.0
endloop
endfacet
facet normal 0.0 0.0 -1.0
outer loop
vertex -0.0606601717798219 105.06066017178 -6.0
vertex -3.0 108.0 -6.0
vertex 0.250000000000001 105.299038105677 -6.0
endloop
endfacet
facet normal 0.0 0.0 -1.0
outer loop
vertex 0.250000000000001 105.299038105677 -6.0
vertex -3.0 108.0 -6.0
vertex 0.611771432346219 105.448888739434 -6.0
endloop
endfacet
facet normal 0.0 0.0 -1.0
outer loop
vertex 0.611771432346219 105.448888739434 -6.0
vertex -3.0 108.0 -6.0
vertex 1.0 105.5 -6.0
endloop
endfacet
facet normal 0.0 0.0 -1.0
outer loop
vertex 1.0 105.5 -6.0
vertex -3.0 108.0 -6.0
vertex 22.0 108.0 -6.0
endloop
endfacet
facet normal 0.0 0.0 -1.0
outer loop
vertex -3.0 100.0 -6.0
vertex -0.299038105676618 104.75 -6.0
vertex -0.448888739433599 104.388228567654 -6.0
endloop
endfacet
facet normal 0.0 0.0 -1.0
outer loop
vertex -3.0 100.0 -6.0
vertex -0.448888739433599 104.388228567654 -6.0
vertex -0.499999999999996 104.0 -6.0
endloop
endfacet
facet normal 0.0 0.0 -1.0
outer loop
vertex 1.0 105.5 -6.0
vertex 22.0 108.0 -6.0
vertex 1.38822856765379 105.448888739434 -6.0
endloop
endfacet
facet normal 0.0 0.0 -1.0
outer loop
vertex 1.38822856765379 105.448888739434 -6.0
vertex 22.0 108.0 -6.0
vertex 1.75000000000001 105.299038105677 -6.0
endloop
endfacet
facet normal 0.0 0.0 -1.0
outer loop
vertex 1.75000000000001 105.299038105677 -6.0
vertex 22.0 108.0 -6.0
vertex 2.06066017177982 105.06066017178 -6.0
endloop
endfacet
facet normal 0.0 0.0 -1.0
outer loop
vertex 2.06066017177982 105.06066017178 -6.0
vertex 22.0 108.0 -6.0
vertex 2.29903810567665 104.75 -6.0
endloop
endfacet
facet normal 0.0 0.0 -1.0
outer loop
vertex 2.29903810567665 104.75 -6.0
vertex 22.0 108.0 -6.0
vertex 2.44888873943359 104.388228567654 -6.0
endloop
endfacet
facet normal 0.0 0.0 -1.0
outer loop
vertex 2.44888873943359 104.388228567654 -6.0
vertex 22.0 108.0 -6.0
vertex 2.5 104.0 -6.0
endloop
endfacet
facet normal 0.0 0.0 -1.0
outer loop
vertex 2.5 104.0 -6.0
vertex 22.0 108.0 -6.0
vertex 17.25 105.299038105677 -6.0
endloop
endfacet
facet normal 0.0 0.0 -1.0
outer loop
vertex 2.5 104.0 -6.0
vertex 17.25 105.299038105677 -6.0
vertex 16.9393398282202 105.06066017178 -6.0
endloop
endfacet
facet normal 0.0 0.0 -1.0
outer loop
vertex 2.5 104.0 -6.0
vertex 16.9393398282202 105.06066017178 -6.0
vertex 16.7009618943234 104.75 -6.0
endloop
endfacet
facet normal 0.0 0.0 -1.0
outer loop
vertex 2.5 104.0 -6.0
vertex 16.7009618943234 104.75 -6.0
vertex 16.5511112605664 104.388228567654 -6.0
endloop
endfacet
facet normal 0.0 0.0 -1.0
outer loop
vertex 2.5 104.0 -6.0
vertex 16.5511112605664 104.388228567654 -6.0
vertex 16.5 104.0 -6.0
endloop
endfacet
facet normal 0.0 0.0 -1.0
outer loop
vertex 17.25 105.299038105677 -6.0
vertex 22.0 108.0 -6.0
vertex 17.6117714323462 105.448888739434 -6.0
endloop
endfacet
facet normal 0.0 0.0 -1.0
outer loop
vertex 17.6117714323462 105.448888739434 -6.0
vertex 22.0 108.0 -6.0
vertex 18.0 105.5 -6.0
endloop
endfacet
facet normal 0.0 0.0 -1.0
outer loop
vertex 18.0 105.5 -6.0
vertex 22.0 108.0 -6.0
vertex 18.3882285676538 105.448888739434 -6.0
endloop
endfacet
facet normal 0.0 0.0 -1.0
outer loop
vertex 18.3882285676538 105.448888739434 -6.0
vertex 22.0 108.0 -6.0
vertex 18.75 105.299038105677 -6.0
endloop
endfacet
facet normal 0.0 0.0 -1.0
outer loop
vertex 18.75 105.299038105677 -6.0
vertex 22.0 108.0 -6.0
vertex 19.0606601717798 105.06066017178 -6.0
endloop
endfacet
facet normal 0.0 0.0 -1.0
outer loop
vertex 19.0606601717798 105.06066017178 -6.0
vertex 22.0 108.0 -6.0
vertex 19.2990381056766 104.75 -6.0
endloop
endfacet
facet normal 0.0 0.0 -1.0
outer loop
vertex 19.2990381056766 104.75 -6.0
vertex 22.0 108.0 -6.0
vertex 19.4488887394336 104.388228567654 -6.0
endloop
endfacet
facet normal 0.0 0.0 -1.0
outer loop
vertex 19.4488887394336 104.388228567654 -6.0
vertex 22.0 108.0 -6.0
vertex 19.5 104.0 -6.0
endloop
endfacet
facet normal 0.0 0.0 -1.0
outer loop
vertex -3.0 100.0 -6.0
vertex 1.0 102.5 -6.0
vertex 22.0 100.0 -6.0
endloop
endfacet
facet normal 0.0 0.0 -1.0
outer loop
vertex 1.0 102.5 -6.0
vertex -3.0 100.0 -6.0
vertex 0.611771432346216 102.551111260566 -6.0
endloop
endfacet
facet normal 0.0 0.0 -1.0
outer loop
vertex 0.611771432346216 102.551111260566 -6.0
vertex -3.0 100.0 -6.0
vertex 0.250000000000009 102.700961894323 -6.0
endloop
endfacet
facet normal 0.0 0.0 -1.0
outer loop
vertex 0.250000000000009 102.700961894323 -6.0
vertex -3.0 100.0 -6.0
vertex -0.0606601717798596 102.93933982822 -6.0
endloop
endfacet
facet normal 0.0 0.0 -1.0
outer loop
vertex -0.0606601717798596 102.93933982822 -6.0
vertex -3.0 100.0 -6.0
vertex -0.299038105676686 103.25 -6.0
endloop
endfacet
facet normal 0.0 0.0 -1.0
outer loop
vertex -0.299038105676686 103.25 -6.0
vertex -3.0 100.0 -6.0
vertex -0.448888739433601 103.611771432346 -6.0
endloop
endfacet
facet normal 0.0 0.0 -1.0
outer loop
vertex -0.448888739433601 103.611771432346 -6.0
vertex -3.0 100.0 -6.0
vertex -0.499999999999996 104.0 -6.0
endloop
endfacet
facet normal 0.0 0.0 -1.0
outer loop
vertex 22.0 100.0 -6.0
vertex 1.0 102.5 -6.0
vertex 1.38822856765378 102.551111260566 -6.0
endloop
endfacet
facet normal 0.0 0.0 -1.0
outer loop
vertex 22.0 100.0 -6.0
vertex 1.38822856765378 102.551111260566 -6.0
vertex 1.75 102.700961894323 -6.0
endloop
endfacet
facet normal 0.0 0.0 -1.0
outer loop
vertex 22.0 100.0 -6.0
vertex 1.75 102.700961894323 -6.0
vertex 2.06066017177986 102.93933982822 -6.0
endloop
endfacet
facet normal 0.0 0.0 -1.0
outer loop
vertex 22.0 100.0 -6.0
vertex 2.06066017177986 102.93933982822 -6.0
vertex 2.29903810567669 103.25 -6.0
endloop
endfacet
facet normal 0.0 0.0 -1.0
outer loop
vertex 22.0 100.0 -6.0
vertex 2.29903810567669 103.25 -6.0
vertex 2.44888873943361 103.611771432346 -6.0
endloop
endfacet
facet normal 0.0 0.0 -1.0
outer loop
vertex 22.0 100.0 -6.0
vertex 2.44888873943361 103.611771432346 -6.0
vertex 2.5 104.0 -6.0
endloop
endfacet
facet normal 0.0 0.0 -1.0
outer loop
vertex 22.0 100.0 -6.0
vertex 2.5 104.0 -6.0
vertex 17.25 102.700961894323 -6.0
endloop
endfacet
facet normal 0.0 0.0 -1.0
outer loop
vertex 17.25 102.700961894323 -6.0
vertex 2.5 104.0 -6.0
vertex 16.9393398282202 102.93933982822 -6.0
endloop
endfacet
facet normal 0.0 0.0 -1.0
outer loop
vertex 16.9393398282202 102.93933982822 -6.0
vertex 2.5 104.0 -6.0
vertex 16.7009618943233 103.25 -6.0
endloop
endfacet
facet normal 0.0 0.0 -1.0
outer loop
vertex 16.7009618943233 103.25 -6.0
vertex 2.5 104.0 -6.0
vertex 16.5511112605664 103.611771432346 -6.0
endloop
endfacet
facet normal 0.0 0.0 -1.0
outer loop
vertex 16.5511112605664 103.611771432346 -6.0
vertex 2.5 104.0 -6.0
vertex 16.5 104.0 -6.0
endloop
endfacet
facet normal 0.0 0.0 -1.0
outer loop
vertex 22.0 100.0 -6.0
vertex 17.25 102.700961894323 -6.0
vertex 17.6117714323462 102.551111260566 -6.0
endloop
endfacet
facet normal 0.0 0.0 -1.0
outer loop
vertex 22.0 100.0 -6.0
vertex 17.6117714323462 102.551111260566 -6.0
vertex 18.0 102.5 -6.0
endloop
endfacet
facet normal 0.0 0.0 -1.0
outer loop
vertex 22.0 100.0 -6.0
vertex 18.0 102.5 -6.0
vertex 18.3882285676538 102.551111260566 -6.0
endloop
endfacet
facet normal 0.0 0.0 -1.0
outer loop
vertex 22.0 100.0 -6.0
vertex 18.3882285676538 102.551111260566 -6.0
vertex 18.75 102.700961894323 -6.0
endloop
endfacet
facet normal 0.0 0.0 -1.0
outer loop
vertex 22.0 100.0 -6.0
vertex 18.75 102.700961894323 -6.0
vertex 19.0606601717799 102.93933982822 -6.0
endloop
endfacet
facet normal 0.0 0.0 -1.0
outer loop
vertex 22.0 100.0 -6.0
vertex 19.0606601717799 102.93933982822 -6.0
vertex 19.2990381056767 103.25 -6.0
endloop
endfacet
facet normal 0.0 0.0 -1.0
outer loop
vertex 22.0 100.0 -6.0
vertex 19.2990381056767 103.25 -6.0
vertex 19.4488887394336 103.611771432346 -6.0
endloop
endfacet
facet normal 0.0 0.0 -1.0
outer loop
vertex 22.0 100.0 -6.0
vertex 19.4488887394336 103.611771432346 -6.0
vertex 19.5 104.0 -6.0
endloop
endfacet
facet normal 0.0 0.0 -1.0
outer loop
vertex 22.0 100.0 -6.0
vertex 19.5 104.0 -6.0
vertex 22.0 108.0 -6.0
endloop
endfacet
facet normal -0.86602540378443 -0.500000000000016 5.47705830774717e-16
outer loop
vertex 19.2990381056766 104.75 6.0
vertex 19.4488887394336 104.388228567654 -6.0
vertex 19.4488887394336 104.388228567654 6.0
endloop
endfacet
facet normal -0.965925826289061 -0.258819045102546 1.13510227115784e-15
outer loop
vertex 19.4488887394336 104.388228567654 -6.0
vertex 19.2990381056766 104.75 6.0
vertex 19.2990381056766 104.75 -6.0
endloop
endfacet
facet normal -1.0 -1.42934202726177e-14 4.69965727575501e-16
outer loop
vertex 19.5 104.0 6.0
vertex 19.4488887394336 103.611771432346 -6.0
vertex 19.4488887394336 103.611771432346 6.0
endloop
endfacet
facet normal -0.965925826289072 0.258819045102508 -2.2651922951565e-16
outer loop
vertex 19.4488887394336 103.611771432346 -6.0
vertex 19.5 104.0 6.0
vertex 19.5 104.0 -6.0
endloop
endfacet
facet normal -0.258819045102526 -0.965925826289067 0.0
outer loop
vertex 18.3882285676538 105.448888739434 6.0
vertex 18.0 105.5 -6.0
vertex 18.3882285676538 105.448888739434 -6.0
endloop
endfacet
facet normal -2.81145517207661e-14 -1.0 0.0
outer loop
vertex 18.0 105.5 -6.0
vertex 18.3882285676538 105.448888739434 6.0
vertex 18.0 105.5 6.0
endloop
endfacet
facet normal -0.499999999999972 0.866025403784455 0.0
outer loop
vertex 18.75 102.700961894323 6.0
vertex 19.0606601717799 102.93933982822 -6.0
vertex 18.75 102.700961894323 -6.0
endloop
endfacet
facet normal -0.707106781186552 0.707106781186543 0.0
outer loop
vertex 19.0606601717799 102.93933982822 -6.0
vertex 18.75 102.700961894323 6.0
vertex 19.0606601717799 102.93933982822 6.0
endloop
endfacet
facet normal -0.965925826289062 -0.258819045102546 1.13510227115784e-15
outer loop
vertex 19.4488887394336 104.388228567654 6.0
vertex 19.5 104.0 -6.0
vertex 19.5 104.0 6.0
endloop
endfacet
facet normal -1.0 -1.42934202726177e-14 4.69965727575501e-16
outer loop
vertex 19.5 104.0 -6.0
vertex 19.4488887394336 104.388228567654 6.0
vertex 19.4488887394336 104.388228567654 -6.0
endloop
endfacet
facet normal 0.258819045102495 0.965925826289075 0.0
outer loop
vertex 17.6117714323462 102.551111260566 6.0
vertex 18.0 102.5 -6.0
vertex 17.6117714323462 102.551111260566 -6.0
endloop
endfacet
facet normal -2.7152151852036e-14 1.0 0.0
outer loop
vertex 18.0 102.5 -6.0
vertex 17.6117714323462 102.551111260566 6.0
vertex 18.0 102.5 6.0
endloop
endfacet
facet normal 0.500000000000003 0.866025403784437 0.0
outer loop
vertex 17.25 102.700961894323 6.0
vertex 17.6117714323462 102.551111260566 -6.0
vertex 17.25 102.700961894323 -6.0
endloop
endfacet
facet normal 0.258819045102495 0.965925826289075 0.0
outer loop
vertex 17.6117714323462 102.551111260566 -6.0
vertex 17.25 102.700961894323 6.0
vertex 17.6117714323462 102.551111260566 6.0
endloop
endfacet
facet normal -0.707106781186536 -0.707106781186559 0.0
outer loop
vertex 19.0606601717798 105.06066017178 6.0
vertex 19.2990381056766 104.75 -6.0
vertex 19.2990381056766 104.75 6.0
endloop
endfacet
facet normal -0.86602540378443 -0.500000000000016 5.47705830774717e-16
outer loop
vertex 19.2990381056766 104.75 -6.0
vertex 19.0606601717798 105.06066017178 6.0
vertex 19.0606601717798 105.06066017178 -6.0
endloop
endfacet
facet normal 0.258819045102527 -0.965925826289067 -1.35413728703584e-16
outer loop
vertex 0.611771432346222 105.448888739434 6.0
vertex 0.250000000000001 105.299038105677 -6.0
vertex 0.611771432346219 105.448888739434 -6.0
endloop
endfacet
facet normal 0.499999999999991 -0.866025403784444 2.31216277685284e-16
outer loop
vertex 0.250000000000001 105.299038105677 -6.0
vertex 0.611771432346222 105.448888739434 6.0
vertex 0.250000000000004 105.299038105677 6.0
endloop
endfacet
facet normal 9.26755429147277e-16 -1.0 -1.8417759796328e-17
outer loop
vertex 1.0 105.5 6.0
vertex 0.611771432346219 105.448888739434 -6.0
vertex 1.0 105.5 -6.0
endloop
endfacet
facet normal 0.258819045102527 -0.965925826289067 -1.35413728703584e-16
outer loop
vertex 0.611771432346219 105.448888739434 -6.0
vertex 1.0 105.5 6.0
vertex 0.611771432346222 105.448888739434 6.0
endloop
endfacet
facet normal -0.258819045102525 -0.965925826289067 0.0
outer loop
vertex 1.38822856765379 105.448888739434 6.0
vertex 1.0 105.5 -6.0
vertex 1.38822856765379 105.448888739434 -6.0
endloop
endfacet
facet normal 9.26755429147277e-16 -1.0 -1.8417759796328e-17
outer loop
vertex 1.0 105.5 -6.0
vertex 1.38822856765379 105.448888739434 6.0
vertex 1.0 105.5 6.0
endloop
endfacet
facet normal 0.707106781186532 -0.707106781186563 1.26481079483665e-16
outer loop
vertex -0.0606601717798219 105.06066017178 -6.0
vertex -0.299038105676618 104.75 6.0
vertex -0.299038105676618 104.75 -6.0
endloop
endfacet
facet normal 0.866025403784424 -0.500000000000025 -2.21731167108874e-16
outer loop
vertex -0.299038105676618 104.75 6.0
vertex -0.0606601717798219 105.06066017178 -6.0
vertex -0.0606601717797806 105.06066017178 6.0
endloop
endfacet
facet normal 0.499999999999991 -0.866025403784444 2.31216277685284e-16
outer loop
vertex 0.250000000000004 105.299038105677 6.0
vertex -0.0606601717798219 105.06066017178 -6.0
vertex 0.250000000000001 105.299038105677 -6.0
endloop
endfacet
facet normal 0.707106781186532 -0.707106781186563 1.26481079483665e-16
outer loop
vertex -0.0606601717798219 105.06066017178 -6.0
vertex 0.250000000000004 105.299038105677 6.0
vertex -0.0606601717797806 105.06066017178 6.0
endloop
endfacet
facet normal 0.866025403784424 -0.500000000000025 -2.21731167108874e-16
outer loop
vertex -0.299038105676618 104.75 -6.0
vertex -0.448888739433599 104.388228567654 6.0
vertex -0.448888739433599 104.388228567654 -6.0
endloop
endfacet
facet normal 0.965925826289061 -0.258819045102547 1.17552150980126e-16
outer loop
vertex -0.448888739433599 104.388228567654 6.0
vertex -0.299038105676618 104.75 -6.0
vertex -0.299038105676618 104.75 6.0
endloop
endfacet
facet normal -0.707106781186529 -0.707106781186566 0.0
outer loop
vertex 2.06066017177982 105.06066017178 6.0
vertex 2.29903810567665 104.75 -6.0
vertex 2.29903810567665 104.75 6.0
endloop
endfacet
facet normal -0.866025403784434 -0.500000000000008 0.0
outer loop
vertex 2.29903810567665 104.75 -6.0
vertex 2.06066017177982 105.06066017178 6.0
vertex 2.06066017177982 105.06066017178 -6.0
endloop
endfacet
facet normal -0.866025403784449 0.499999999999982 -7.16773200826318e-16
outer loop
vertex 2.29903810567667 103.25 6.0
vertex 2.06066017177986 102.93933982822 -6.0
vertex 2.06066017177983 102.93933982822 6.0
endloop
endfacet
facet normal -0.707106781186546 0.707106781186549 6.98653849287964e-16
outer loop
vertex 2.06066017177986 102.93933982822 -6.0
vertex 2.29903810567667 103.25 6.0
vertex 2.29903810567669 103.25 -6.0
endloop
endfacet
facet normal 0.965925826289079 0.258819045102481 1.17430712807625e-16
outer loop
vertex -0.448888739433601 103.611771432346 -6.0
vertex -0.299038105676686 103.25 6.0
vertex -0.299038105676686 103.25 -6.0
endloop
endfacet
facet normal 0.866025403784449 0.499999999999982 -1.62631616443296e-15
outer loop
vertex -0.299038105676686 103.25 6.0
vertex -0.448888739433601 103.611771432346 -6.0
vertex -0.448888739433601 103.611771432346 6.0
endloop
endfacet
facet normal 0.965925826289061 -0.258819045102547 1.17552150980126e-16
outer loop
vertex -0.448888739433599 104.388228567654 -6.0
vertex -0.499999999999999 104.0 6.0
vertex -0.499999999999996 104.0 -6.0
endloop
endfacet
facet normal 1.0 -3.57335506815441e-15 2.34982863787751e-16
outer loop
vertex -0.499999999999999 104.0 6.0
vertex -0.448888739433599 104.388228567654 -6.0
vertex -0.448888739433599 104.388228567654 6.0
endloop
endfacet
facet normal 0.866025403784449 0.499999999999982 -1.62631616443296e-15
outer loop
vertex -0.299038105676686 103.25 -6.0
vertex -0.0606601717798108 102.93933982822 6.0
vertex -0.0606601717798596 102.93933982822 -6.0
endloop
endfacet
facet normal 0.707106781186513 0.707106781186582 -2.87423244838872e-15
outer loop
vertex -0.0606601717798108 102.93933982822 6.0
vertex -0.299038105676686 103.25 -6.0
vertex -0.299038105676686 103.25 6.0
endloop
endfacet
facet normal -0.965925826289075 0.258819045102495 -1.08438509542162e-15
outer loop
vertex 2.44888873943361 103.611771432346 6.0
vertex 2.29903810567669 103.25 -6.0
vertex 2.29903810567667 103.25 6.0
endloop
endfacet
facet normal -0.866025403784449 0.499999999999982 -7.16773200826321e-16
outer loop
vertex 2.29903810567669 103.25 -6.0
vertex 2.44888873943361 103.611771432346 6.0
vertex 2.44888873943361 103.611771432346 -6.0
endloop
endfacet
facet normal -0.965925826289068 -0.258819045102523 -1.17430712807625e-16
outer loop
vertex 2.44888873943359 104.388228567654 6.0
vertex 2.5 104.0 -6.0
vertex 2.5 104.0 6.0
endloop
endfacet
facet normal -1.0 -1.78489531209808e-14 -4.69844289403003e-16
outer loop
vertex 2.5 104.0 -6.0
vertex 2.44888873943359 104.388228567654 6.0
vertex 2.44888873943359 104.388228567654 -6.0
endloop
endfacet
facet normal -0.707106781186529 -0.707106781186566 0.0
outer loop
vertex 2.06066017177982 105.06066017178 6.0
vertex 1.75000000000001 105.299038105677 -6.0
vertex 2.06066017177982 105.06066017178 -6.0
endloop
endfacet
facet normal -0.500000000000002 -0.866025403784437 0.0
outer loop
vertex 1.75000000000001 105.299038105677 -6.0
vertex 2.06066017177982 105.06066017178 6.0
vertex 1.75000000000001 105.299038105677 6.0
endloop
endfacet
facet normal 1.0 -3.57335506815441e-15 2.34982863787751e-16
outer loop
vertex -0.499999999999996 104.0 -6.0
vertex -0.448888739433601 103.611771432346 6.0
vertex -0.448888739433601 103.611771432346 -6.0
endloop
endfacet
facet normal 0.965925826289079 0.258819045102481 1.17430712807625e-16
outer loop
vertex -0.448888739433601 103.611771432346 6.0
vertex -0.499999999999996 104.0 -6.0
vertex -0.499999999999999 104.0 6.0
endloop
endfacet
facet normal 0.707106781186513 0.707106781186582 -2.87423244838872e-15
outer loop
vertex -0.0606601717798108 102.93933982822 6.0
vertex 0.250000000000009 102.700961894323 -6.0
vertex -0.0606601717798596 102.93933982822 -6.0
endloop
endfacet
facet normal 0.500000000000022 0.866025403784426 -2.2344141522985e-15
outer loop
vertex 0.250000000000009 102.700961894323 -6.0
vertex -0.0606601717798108 102.93933982822 6.0
vertex 0.250000000000009 102.700961894323 6.0
endloop
endfacet
facet normal -1.0 -1.78489531209808e-14 -4.69844289403003e-16
outer loop
vertex 2.5 104.0 6.0
vertex 2.44888873943361 103.611771432346 -6.0
vertex 2.44888873943361 103.611771432346 6.0
endloop
endfacet
facet normal -0.965925826289075 0.258819045102495 -1.08438509542162e-15
outer loop
vertex 2.44888873943361 103.611771432346 -6.0
vertex 2.5 104.0 6.0
vertex 2.5 104.0 -6.0
endloop
endfacet
facet normal -0.866025403784434 -0.500000000000008 0.0
outer loop
vertex 2.29903810567665 104.75 6.0
vertex 2.44888873943359 104.388228567654 -6.0
vertex 2.44888873943359 104.388228567654 6.0
endloop
endfacet
facet normal -0.965925826289068 -0.258819045102523 -1.17430712807625e-16
outer loop
vertex 2.44888873943359 104.388228567654 -6.0
vertex 2.29903810567665 104.75 6.0
vertex 2.29903810567665 104.75 -6.0
endloop
endfacet
facet normal -0.500000000000002 -0.866025403784437 0.0
outer loop
vertex 1.75000000000001 105.299038105677 6.0
vertex 1.38822856765379 105.448888739434 -6.0
vertex 1.75000000000001 105.299038105677 -6.0
endloop
endfacet
facet normal -0.258819045102525 -0.965925826289067 0.0
outer loop
vertex 1.38822856765379 105.448888739434 -6.0
vertex 1.75000000000001 105.299038105677 6.0
vertex 1.38822856765379 105.448888739434 6.0
endloop
endfacet
facet normal 1.39013314372092e-14 1.0 -9.77662282511544e-16
outer loop
vertex 1.0 102.5 6.0
vertex 1.38822856765378 102.551111260566 -6.0
vertex 1.0 102.5 -6.0
endloop
endfacet
facet normal -0.258819045102552 0.96592582628906 -5.09982428570159e-17
outer loop
vertex 1.38822856765378 102.551111260566 -6.0
vertex 1.0 102.5 6.0
vertex 1.38822856765378 102.551111260566 6.0
endloop
endfacet
facet normal 0.258819045102582 0.965925826289052 -1.96416015085431e-15
outer loop
vertex 0.611771432346222 102.551111260566 6.0
vertex 1.0 102.5 -6.0
vertex 0.611771432346216 102.551111260566 -6.0
endloop
endfacet
facet normal 1.39013314372092e-14 1.0 -9.77662282511544e-16
outer loop
vertex 1.0 102.5 -6.0
vertex 0.611771432346222 102.551111260566 6.0
vertex 1.0 102.5 6.0
endloop
endfacet
facet normal 0.500000000000022 0.866025403784426 -2.2344141522985e-15
outer loop
vertex 0.250000000000009 102.700961894323 6.0
vertex 0.611771432346216 102.551111260566 -6.0
vertex 0.250000000000009 102.700961894323 -6.0
endloop
endfacet
facet normal 0.258819045102582 0.965925826289052 -1.96416015085431e-15
outer loop
vertex 0.611771432346216 102.551111260566 -6.0
vertex 0.250000000000009 102.700961894323 6.0
vertex 0.611771432346222 102.551111260566 6.0
endloop
endfacet
facet normal -0.258819045102552 0.96592582628906 -5.09982428570159e-17
outer loop
vertex 1.38822856765378 102.551111260566 6.0
vertex 1.75 102.700961894323 -6.0
vertex 1.38822856765378 102.551111260566 -6.0
endloop
endfacet
facet normal -0.50000000000003 0.866025403784421 6.32457288431023e-16
outer loop
vertex 1.75 102.700961894323 -6.0
vertex 1.38822856765378 102.551111260566 6.0
vertex 1.75 102.700961894323 6.0
endloop
endfacet
facet normal -0.50000000000003 0.866025403784421 6.32457288431023e-16
outer loop
vertex 1.75 102.700961894323 6.0
vertex 2.06066017177986 102.93933982822 -6.0
vertex 1.75 102.700961894323 -6.0
endloop
endfacet
facet normal -0.707106781186546 0.707106781186549 6.98653849287964e-16
outer loop
vertex 2.06066017177986 102.93933982822 -6.0
vertex 1.75 102.700961894323 6.0
vertex 2.06066017177983 102.93933982822 6.0
endloop
endfacet
endsolid connections
