solid YarnHolderPalo
facet normal 0.130526192220059 0.991444861373809 0.0
outer loop
vertex -10.7485441637347 -7.46326006913806 4.0
vertex -10.2826698825502 -7.52459358181774 0.0
vertex -10.7485441637347 -7.46326006913806 0.0
endloop
endfacet
facet normal 0.130526192220059 0.991444861373809 0.0
outer loop
vertex -10.2826698825502 -7.52459358181774 0.0
vertex -10.7485441637347 -7.46326006913806 4.0
vertex -10.2826698825502 -7.52459358181774 4.0
endloop
endfacet
facet normal -0.793353340291249 -0.608761429008703 0.0
outer loop
vertex 0.190122323585627 -4.45180137568197 4.0
vertex 0.476175844261818 -4.82459358181775 0.0
vertex 0.476175844261818 -4.82459358181775 4.0
endloop
endfacet
facet normal -0.793353340291249 -0.608761429008703 0.0
outer loop
vertex 0.476175844261818 -4.82459358181775 0.0
vertex 0.190122323585627 -4.45180137568197 4.0
vertex 0.190122323585627 -4.45180137568197 0.0
endloop
endfacet
facet normal 0.382683432365091 -0.923879532511286 -2.67680889633564e-16
outer loop
vertex 0.41733011744984 -8.32266979317106 4.0
vertex -0.3062127472426 -8.62237106068495 0.0
vertex 0.41733011744984 -8.32266979317106 0.0
endloop
endfacet
facet normal 0.382683432365091 -0.923879532511286 -2.67680889633564e-16
outer loop
vertex -0.3062127472426 -8.62237106068495 0.0
vertex 0.41733011744984 -8.32266979317106 4.0
vertex -0.306212747242595 -8.62237106068495 4.0
endloop
endfacet
facet normal -0.793353340291221 -0.60876142900874 0.0
outer loop
vertex -9.00987767641437 -4.45180137568197 4.0
vertex -8.72382415573816 -4.82459358181775 0.0
vertex -8.72382415573816 -4.82459358181775 4.0
endloop
endfacet
facet normal -0.793353340291221 -0.60876142900874 0.0
outer loop
vertex -8.72382415573816 -4.82459358181775 0.0
vertex -9.00987767641437 -4.45180137568197 4.0
vertex -9.00987767641437 -4.45180137568197 0.0
endloop
endfacet
facet normal 0.130526192220052 0.99144486137381 9.24422286221933e-17
outer loop
vertex -1.08266988255016 -2.72459358181776 4.0
vertex -0.306212747242595 -2.82681610295055 0.0
vertex -1.08266988255016 -2.72459358181776 0.0
endloop
endfacet
facet normal 0.130526192220052 0.99144486137381 9.24422286221933e-17
outer loop
vertex -0.306212747242595 -2.82681610295055 0.0
vertex -1.08266988255016 -2.72459358181776 4.0
vertex -0.3062127472426 -2.82681610295055 4.0
endloop
endfacet
facet normal 0.793353340291223 0.608761429008737 0.0
outer loop
vertex -11.8415156093622 -6.62459358181775 0.0
vertex -11.5554620886859 -6.99738578795353 4.0
vertex -11.5554620886859 -6.99738578795353 0.0
endloop
endfacet
facet normal 0.793353340291223 0.608761429008737 0.0
outer loop
vertex -11.5554620886859 -6.99738578795353 4.0
vertex -11.8415156093622 -6.62459358181775 0.0
vertex -11.8415156093622 -6.62459358181775 4.0
endloop
endfacet
facet normal -0.608761429008725 0.793353340291232 0.0
outer loop
vertex -12.4039902261098 -3.60327323825811 4.0
vertex -11.7826698825502 -3.12651737046444 0.0
vertex -12.4039902261098 -3.60327323825811 0.0
endloop
endfacet
facet normal -0.608761429008725 0.793353340291232 0.0
outer loop
vertex -11.7826698825502 -3.12651737046444 0.0
vertex -12.4039902261098 -3.60327323825811 4.0
vertex -11.7826698825502 -3.12651737046444 4.0
endloop
endfacet
facet normal -0.923879532511295 -0.382683432365071 0.0
outer loop
vertex -8.72382415573816 -4.82459358181775 4.0
vertex -8.54400339522983 -5.25871930063321 0.0
vertex -8.54400339522983 -5.25871930063321 4.0
endloop
endfacet
facet normal -0.923879532511295 -0.382683432365071 0.0
outer loop
vertex -8.54400339522983 -5.25871930063321 0.0
vertex -8.72382415573816 -4.82459358181775 4.0
vertex -8.72382415573816 -4.82459358181775 0.0
endloop
endfacet
facet normal -0.991444861373811 -0.13052619222005 0.0
outer loop
vertex -8.54400339522983 -5.25871930063321 4.0
vertex -8.48266988255016 -5.72459358181775 0.0
vertex -8.48266988255016 -5.72459358181775 4.0
endloop
endfacet
facet normal -0.991444861373811 -0.13052619222005 0.0
outer loop
vertex -8.48266988255016 -5.72459358181775 0.0
vertex -8.54400339522983 -5.25871930063321 4.0
vertex -8.54400339522983 -5.25871930063321 0.0
endloop
endfacet
facet normal 0.382683432365085 0.923879532511289 0.0
outer loop
vertex -11.1826698825502 -7.28343930862973 4.0
vertex -10.7485441637347 -7.46326006913806 0.0
vertex -11.1826698825502 -7.28343930862973 0.0
endloop
endfacet
facet normal 0.382683432365085 0.923879532511289 0.0
outer loop
vertex -10.7485441637347 -7.46326006913806 0.0
vertex -11.1826698825502 -7.28343930862973 4.0
vertex -10.7485441637347 -7.46326006913806 4.0
endloop
endfacet
facet normal 0.923879532511294 0.382683432365072 0.0
outer loop
vertex -12.0213363698705 -6.19046786300228 0.0
vertex -11.8415156093622 -6.62459358181775 4.0
vertex -11.8415156093622 -6.62459358181775 0.0
endloop
endfacet
facet normal 0.923879532511294 0.382683432365072 0.0
outer loop
vertex -11.8415156093622 -6.62459358181775 4.0
vertex -12.0213363698705 -6.19046786300228 0.0
vertex -12.0213363698705 -6.19046786300228 4.0
endloop
endfacet
facet normal -0.99144486137381 0.130526192220052 0.0
outer loop
vertex -8.48266988255016 -5.72459358181775 4.0
vertex -8.54400339522983 -6.19046786300228 0.0
vertex -8.54400339522983 -6.19046786300228 4.0
endloop
endfacet
facet normal -0.99144486137381 0.130526192220052 0.0
outer loop
vertex -8.54400339522983 -6.19046786300228 0.0
vertex -8.48266988255016 -5.72459358181775 4.0
vertex -8.48266988255016 -5.72459358181775 0.0
endloop
endfacet
facet normal -0.608761429008719 0.793353340291237 0.0
outer loop
vertex -0.182669882550159 -7.28343930862973 4.0
vertex 0.190122323585627 -6.99738578795353 0.0
vertex -0.182669882550159 -7.28343930862973 0.0
endloop
endfacet
facet normal -0.608761429008719 0.793353340291237 0.0
outer loop
vertex 0.190122323585627 -6.99738578795353 0.0
vertex -0.182669882550159 -7.28343930862973 4.0
vertex 0.190122323585627 -6.99738578795353 4.0
endloop
endfacet
facet normal 0.382683432365091 0.923879532511286 0.0
outer loop
vertex -1.98266988255016 -7.28343930862973 4.0
vertex -1.5485441637347 -7.46326006913807 0.0
vertex -1.98266988255016 -7.28343930862973 0.0
endloop
endfacet
facet normal 0.382683432365091 0.923879532511286 0.0
outer loop
vertex -1.5485441637347 -7.46326006913807 0.0
vertex -1.98266988255016 -7.28343930862973 4.0
vertex -1.5485441637347 -7.46326006913807 4.0
endloop
endfacet
facet normal -0.130526192220055 -0.99144486137381 0.0
outer loop
vertex -10.2826698825502 -8.72459358181774 4.0
vertex -11.0591270178577 -8.62237106068495 0.0
vertex -10.2826698825502 -8.72459358181774 0.0
endloop
endfacet
facet normal -0.130526192220055 -0.99144486137381 0.0
outer loop
vertex -11.0591270178577 -8.62237106068495 0.0
vertex -10.2826698825502 -8.72459358181774 4.0
vertex -11.0591270178577 -8.62237106068495 4.0
endloop
endfacet
facet normal 0.38268343236508 -0.923879532511291 0.0
outer loop
vertex -10.7485441637347 -3.98592709449744 4.0
vertex -11.1826698825502 -4.16574785500576 0.0
vertex -10.7485441637347 -3.98592709449744 0.0
endloop
endfacet
facet normal 0.38268343236508 -0.923879532511291 0.0
outer loop
vertex -11.1826698825502 -4.16574785500576 0.0
vertex -10.7485441637347 -3.98592709449744 4.0
vertex -11.1826698825502 -4.16574785500576 4.0
endloop
endfacet
facet normal 0.130526192220058 -0.99144486137381 0.0
outer loop
vertex -10.2826698825502 -3.92459358181776 4.0
vertex -10.7485441637347 -3.98592709449744 0.0
vertex -10.2826698825502 -3.92459358181776 0.0
endloop
endfacet
facet normal 0.130526192220058 -0.99144486137381 0.0
outer loop
vertex -10.7485441637347 -3.98592709449744 0.0
vertex -10.2826698825502 -3.92459358181776 4.0
vertex -10.7485441637347 -3.98592709449744 4.0
endloop
endfacet
facet normal 0.991444861373811 0.130526192220046 0.0
outer loop
vertex -12.0826698825502 -5.72459358181775 0.0
vertex -12.0213363698705 -6.19046786300228 4.0
vertex -12.0213363698705 -6.19046786300228 0.0
endloop
endfacet
facet normal 0.991444861373811 0.130526192220046 0.0
outer loop
vertex -12.0213363698705 -6.19046786300228 4.0
vertex -12.0826698825502 -5.72459358181775 0.0
vertex -12.0826698825502 -5.72459358181775 4.0
endloop
endfacet
facet normal 0.793353340291224 -0.608761429008735 0.0
outer loop
vertex -2.35546208868594 -4.45180137568196 0.0
vertex -2.64151560936216 -4.82459358181775 4.0
vertex -2.64151560936216 -4.82459358181775 0.0
endloop
endfacet
facet normal 0.793353340291224 -0.608761429008735 0.0
outer loop
vertex -2.64151560936216 -4.82459358181775 4.0
vertex -2.35546208868594 -4.45180137568196 0.0
vertex -2.35546208868594 -4.45180137568196 4.0
endloop
endfacet
facet normal 0.793353340291234 -0.608761429008723 0.0
outer loop
vertex -11.5554620886859 -4.45180137568197 0.0
vertex -11.8415156093621 -4.82459358181775 4.0
vertex -11.8415156093621 -4.82459358181775 0.0
endloop
endfacet
facet normal 0.793353340291234 -0.608761429008723 0.0
outer loop
vertex -11.8415156093621 -4.82459358181775 4.0
vertex -11.5554620886859 -4.45180137568197 0.0
vertex -11.5554620886859 -4.45180137568197 4.0
endloop
endfacet
facet normal -0.382683432365087 -0.923879532511288 0.0
outer loop
vertex -11.0591270178577 -8.62237106068495 4.0
vertex -11.7826698825502 -8.32266979317106 0.0
vertex -11.0591270178577 -8.62237106068495 0.0
endloop
endfacet
facet normal -0.382683432365087 -0.923879532511288 0.0
outer loop
vertex -11.7826698825502 -8.32266979317106 0.0
vertex -11.0591270178577 -8.62237106068495 4.0
vertex -11.7826698825502 -8.32266979317106 4.0
endloop
endfacet
facet normal -0.99144486137381 -0.130526192220056 0.0
outer loop
vertex -13.2826698825501 -5.72459358181775 4.0
vertex -13.1804473614173 -6.50105071712531 0.0
vertex -13.1804473614173 -6.50105071712531 4.0
endloop
endfacet
facet normal -0.99144486137381 -0.130526192220056 0.0
outer loop
vertex -13.1804473614173 -6.50105071712531 0.0
vertex -13.2826698825501 -5.72459358181775 4.0
vertex -13.2826698825501 -5.72459358181775 0.0
endloop
endfacet
facet normal 0.130526192220053 0.99144486137381 0.0
outer loop
vertex -1.5485441637347 -7.46326006913807 4.0
vertex -1.08266988255016 -7.52459358181774 0.0
vertex -1.5485441637347 -7.46326006913807 0.0
endloop
endfacet
facet normal 0.130526192220053 0.99144486137381 0.0
outer loop
vertex -1.08266988255016 -7.52459358181774 0.0
vertex -1.5485441637347 -7.46326006913807 4.0
vertex -1.08266988255016 -7.52459358181774 4.0
endloop
endfacet
facet normal 0.13052619222005 -0.991444861373811 -9.2442228622192e-17
outer loop
vertex -0.306212747242595 -8.62237106068495 4.0
vertex -1.08266988255016 -8.72459358181774 0.0
vertex -0.3062127472426 -8.62237106068495 0.0
endloop
endfacet
facet normal 0.13052619222005 -0.991444861373811 -9.2442228622192e-17
outer loop
vertex -1.08266988255016 -8.72459358181774 0.0
vertex -0.306212747242595 -8.62237106068495 4.0
vertex -1.08266988255016 -8.72459358181774 4.0
endloop
endfacet
facet normal -0.130526192220053 0.99144486137381 0.0
outer loop
vertex -10.2826698825502 -7.52459358181774 4.0
vertex -9.81679560136562 -7.46326006913807 0.0
vertex -10.2826698825502 -7.52459358181774 0.0
endloop
endfacet
facet normal -0.130526192220053 0.99144486137381 0.0
outer loop
vertex -9.81679560136562 -7.46326006913807 0.0
vertex -10.2826698825502 -7.52459358181774 4.0
vertex -9.81679560136562 -7.46326006913807 4.0
endloop
endfacet
facet normal -0.38268343236508 -0.923879532511291 0.0
outer loop
vertex -9.38266988255016 -4.16574785500576 4.0
vertex -9.81679560136562 -3.98592709449744 0.0
vertex -9.38266988255016 -4.16574785500576 0.0
endloop
endfacet
facet normal -0.38268343236508 -0.923879532511291 0.0
outer loop
vertex -9.81679560136562 -3.98592709449744 0.0
vertex -9.38266988255016 -4.16574785500576 4.0
vertex -9.81679560136562 -3.98592709449744 4.0
endloop
endfacet
facet normal 0.923879532511292 -0.382683432365078 0.0
outer loop
vertex -2.64151560936216 -4.82459358181775 0.0
vertex -2.82133636987048 -5.2587193006332 4.0
vertex -2.82133636987048 -5.2587193006332 0.0
endloop
endfacet
facet normal 0.923879532511292 -0.382683432365078 0.0
outer loop
vertex -2.82133636987048 -5.2587193006332 4.0
vertex -2.64151560936216 -4.82459358181775 0.0
vertex -2.64151560936216 -4.82459358181775 4.0
endloop
endfacet
facet normal 0.923879532511294 0.382683432365072 0.0
outer loop
vertex -2.82133636987048 -6.19046786300228 0.0
vertex -2.64151560936216 -6.62459358181775 4.0
vertex -2.64151560936216 -6.62459358181775 0.0
endloop
endfacet
facet normal 0.923879532511294 0.382683432365072 0.0
outer loop
vertex -2.64151560936216 -6.62459358181775 4.0
vertex -2.82133636987048 -6.19046786300228 0.0
vertex -2.82133636987048 -6.19046786300228 4.0
endloop
endfacet
facet normal 0.608761429008711 -0.793353340291242 0.0
outer loop
vertex -1.98266988255016 -4.16574785500576 4.0
vertex -2.35546208868594 -4.45180137568196 0.0
vertex -1.98266988255016 -4.16574785500576 0.0
endloop
endfacet
facet normal 0.608761429008711 -0.793353340291242 0.0
outer loop
vertex -2.35546208868594 -4.45180137568196 0.0
vertex -1.98266988255016 -4.16574785500576 4.0
vertex -2.35546208868594 -4.45180137568196 4.0
endloop
endfacet
facet normal -0.130526192220058 -0.99144486137381 0.0
outer loop
vertex -0.61679560136562 -3.98592709449744 4.0
vertex -1.08266988255016 -3.92459358181776 0.0
vertex -0.61679560136562 -3.98592709449744 0.0
endloop
endfacet
facet normal -0.130526192220058 -0.99144486137381 0.0
outer loop
vertex -1.08266988255016 -3.92459358181776 0.0
vertex -0.61679560136562 -3.98592709449744 4.0
vertex -1.08266988255016 -3.92459358181776 4.0
endloop
endfacet
facet normal -0.923879532511277 0.382683432365113 0.0
outer loop
vertex 0.655996604770166 -6.19046786300228 4.0
vertex 0.476175844261818 -6.62459358181775 0.0
vertex 0.476175844261818 -6.62459358181775 4.0
endloop
endfacet
facet normal -0.923879532511277 0.382683432365113 0.0
outer loop
vertex 0.476175844261818 -6.62459358181775 0.0
vertex 0.655996604770166 -6.19046786300228 4.0
vertex 0.655996604770166 -6.19046786300228 0.0
endloop
endfacet
facet normal 0.608761429008718 -0.793353340291237 0.0
outer loop
vertex -11.1826698825502 -4.16574785500576 4.0
vertex -11.5554620886859 -4.45180137568197 0.0
vertex -11.1826698825502 -4.16574785500576 0.0
endloop
endfacet
facet normal 0.608761429008718 -0.793353340291237 0.0
outer loop
vertex -11.5554620886859 -4.45180137568197 0.0
vertex -11.1826698825502 -4.16574785500576 4.0
vertex -11.5554620886859 -4.45180137568197 4.0
endloop
endfacet
facet normal -0.608761429008723 -0.793353340291233 0.0
outer loop
vertex -11.7826698825502 -8.32266979317106 4.0
vertex -12.4039902261098 -7.84591392537739 0.0
vertex -11.7826698825502 -8.32266979317106 0.0
endloop
endfacet
facet normal -0.608761429008723 -0.793353340291233 0.0
outer loop
vertex -12.4039902261098 -7.84591392537739 0.0
vertex -11.7826698825502 -8.32266979317106 4.0
vertex -12.4039902261098 -7.84591392537739 4.0
endloop
endfacet
facet normal -0.923879532511287 -0.382683432365089 0.0
outer loop
vertex -13.1804473614173 -6.50105071712531 4.0
vertex -12.8807460939035 -7.22459358181774 0.0
vertex -12.8807460939035 -7.22459358181774 4.0
endloop
endfacet
facet normal -0.923879532511287 -0.382683432365089 0.0
outer loop
vertex -12.8807460939035 -7.22459358181774 0.0
vertex -13.1804473614173 -6.50105071712531 4.0
vertex -13.1804473614173 -6.50105071712531 0.0
endloop
endfacet
facet normal -0.99144486137381 0.130526192220056 0.0
outer loop
vertex -13.1804473614173 -4.94813644651019 4.0
vertex -13.2826698825501 -5.72459358181775 0.0
vertex -13.2826698825501 -5.72459358181775 4.0
endloop
endfacet
facet normal -0.99144486137381 0.130526192220056 0.0
outer loop
vertex -13.2826698825501 -5.72459358181775 0.0
vertex -13.1804473614173 -4.94813644651019 4.0
vertex -13.1804473614173 -4.94813644651019 0.0
endloop
endfacet
facet normal -0.923879532511287 0.382683432365089 0.0
outer loop
vertex -12.8807460939035 -4.22459358181775 4.0
vertex -13.1804473614173 -4.94813644651019 0.0
vertex -13.1804473614173 -4.94813644651019 4.0
endloop
endfacet
facet normal -0.923879532511287 0.382683432365089 0.0
outer loop
vertex -13.1804473614173 -4.94813644651019 0.0
vertex -12.8807460939035 -4.22459358181775 4.0
vertex -12.8807460939035 -4.22459358181775 0.0
endloop
endfacet
facet normal 0.991444861373811 0.130526192220046 0.0
outer loop
vertex -2.88266988255016 -5.72459358181775 0.0
vertex -2.82133636987048 -6.19046786300228 4.0
vertex -2.82133636987048 -6.19046786300228 0.0
endloop
endfacet
facet normal 0.991444861373811 0.130526192220046 0.0
outer loop
vertex -2.82133636987048 -6.19046786300228 4.0
vertex -2.88266988255016 -5.72459358181775 0.0
vertex -2.88266988255016 -5.72459358181775 4.0
endloop
endfacet
facet normal -2.75886323669775e-16 1.0 5.00172357836208e-16
outer loop
vertex -10.2826698825502 -2.72459358181776 4.0
vertex -1.08266988255016 -2.72459358181776 0.0
vertex -10.2826698825502 -2.72459358181776 0.0
endloop
endfacet
facet normal -2.75886323669775e-16 1.0 5.00172357836208e-16
outer loop
vertex -1.08266988255016 -2.72459358181776 0.0
vertex -10.2826698825502 -2.72459358181776 4.0
vertex -5.88972511863217 -2.72459358181776 3.22725933896874
endloop
endfacet
facet normal -2.75886323669775e-16 1.0 5.00172357836208e-16
outer loop
vertex -1.08266988255016 -2.72459358181776 0.0
vertex -5.88972511863217 -2.72459358181776 3.22725933896874
vertex -5.68266988255016 -2.72459358181776 3.2
endloop
endfacet
facet normal -2.75886323669775e-16 1.0 5.00172357836208e-16
outer loop
vertex -5.88972511863217 -2.72459358181776 3.22725933896874
vertex -10.2826698825502 -2.72459358181776 4.0
vertex -6.08266988255016 -2.72459358181776 3.30717967697245
endloop
endfacet
facet normal -2.75886323669775e-16 1.0 5.00172357836208e-16
outer loop
vertex -6.08266988255016 -2.72459358181776 3.30717967697245
vertex -10.2826698825502 -2.72459358181776 4.0
vertex -6.24835530749939 -2.72459358181776 3.43431457505076
endloop
endfacet
facet normal -2.75886323669775e-16 1.0 5.00172357836208e-16
outer loop
vertex -6.24835530749939 -2.72459358181776 3.43431457505076
vertex -10.2826698825502 -2.72459358181776 4.0
vertex -6.37549020557771 -2.72459358181776 3.6
endloop
endfacet
facet normal -2.75886323669775e-16 1.0 5.00172357836208e-16
outer loop
vertex -6.37549020557771 -2.72459358181776 3.6
vertex -10.2826698825502 -2.72459358181776 4.0
vertex -6.45541054358141 -2.72459358181776 3.79294476391798
endloop
endfacet
facet normal -2.75886323669775e-16 1.0 5.00172357836208e-16
outer loop
vertex -6.45541054358141 -2.72459358181776 3.79294476391798
vertex -10.2826698825502 -2.72459358181776 4.0
vertex -6.48266988255016 -2.72459358181776 4.0
endloop
endfacet
facet normal -2.75886323669775e-16 1.0 5.00172357836208e-16
outer loop
vertex -1.08266988255016 -2.72459358181776 0.0
vertex -5.47561464646814 -2.72459358181776 3.22725933896874
vertex -1.08266988255016 -2.72459358181776 4.0
endloop
endfacet
facet normal -2.75886323669775e-16 1.0 5.00172357836208e-16
outer loop
vertex -5.47561464646814 -2.72459358181776 3.22725933896874
vertex -1.08266988255016 -2.72459358181776 0.0
vertex -5.68266988255016 -2.72459358181776 3.2
endloop
endfacet
facet normal -2.75886323669775e-16 1.0 5.00172357836208e-16
outer loop
vertex -1.08266988255016 -2.72459358181776 4.0
vertex -5.47561464646814 -2.72459358181776 3.22725933896874
vertex -5.28266988255016 -2.72459358181776 3.30717967697245
endloop
endfacet
facet normal -2.75886323669775e-16 1.0 5.00172357836208e-16
outer loop
vertex -1.08266988255016 -2.72459358181776 4.0
vertex -5.28266988255016 -2.72459358181776 3.30717967697245
vertex -5.11698445760092 -2.72459358181776 3.43431457505076
endloop
endfacet
facet normal -2.75886323669775e-16 1.0 5.00172357836208e-16
outer loop
vertex -1.08266988255016 -2.72459358181776 4.0
vertex -5.11698445760092 -2.72459358181776 3.43431457505076
vertex -4.98984955952261 -2.72459358181776 3.6
endloop
endfacet
facet normal -2.75886323669775e-16 1.0 5.00172357836208e-16
outer loop
vertex -1.08266988255016 -2.72459358181776 4.0
vertex -4.98984955952261 -2.72459358181776 3.6
vertex -4.9099292215189 -2.72459358181776 3.79294476391798
endloop
endfacet
facet normal -2.75886323669775e-16 1.0 5.00172357836208e-16
outer loop
vertex -1.08266988255016 -2.72459358181776 4.0
vertex -4.9099292215189 -2.72459358181776 3.79294476391798
vertex -4.88266988255016 -2.72459358181776 4.0
endloop
endfacet
facet normal -0.38268343236508 -0.923879532511291 0.0
outer loop
vertex -0.182669882550159 -4.16574785500576 4.0
vertex -0.61679560136562 -3.98592709449744 0.0
vertex -0.182669882550159 -4.16574785500576 0.0
endloop
endfacet
facet normal -0.38268343236508 -0.923879532511291 0.0
outer loop
vertex -0.61679560136562 -3.98592709449744 0.0
vertex -0.182669882550159 -4.16574785500576 4.0
vertex -0.61679560136562 -3.98592709449744 4.0
endloop
endfacet
facet normal -0.608761429008719 0.793353340291237 0.0
outer loop
vertex -9.38266988255016 -7.28343930862973 4.0
vertex -9.00987767641437 -6.99738578795353 0.0
vertex -9.38266988255016 -7.28343930862973 0.0
endloop
endfacet
facet normal -0.608761429008719 0.793353340291237 0.0
outer loop
vertex -9.00987767641437 -6.99738578795353 0.0
vertex -9.38266988255016 -7.28343930862973 4.0
vertex -9.00987767641437 -6.99738578795353 4.0
endloop
endfacet
facet normal 0.608761429008719 0.793353340291237 0.0
outer loop
vertex -2.35546208868594 -6.99738578795353 4.0
vertex -1.98266988255016 -7.28343930862973 0.0
vertex -2.35546208868594 -6.99738578795353 0.0
endloop
endfacet
facet normal 0.608761429008719 0.793353340291237 0.0
outer loop
vertex -1.98266988255016 -7.28343930862973 0.0
vertex -2.35546208868594 -6.99738578795353 4.0
vertex -1.98266988255016 -7.28343930862973 4.0
endloop
endfacet
facet normal -0.793353340291223 0.608761429008737 0.0
outer loop
vertex -8.72382415573816 -6.62459358181775 4.0
vertex -9.00987767641437 -6.99738578795353 0.0
vertex -9.00987767641437 -6.99738578795353 4.0
endloop
endfacet
facet normal -0.793353340291223 0.608761429008737 0.0
outer loop
vertex -9.00987767641437 -6.99738578795353 0.0
vertex -8.72382415573816 -6.62459358181775 4.0
vertex -8.72382415573816 -6.62459358181775 0.0
endloop
endfacet
facet normal -0.991444861373811 -0.130526192220044 0.0
outer loop
vertex 0.655996604770166 -5.25871930063321 4.0
vertex 0.717330117449839 -5.72459358181775 0.0
vertex 0.717330117449839 -5.72459358181775 4.0
endloop
endfacet
facet normal -0.991444861373811 -0.130526192220044 0.0
outer loop
vertex 0.717330117449839 -5.72459358181775 0.0
vertex 0.655996604770166 -5.25871930063321 4.0
vertex 0.655996604770166 -5.25871930063321 0.0
endloop
endfacet
facet normal -0.923879532511275 -0.382683432365119 0.0
outer loop
vertex 0.476175844261818 -4.82459358181775 4.0
vertex 0.655996604770166 -5.25871930063321 0.0
vertex 0.655996604770166 -5.25871930063321 4.0
endloop
endfacet
facet normal -0.923879532511275 -0.382683432365119 0.0
outer loop
vertex 0.655996604770166 -5.25871930063321 0.0
vertex 0.476175844261818 -4.82459358181775 4.0
vertex 0.476175844261818 -4.82459358181775 0.0
endloop
endfacet
facet normal 0.382683432365081 -0.92387953251129 0.0
outer loop
vertex -1.5485441637347 -3.98592709449744 4.0
vertex -1.98266988255016 -4.16574785500576 0.0
vertex -1.5485441637347 -3.98592709449744 0.0
endloop
endfacet
facet normal 0.382683432365081 -0.92387953251129 0.0
outer loop
vertex -1.98266988255016 -4.16574785500576 0.0
vertex -1.5485441637347 -3.98592709449744 4.0
vertex -1.98266988255016 -4.16574785500576 4.0
endloop
endfacet
facet normal 0.0 0.0 1.0
outer loop
vertex -4.88266988255016 -8.72459358181774 4.0
vertex -2.64151560936216 -6.62459358181775 4.0
vertex -4.88266988255016 -2.72459358181776 4.0
endloop
endfacet
facet normal 0.0 0.0 1.0
outer loop
vertex -2.64151560936216 -6.62459358181775 4.0
vertex -4.88266988255016 -8.72459358181774 4.0
vertex -1.08266988255016 -8.72459358181774 4.0
endloop
endfacet
facet normal 0.0 0.0 1.0
outer loop
vertex -4.88266988255016 -2.72459358181776 4.0
vertex -2.64151560936216 -6.62459358181775 4.0
vertex -2.82133636987048 -6.19046786300228 4.0
endloop
endfacet
facet normal 0.0 0.0 1.0
outer loop
vertex -4.88266988255016 -2.72459358181776 4.0
vertex -2.82133636987048 -6.19046786300228 4.0
vertex -2.88266988255016 -5.72459358181775 4.0
endloop
endfacet
facet normal 0.0 0.0 1.0
outer loop
vertex -2.64151560936216 -6.62459358181775 4.0
vertex -1.08266988255016 -8.72459358181774 4.0
vertex -2.35546208868594 -6.99738578795353 4.0
endloop
endfacet
facet normal 0.0 0.0 1.0
outer loop
vertex -2.35546208868594 -6.99738578795353 4.0
vertex -1.08266988255016 -8.72459358181774 4.0
vertex -1.98266988255016 -7.28343930862973 4.0
endloop
endfacet
facet normal 0.0 0.0 1.0
outer loop
vertex -1.98266988255016 -7.28343930862973 4.0
vertex -1.08266988255016 -8.72459358181774 4.0
vertex -1.5485441637347 -7.46326006913807 4.0
endloop
endfacet
facet normal 0.0 0.0 1.0
outer loop
vertex -1.5485441637347 -7.46326006913807 4.0
vertex -1.08266988255016 -8.72459358181774 4.0
vertex -1.08266988255016 -7.52459358181774 4.0
endloop
endfacet
facet normal 0.0 0.0 1.0
outer loop
vertex -1.08266988255016 -7.52459358181774 4.0
vertex -1.08266988255016 -8.72459358181774 4.0
vertex -0.306212747242595 -8.62237106068495 4.0
endloop
endfacet
facet normal 0.0 0.0 1.0
outer loop
vertex -1.08266988255016 -7.52459358181774 4.0
vertex -0.306212747242595 -8.62237106068495 4.0
vertex -0.61679560136562 -7.46326006913807 4.0
endloop
endfacet
facet normal 0.0 0.0 1.0
outer loop
vertex -0.61679560136562 -7.46326006913807 4.0
vertex -0.306212747242595 -8.62237106068495 4.0
vertex -0.182669882550159 -7.28343930862973 4.0
endloop
endfacet
facet normal 0.0 0.0 1.0
outer loop
vertex -0.182669882550159 -7.28343930862973 4.0
vertex -0.306212747242595 -8.62237106068495 4.0
vertex 0.41733011744984 -8.32266979317106 4.0
endloop
endfacet
facet normal 0.0 0.0 1.0
outer loop
vertex -0.182669882550159 -7.28343930862973 4.0
vertex 0.41733011744984 -8.32266979317106 4.0
vertex 0.190122323585627 -6.99738578795353 4.0
endloop
endfacet
facet normal 0.0 0.0 1.0
outer loop
vertex 0.190122323585627 -6.99738578795353 4.0
vertex 0.41733011744984 -8.32266979317106 4.0
vertex 0.476175844261818 -6.62459358181775 4.0
endloop
endfacet
facet normal 0.0 0.0 1.0
outer loop
vertex 0.476175844261818 -6.62459358181775 4.0
vertex 0.41733011744984 -8.32266979317106 4.0
vertex 1.91880990938837 -7.74990269620852 4.0
endloop
endfacet
facet normal 0.0 0.0 1.0
outer loop
vertex 0.476175844261818 -6.62459358181775 4.0
vertex 1.91880990938837 -7.74990269620852 4.0
vertex 0.655996604770166 -6.19046786300228 4.0
endloop
endfacet
facet normal 0.0 0.0 1.0
outer loop
vertex 0.655996604770166 -6.19046786300228 4.0
vertex 1.91880990938837 -7.74990269620852 4.0
vertex 0.717330117449839 -5.72459358181775 4.0
endloop
endfacet
facet normal 0.0 0.0 1.0
outer loop
vertex 0.717330117449839 -5.72459358181775 4.0
vertex 1.91880990938837 -7.74990269620852 4.0
vertex 1.91733011744984 -3.6987199735608 4.0
endloop
endfacet
facet normal 0.0 0.0 1.0
outer loop
vertex -4.88266988255016 -2.72459358181776 4.0
vertex -2.64151560936216 -4.82459358181775 4.0
vertex -1.08266988255016 -2.72459358181776 4.0
endloop
endfacet
facet normal 0.0 0.0 1.0
outer loop
vertex -2.64151560936216 -4.82459358181775 4.0
vertex -4.88266988255016 -2.72459358181776 4.0
vertex -2.82133636987048 -5.2587193006332 4.0
endloop
endfacet
facet normal 0.0 0.0 1.0
outer loop
vertex -2.82133636987048 -5.2587193006332 4.0
vertex -4.88266988255016 -2.72459358181776 4.0
vertex -2.88266988255016 -5.72459358181775 4.0
endloop
endfacet
facet normal 0.0 0.0 1.0
outer loop
vertex -1.08266988255016 -2.72459358181776 4.0
vertex -2.64151560936216 -4.82459358181775 4.0
vertex -2.35546208868594 -4.45180137568196 4.0
endloop
endfacet
facet normal 0.0 0.0 1.0
outer loop
vertex -1.08266988255016 -2.72459358181776 4.0
vertex -2.35546208868594 -4.45180137568196 4.0
vertex -1.98266988255016 -4.16574785500576 4.0
endloop
endfacet
facet normal 0.0 0.0 1.0
outer loop
vertex -1.08266988255016 -2.72459358181776 4.0
vertex -1.98266988255016 -4.16574785500576 4.0
vertex -1.5485441637347 -3.98592709449744 4.0
endloop
endfacet
facet normal 0.0 0.0 1.0
outer loop
vertex -1.08266988255016 -2.72459358181776 4.0
vertex -1.5485441637347 -3.98592709449744 4.0
vertex -1.08266988255016 -3.92459358181776 4.0
endloop
endfacet
facet normal 0.0 0.0 1.0
outer loop
vertex -1.08266988255016 -2.72459358181776 4.0
vertex -1.08266988255016 -3.92459358181776 4.0
vertex -0.61679560136562 -3.98592709449744 4.0
endloop
endfacet
facet normal 0.0 0.0 1.0
outer loop
vertex -1.08266988255016 -2.72459358181776 4.0
vertex -0.61679560136562 -3.98592709449744 4.0
vertex -0.3062127472426 -2.82681610295055 4.0
endloop
endfacet
facet normal 0.0 0.0 1.0
outer loop
vertex -0.3062127472426 -2.82681610295055 4.0
vertex -0.61679560136562 -3.98592709449744 4.0
vertex -0.182669882550159 -4.16574785500576 4.0
endloop
endfacet
facet normal 0.0 0.0 1.0
outer loop
vertex -0.3062127472426 -2.82681610295055 4.0
vertex -0.182669882550159 -4.16574785500576 4.0
vertex 0.41733011744984 -3.12651737046444 4.0
endloop
endfacet
facet normal 0.0 0.0 1.0
outer loop
vertex 0.41733011744984 -3.12651737046444 4.0
vertex -0.182669882550159 -4.16574785500576 4.0
vertex 0.190122323585627 -4.45180137568197 4.0
endloop
endfacet
facet normal 0.0 0.0 1.0
outer loop
vertex 0.41733011744984 -3.12651737046444 4.0
vertex 0.190122323585627 -4.45180137568197 4.0
vertex 0.476175844261818 -4.82459358181775 4.0
endloop
endfacet
facet normal 0.0 0.0 1.0
outer loop
vertex 0.41733011744984 -3.12651737046444 4.0
vertex 0.476175844261818 -4.82459358181775 4.0
vertex 1.91733011744984 -3.6987199735608 4.0
endloop
endfacet
facet normal 0.0 0.0 1.0
outer loop
vertex 1.91733011744984 -3.6987199735608 4.0
vertex 0.476175844261818 -4.82459358181775 4.0
vertex 0.655996604770166 -5.25871930063321 4.0
endloop
endfacet
facet normal 0.0 0.0 1.0
outer loop
vertex 1.91733011744984 -3.6987199735608 4.0
vertex 0.655996604770166 -5.25871930063321 4.0
vertex 0.717330117449839 -5.72459358181775 4.0
endloop
endfacet
facet normal -0.130526192220053 0.99144486137381 0.0
outer loop
vertex -11.0591270178577 -2.82681610295055 4.0
vertex -10.2826698825502 -2.72459358181776 0.0
vertex -11.0591270178577 -2.82681610295055 0.0
endloop
endfacet
facet normal -0.130526192220053 0.99144486137381 0.0
outer loop
vertex -10.2826698825502 -2.72459358181776 0.0
vertex -11.0591270178577 -2.82681610295055 4.0
vertex -10.2826698825502 -2.72459358181776 4.0
endloop
endfacet
facet normal 0.991444861373811 -0.130526192220044 0.0
outer loop
vertex -12.0213363698705 -5.25871930063321 0.0
vertex -12.0826698825502 -5.72459358181775 4.0
vertex -12.0826698825502 -5.72459358181775 0.0
endloop
endfacet
facet normal 0.991444861373811 -0.130526192220044 0.0
outer loop
vertex -12.0826698825502 -5.72459358181775 4.0
vertex -12.0213363698705 -5.25871930063321 0.0
vertex -12.0213363698705 -5.25871930063321 4.0
endloop
endfacet
facet normal 0.382683432365089 0.923879532511287 1.0410168474151e-16
outer loop
vertex -0.3062127472426 -2.82681610295055 4.0
vertex 0.41733011744984 -3.12651737046444 0.0
vertex -0.306212747242595 -2.82681610295055 0.0
endloop
endfacet
facet normal 0.382683432365089 0.923879532511287 1.0410168474151e-16
outer loop
vertex 0.41733011744984 -3.12651737046444 0.0
vertex -0.3062127472426 -2.82681610295055 4.0
vertex 0.41733011744984 -3.12651737046444 4.0
endloop
endfacet
facet normal 0.130526192220058 -0.99144486137381 0.0
outer loop
vertex -1.08266988255016 -3.92459358181776 4.0
vertex -1.5485441637347 -3.98592709449744 0.0
vertex -1.08266988255016 -3.92459358181776 0.0
endloop
endfacet
facet normal 0.130526192220058 -0.99144486137381 0.0
outer loop
vertex -1.5485441637347 -3.98592709449744 0.0
vertex -1.08266988255016 -3.92459358181776 4.0
vertex -1.5485441637347 -3.98592709449744 4.0
endloop
endfacet
facet normal 0.923879532511284 -0.382683432365096 0.0
outer loop
vertex -11.8415156093621 -4.82459358181775 0.0
vertex -12.0213363698705 -5.25871930063321 4.0
vertex -12.0213363698705 -5.25871930063321 0.0
endloop
endfacet
facet normal 0.923879532511284 -0.382683432365096 0.0
outer loop
vertex -12.0213363698705 -5.25871930063321 4.0
vertex -11.8415156093621 -4.82459358181775 0.0
vertex -11.8415156093621 -4.82459358181775 4.0
endloop
endfacet
facet normal 0.999999933293637 0.000365257061925768 3.52497041825174e-16
outer loop
vertex 1.91733011744984 -3.6987199735608 3.0
vertex 1.91880990938837 -7.74990269620852 4.0
vertex 1.91880990938837 -7.74990269620852 3.0
endloop
endfacet
facet normal 0.999999933293637 0.000365257061925768 3.52497041825174e-16
outer loop
vertex 1.91880990938837 -7.74990269620852 4.0
vertex 1.91733011744984 -3.6987199735608 3.0
vertex 1.91733011744984 -3.6987199735608 4.0
endloop
endfacet
facet normal -3.5258273775432e-16 -9.27339264855372e-20 1.0
outer loop
vertex 1.91880990938837 -7.74990269620852 3.0
vertex 3.91733011744984 -4.46165677768927 3.0
vertex 1.91733011744984 -3.6987199735608 3.0
endloop
endfacet
facet normal -3.5258273775432e-16 -9.27339264855372e-20 1.0
outer loop
vertex 3.91733011744984 -4.46165677768927 3.0
vertex 1.91880990938837 -7.74990269620852 3.0
vertex 3.91733011744984 -6.98753038594623 3.0
endloop
endfacet
facet normal 0.356416322093477 -0.934327247459561 1.61208813801988e-17
outer loop
vertex 5.91733011744984 -6.22459358181775 4.0
vertex 0.41733011744984 -8.32266979317106 0.0
vertex 5.91733011744984 -6.22459358181775 0.0
endloop
endfacet
facet normal 0.356416322093477 -0.934327247459561 1.61208813801988e-17
outer loop
vertex 0.41733011744984 -8.32266979317106 0.0
vertex 5.91733011744984 -6.22459358181775 4.0
vertex 3.91733011744984 -6.98753038594623 3.0
endloop
endfacet
facet normal 0.356416322093477 -0.934327247459561 1.61208813801988e-17
outer loop
vertex 0.41733011744984 -8.32266979317106 0.0
vertex 3.91733011744984 -6.98753038594623 3.0
vertex 1.91880990938837 -7.74990269620852 3.0
endloop
endfacet
facet normal 0.356416322093477 -0.934327247459561 1.61208813801988e-17
outer loop
vertex 3.91733011744984 -6.98753038594623 3.0
vertex 5.91733011744984 -6.22459358181775 4.0
vertex 3.91733011744984 -6.98753038594623 4.0
endloop
endfacet
facet normal 0.356416322093477 -0.934327247459561 1.61208813801988e-17
outer loop
vertex 1.91880990938837 -7.74990269620852 3.0
vertex 0.41733011744984 -8.32266979317106 4.0
vertex 0.41733011744984 -8.32266979317106 0.0
endloop
endfacet
facet normal 0.356416322093477 -0.934327247459561 1.61208813801988e-17
outer loop
vertex 0.41733011744984 -8.32266979317106 4.0
vertex 1.91880990938837 -7.74990269620852 3.0
vertex 1.91880990938837 -7.74990269620852 4.0
endloop
endfacet
facet normal -1.44606498483209e-16 -1.0 1.3376239407047e-16
outer loop
vertex -1.08266988255016 -8.72459358181774 4.0
vertex -10.2826698825502 -8.72459358181774 0.0
vertex -1.08266988255016 -8.72459358181774 0.0
endloop
endfacet
facet normal -1.44606498483209e-16 -1.0 1.3376239407047e-16
outer loop
vertex -10.2826698825502 -8.72459358181774 0.0
vertex -1.08266988255016 -8.72459358181774 4.0
vertex -5.47561464646814 -8.72459358181774 3.22725933896874
endloop
endfacet
facet normal -1.44606498483209e-16 -1.0 1.3376239407047e-16
outer loop
vertex -10.2826698825502 -8.72459358181774 0.0
vertex -5.47561464646814 -8.72459358181774 3.22725933896874
vertex -5.68266988255016 -8.72459358181774 3.2
endloop
endfacet
facet normal -1.44606498483209e-16 -1.0 1.3376239407047e-16
outer loop
vertex -5.47561464646814 -8.72459358181774 3.22725933896874
vertex -1.08266988255016 -8.72459358181774 4.0
vertex -5.28266988255016 -8.72459358181774 3.30717967697245
endloop
endfacet
facet normal -1.44606498483209e-16 -1.0 1.3376239407047e-16
outer loop
vertex -5.28266988255016 -8.72459358181774 3.30717967697245
vertex -1.08266988255016 -8.72459358181774 4.0
vertex -5.11698445760092 -8.72459358181774 3.43431457505076
endloop
endfacet
facet normal -1.44606498483209e-16 -1.0 1.3376239407047e-16
outer loop
vertex -5.11698445760092 -8.72459358181774 3.43431457505076
vertex -1.08266988255016 -8.72459358181774 4.0
vertex -4.98984955952261 -8.72459358181774 3.6
endloop
endfacet
facet normal -1.44606498483209e-16 -1.0 1.3376239407047e-16
outer loop
vertex -4.98984955952261 -8.72459358181774 3.6
vertex -1.08266988255016 -8.72459358181774 4.0
vertex -4.9099292215189 -8.72459358181774 3.79294476391798
endloop
endfacet
facet normal -1.44606498483209e-16 -1.0 1.3376239407047e-16
outer loop
vertex -4.9099292215189 -8.72459358181774 3.79294476391798
vertex -1.08266988255016 -8.72459358181774 4.0
vertex -4.88266988255016 -8.72459358181774 4.0
endloop
endfacet
facet normal -1.44606498483209e-16 -1.0 1.3376239407047e-16
outer loop
vertex -10.2826698825502 -8.72459358181774 0.0
vertex -5.88972511863217 -8.72459358181774 3.22725933896874
vertex -10.2826698825502 -8.72459358181774 4.0
endloop
endfacet
facet normal -1.44606498483209e-16 -1.0 1.3376239407047e-16
outer loop
vertex -5.88972511863217 -8.72459358181774 3.22725933896874
vertex -10.2826698825502 -8.72459358181774 0.0
vertex -5.68266988255016 -8.72459358181774 3.2
endloop
endfacet
facet normal -1.44606498483209e-16 -1.0 1.3376239407047e-16
outer loop
vertex -10.2826698825502 -8.72459358181774 4.0
vertex -5.88972511863217 -8.72459358181774 3.22725933896874
vertex -6.08266988255016 -8.72459358181774 3.30717967697245
endloop
endfacet
facet normal -1.44606498483209e-16 -1.0 1.3376239407047e-16
outer loop
vertex -10.2826698825502 -8.72459358181774 4.0
vertex -6.08266988255016 -8.72459358181774 3.30717967697245
vertex -6.24835530749939 -8.72459358181774 3.43431457505076
endloop
endfacet
facet normal -1.44606498483209e-16 -1.0 1.3376239407047e-16
outer loop
vertex -10.2826698825502 -8.72459358181774 4.0
vertex -6.24835530749939 -8.72459358181774 3.43431457505076
vertex -6.37549020557771 -8.72459358181774 3.6
endloop
endfacet
facet normal -1.44606498483209e-16 -1.0 1.3376239407047e-16
outer loop
vertex -10.2826698825502 -8.72459358181774 4.0
vertex -6.37549020557771 -8.72459358181774 3.6
vertex -6.45541054358141 -8.72459358181774 3.79294476391798
endloop
endfacet
facet normal -1.44606498483209e-16 -1.0 1.3376239407047e-16
outer loop
vertex -10.2826698825502 -8.72459358181774 4.0
vertex -6.45541054358141 -8.72459358181774 3.79294476391798
vertex -6.48266988255016 -8.72459358181774 4.0
endloop
endfacet
facet normal -0.130526192220058 -0.99144486137381 0.0
outer loop
vertex -9.81679560136562 -3.98592709449744 4.0
vertex -10.2826698825502 -3.92459358181776 0.0
vertex -9.81679560136562 -3.98592709449744 0.0
endloop
endfacet
facet normal -0.130526192220058 -0.99144486137381 0.0
outer loop
vertex -10.2826698825502 -3.92459358181776 0.0
vertex -9.81679560136562 -3.98592709449744 4.0
vertex -10.2826698825502 -3.92459358181776 4.0
endloop
endfacet
facet normal 0.991444861373812 -0.130526192220042 0.0
outer loop
vertex -2.82133636987048 -5.2587193006332 0.0
vertex -2.88266988255016 -5.72459358181775 4.0
vertex -2.88266988255016 -5.72459358181775 0.0
endloop
endfacet
facet normal 0.991444861373812 -0.130526192220042 0.0
outer loop
vertex -2.88266988255016 -5.72459358181775 4.0
vertex -2.82133636987048 -5.2587193006332 0.0
vertex -2.82133636987048 -5.2587193006332 4.0
endloop
endfacet
facet normal 0.793353340291223 0.608761429008737 0.0
outer loop
vertex -2.64151560936216 -6.62459358181775 0.0
vertex -2.35546208868594 -6.99738578795353 4.0
vertex -2.35546208868594 -6.99738578795353 0.0
endloop
endfacet
facet normal 0.793353340291223 0.608761429008737 0.0
outer loop
vertex -2.35546208868594 -6.99738578795353 4.0
vertex -2.64151560936216 -6.62459358181775 0.0
vertex -2.64151560936216 -6.62459358181775 4.0
endloop
endfacet
facet normal -0.382683432365087 0.923879532511288 0.0
outer loop
vertex -11.7826698825502 -3.12651737046444 4.0
vertex -11.0591270178577 -2.82681610295055 0.0
vertex -11.7826698825502 -3.12651737046444 0.0
endloop
endfacet
facet normal -0.382683432365087 0.923879532511288 0.0
outer loop
vertex -11.0591270178577 -2.82681610295055 0.0
vertex -11.7826698825502 -3.12651737046444 4.0
vertex -11.0591270178577 -2.82681610295055 4.0
endloop
endfacet
facet normal -0.38268343236509 0.923879532511287 0.0
outer loop
vertex -9.81679560136562 -7.46326006913807 4.0
vertex -9.38266988255016 -7.28343930862973 0.0
vertex -9.81679560136562 -7.46326006913807 0.0
endloop
endfacet
facet normal -0.38268343236509 0.923879532511287 0.0
outer loop
vertex -9.38266988255016 -7.28343930862973 0.0
vertex -9.81679560136562 -7.46326006913807 4.0
vertex -9.38266988255016 -7.28343930862973 4.0
endloop
endfacet
facet normal -0.608761429008718 -0.793353340291237 0.0
outer loop
vertex 0.190122323585627 -4.45180137568197 4.0
vertex -0.182669882550159 -4.16574785500576 0.0
vertex 0.190122323585627 -4.45180137568197 0.0
endloop
endfacet
facet normal -0.608761429008718 -0.793353340291237 0.0
outer loop
vertex -0.182669882550159 -4.16574785500576 0.0
vertex 0.190122323585627 -4.45180137568197 4.0
vertex -0.182669882550159 -4.16574785500576 4.0
endloop
endfacet
facet normal -1.0 2.7910803546638e-16 -2.6030875973483e-32
outer loop
vertex 3.91733011744984 -4.46165677768927 4.0
vertex 3.91733011744984 -6.98753038594623 3.0
vertex 3.91733011744984 -6.98753038594623 4.0
endloop
endfacet
facet normal -1.0 2.7910803546638e-16 -2.6030875973483e-32
outer loop
vertex 3.91733011744984 -6.98753038594623 3.0
vertex 3.91733011744984 -4.46165677768927 4.0
vertex 3.91733011744984 -4.46165677768927 3.0
endloop
endfacet
facet normal 0.0 0.0 1.0
outer loop
vertex 5.91733011744984 -6.22459358181775 4.0
vertex 3.91733011744984 -4.46165677768927 4.0
vertex 3.91733011744984 -6.98753038594623 4.0
endloop
endfacet
facet normal 0.0 0.0 1.0
outer loop
vertex 3.91733011744984 -4.46165677768927 4.0
vertex 5.91733011744984 -6.22459358181775 4.0
vertex 5.91733011744984 -5.22459358181775 4.0
endloop
endfacet
facet normal 1.0 0.0 0.0
outer loop
vertex 5.91733011744984 -5.22459358181775 0.0
vertex 5.91733011744984 -6.22459358181775 4.0
vertex 5.91733011744984 -6.22459358181775 0.0
endloop
endfacet
facet normal 1.0 0.0 0.0
outer loop
vertex 5.91733011744984 -6.22459358181775 4.0
vertex 5.91733011744984 -5.22459358181775 0.0
vertex 5.91733011744984 -5.22459358181775 4.0
endloop
endfacet
facet normal -0.382683432365095 0.923879532511284 0.0
outer loop
vertex -0.61679560136562 -7.46326006913807 4.0
vertex -0.182669882550159 -7.28343930862973 0.0
vertex -0.61679560136562 -7.46326006913807 0.0
endloop
endfacet
facet normal -0.382683432365095 0.923879532511284 0.0
outer loop
vertex -0.182669882550159 -7.28343930862973 0.0
vertex -0.61679560136562 -7.46326006913807 4.0
vertex -0.182669882550159 -7.28343930862973 4.0
endloop
endfacet
facet normal 0.0 0.0 -1.0
outer loop
vertex -13.1804473614173 -4.94813644651019 0.0
vertex -13.1804473614173 -6.50105071712531 0.0
vertex -13.2826698825501 -5.72459358181775 0.0
endloop
endfacet
facet normal 0.0 0.0 -1.0
outer loop
vertex -13.1804473614173 -6.50105071712531 0.0
vertex -13.1804473614173 -4.94813644651019 0.0
vertex -12.8807460939035 -4.22459358181775 0.0
endloop
endfacet
facet normal 0.0 0.0 -1.0
outer loop
vertex -13.1804473614173 -6.50105071712531 0.0
vertex -12.8807460939035 -4.22459358181775 0.0
vertex -12.8807460939035 -7.22459358181774 0.0
endloop
endfacet
facet normal 0.0 0.0 -1.0
outer loop
vertex -12.8807460939035 -7.22459358181774 0.0
vertex -12.8807460939035 -4.22459358181775 0.0
vertex -12.4039902261098 -3.60327323825811 0.0
endloop
endfacet
facet normal 0.0 0.0 -1.0
outer loop
vertex -12.8807460939035 -7.22459358181774 0.0
vertex -12.4039902261098 -3.60327323825811 0.0
vertex -12.4039902261098 -7.84591392537739 0.0
endloop
endfacet
facet normal 0.0 0.0 -1.0
outer loop
vertex -12.4039902261098 -7.84591392537739 0.0
vertex -12.4039902261098 -3.60327323825811 0.0
vertex -11.7826698825502 -3.12651737046444 0.0
endloop
endfacet
facet normal 0.0 0.0 -1.0
outer loop
vertex -12.4039902261098 -7.84591392537739 0.0
vertex -11.7826698825502 -3.12651737046444 0.0
vertex -12.0826698825502 -5.72459358181775 0.0
endloop
endfacet
facet normal 0.0 0.0 -1.0
outer loop
vertex -12.0826698825502 -5.72459358181775 0.0
vertex -11.7826698825502 -3.12651737046444 0.0
vertex -12.0213363698705 -5.25871930063321 0.0
endloop
endfacet
facet normal 0.0 0.0 -1.0
outer loop
vertex -12.0213363698705 -5.25871930063321 0.0
vertex -11.7826698825502 -3.12651737046444 0.0
vertex -11.8415156093621 -4.82459358181775 0.0
endloop
endfacet
facet normal 0.0 0.0 -1.0
outer loop
vertex -11.8415156093621 -4.82459358181775 0.0
vertex -11.7826698825502 -3.12651737046444 0.0
vertex -11.5554620886859 -4.45180137568197 0.0
endloop
endfacet
facet normal 0.0 0.0 -1.0
outer loop
vertex -11.5554620886859 -4.45180137568197 0.0
vertex -11.7826698825502 -3.12651737046444 0.0
vertex -11.0591270178577 -2.82681610295055 0.0
endloop
endfacet
facet normal 0.0 0.0 -1.0
outer loop
vertex -11.5554620886859 -4.45180137568197 0.0
vertex -11.0591270178577 -2.82681610295055 0.0
vertex -11.1826698825502 -4.16574785500576 0.0
endloop
endfacet
facet normal 0.0 0.0 -1.0
outer loop
vertex -11.1826698825502 -4.16574785500576 0.0
vertex -11.0591270178577 -2.82681610295055 0.0
vertex -10.7485441637347 -3.98592709449744 0.0
endloop
endfacet
facet normal 0.0 0.0 -1.0
outer loop
vertex -10.7485441637347 -3.98592709449744 0.0
vertex -11.0591270178577 -2.82681610295055 0.0
vertex -10.2826698825502 -2.72459358181776 0.0
endloop
endfacet
facet normal 0.0 0.0 -1.0
outer loop
vertex -10.7485441637347 -3.98592709449744 0.0
vertex -10.2826698825502 -2.72459358181776 0.0
vertex -10.2826698825502 -3.92459358181776 0.0
endloop
endfacet
facet normal 0.0 0.0 -1.0
outer loop
vertex -10.2826698825502 -3.92459358181776 0.0
vertex -10.2826698825502 -2.72459358181776 0.0
vertex -1.08266988255016 -2.72459358181776 0.0
endloop
endfacet
facet normal 0.0 0.0 -1.0
outer loop
vertex -10.2826698825502 -3.92459358181776 0.0
vertex -1.08266988255016 -2.72459358181776 0.0
vertex -9.81679560136562 -3.98592709449744 0.0
endloop
endfacet
facet normal 0.0 0.0 -1.0
outer loop
vertex -9.81679560136562 -3.98592709449744 0.0
vertex -1.08266988255016 -2.72459358181776 0.0
vertex -9.38266988255016 -4.16574785500576 0.0
endloop
endfacet
facet normal 0.0 0.0 -1.0
outer loop
vertex -9.38266988255016 -4.16574785500576 0.0
vertex -1.08266988255016 -2.72459358181776 0.0
vertex -9.00987767641437 -4.45180137568197 0.0
endloop
endfacet
facet normal 0.0 0.0 -1.0
outer loop
vertex -9.00987767641437 -4.45180137568197 0.0
vertex -1.08266988255016 -2.72459358181776 0.0
vertex -8.72382415573816 -4.82459358181775 0.0
endloop
endfacet
facet normal 0.0 0.0 -1.0
outer loop
vertex -8.72382415573816 -4.82459358181775 0.0
vertex -1.08266988255016 -2.72459358181776 0.0
vertex -8.54400339522983 -5.25871930063321 0.0
endloop
endfacet
facet normal 0.0 0.0 -1.0
outer loop
vertex -8.54400339522983 -5.25871930063321 0.0
vertex -1.08266988255016 -2.72459358181776 0.0
vertex -8.48266988255016 -5.72459358181775 0.0
endloop
endfacet
facet normal 0.0 0.0 -1.0
outer loop
vertex -8.48266988255016 -5.72459358181775 0.0
vertex -1.08266988255016 -2.72459358181776 0.0
vertex -2.64151560936216 -4.82459358181775 0.0
endloop
endfacet
facet normal 0.0 0.0 -1.0
outer loop
vertex -8.48266988255016 -5.72459358181775 0.0
vertex -2.64151560936216 -4.82459358181775 0.0
vertex -2.82133636987048 -5.2587193006332 0.0
endloop
endfacet
facet normal 0.0 0.0 -1.0
outer loop
vertex -8.48266988255016 -5.72459358181775 0.0
vertex -2.82133636987048 -5.2587193006332 0.0
vertex -2.88266988255016 -5.72459358181775 0.0
endloop
endfacet
facet normal 0.0 0.0 -1.0
outer loop
vertex -2.64151560936216 -4.82459358181775 0.0
vertex -1.08266988255016 -2.72459358181776 0.0
vertex -2.35546208868594 -4.45180137568196 0.0
endloop
endfacet
facet normal 0.0 0.0 -1.0
outer loop
vertex -2.35546208868594 -4.45180137568196 0.0
vertex -1.08266988255016 -2.72459358181776 0.0
vertex -1.98266988255016 -4.16574785500576 0.0
endloop
endfacet
facet normal 0.0 0.0 -1.0
outer loop
vertex -1.98266988255016 -4.16574785500576 0.0
vertex -1.08266988255016 -2.72459358181776 0.0
vertex -1.5485441637347 -3.98592709449744 0.0
endloop
endfacet
facet normal 0.0 0.0 -1.0
outer loop
vertex -1.5485441637347 -3.98592709449744 0.0
vertex -1.08266988255016 -2.72459358181776 0.0
vertex -1.08266988255016 -3.92459358181776 0.0
endloop
endfacet
facet normal 0.0 0.0 -1.0
outer loop
vertex -1.08266988255016 -3.92459358181776 0.0
vertex -1.08266988255016 -2.72459358181776 0.0
vertex -0.306212747242595 -2.82681610295055 0.0
endloop
endfacet
facet normal 0.0 0.0 -1.0
outer loop
vertex -1.08266988255016 -3.92459358181776 0.0
vertex -0.306212747242595 -2.82681610295055 0.0
vertex -0.61679560136562 -3.98592709449744 0.0
endloop
endfacet
facet normal 0.0 0.0 -1.0
outer loop
vertex -0.61679560136562 -3.98592709449744 0.0
vertex -0.306212747242595 -2.82681610295055 0.0
vertex -0.182669882550159 -4.16574785500576 0.0
endloop
endfacet
facet normal 0.0 0.0 -1.0
outer loop
vertex -0.182669882550159 -4.16574785500576 0.0
vertex -0.306212747242595 -2.82681610295055 0.0
vertex 0.41733011744984 -3.12651737046444 0.0
endloop
endfacet
facet normal 0.0 0.0 -1.0
outer loop
vertex -0.182669882550159 -4.16574785500576 0.0
vertex 0.41733011744984 -3.12651737046444 0.0
vertex 0.190122323585627 -4.45180137568197 0.0
endloop
endfacet
facet normal 0.0 0.0 -1.0
outer loop
vertex 0.190122323585627 -4.45180137568197 0.0
vertex 0.41733011744984 -3.12651737046444 0.0
vertex 0.476175844261818 -4.82459358181775 0.0
endloop
endfacet
facet normal 0.0 0.0 -1.0
outer loop
vertex 0.476175844261818 -4.82459358181775 0.0
vertex 0.41733011744984 -3.12651737046444 0.0
vertex 5.91733011744984 -5.22459358181775 0.0
endloop
endfacet
facet normal 0.0 0.0 -1.0
outer loop
vertex 0.476175844261818 -4.82459358181775 0.0
vertex 5.91733011744984 -5.22459358181775 0.0
vertex 0.655996604770166 -5.25871930063321 0.0
endloop
endfacet
facet normal 0.0 0.0 -1.0
outer loop
vertex 0.655996604770166 -5.25871930063321 0.0
vertex 5.91733011744984 -5.22459358181775 0.0
vertex 0.717330117449839 -5.72459358181775 0.0
endloop
endfacet
facet normal 0.0 0.0 -1.0
outer loop
vertex -12.0826698825502 -5.72459358181775 0.0
vertex -11.7826698825502 -8.32266979317106 0.0
vertex -12.4039902261098 -7.84591392537739 0.0
endloop
endfacet
facet normal 0.0 0.0 -1.0
outer loop
vertex -11.7826698825502 -8.32266979317106 0.0
vertex -12.0826698825502 -5.72459358181775 0.0
vertex -12.0213363698705 -6.19046786300228 0.0
endloop
endfacet
facet normal 0.0 0.0 -1.0
outer loop
vertex -11.7826698825502 -8.32266979317106 0.0
vertex -12.0213363698705 -6.19046786300228 0.0
vertex -11.8415156093622 -6.62459358181775 0.0
endloop
endfacet
facet normal 0.0 0.0 -1.0
outer loop
vertex -11.7826698825502 -8.32266979317106 0.0
vertex -11.8415156093622 -6.62459358181775 0.0
vertex -11.5554620886859 -6.99738578795353 0.0
endloop
endfacet
facet normal 0.0 0.0 -1.0
outer loop
vertex -11.7826698825502 -8.32266979317106 0.0
vertex -11.5554620886859 -6.99738578795353 0.0
vertex -11.0591270178577 -8.62237106068495 0.0
endloop
endfacet
facet normal 0.0 0.0 -1.0
outer loop
vertex -11.0591270178577 -8.62237106068495 0.0
vertex -11.5554620886859 -6.99738578795353 0.0
vertex -11.1826698825502 -7.28343930862973 0.0
endloop
endfacet
facet normal 0.0 0.0 -1.0
outer loop
vertex -11.0591270178577 -8.62237106068495 0.0
vertex -11.1826698825502 -7.28343930862973 0.0
vertex -10.7485441637347 -7.46326006913806 0.0
endloop
endfacet
facet normal 0.0 0.0 -1.0
outer loop
vertex -11.0591270178577 -8.62237106068495 0.0
vertex -10.7485441637347 -7.46326006913806 0.0
vertex -10.2826698825502 -8.72459358181774 0.0
endloop
endfacet
facet normal 0.0 0.0 -1.0
outer loop
vertex -10.2826698825502 -8.72459358181774 0.0
vertex -10.7485441637347 -7.46326006913806 0.0
vertex -10.2826698825502 -7.52459358181774 0.0
endloop
endfacet
facet normal 0.0 0.0 -1.0
outer loop
vertex -10.2826698825502 -8.72459358181774 0.0
vertex -10.2826698825502 -7.52459358181774 0.0
vertex -9.81679560136562 -7.46326006913807 0.0
endloop
endfacet
facet normal 0.0 0.0 -1.0
outer loop
vertex -10.2826698825502 -8.72459358181774 0.0
vertex -9.81679560136562 -7.46326006913807 0.0
vertex -1.08266988255016 -8.72459358181774 0.0
endloop
endfacet
facet normal 0.0 0.0 -1.0
outer loop
vertex -1.08266988255016 -8.72459358181774 0.0
vertex -9.81679560136562 -7.46326006913807 0.0
vertex -9.38266988255016 -7.28343930862973 0.0
endloop
endfacet
facet normal 0.0 0.0 -1.0
outer loop
vertex -1.08266988255016 -8.72459358181774 0.0
vertex -9.38266988255016 -7.28343930862973 0.0
vertex -9.00987767641437 -6.99738578795353 0.0
endloop
endfacet
facet normal 0.0 0.0 -1.0
outer loop
vertex -1.08266988255016 -8.72459358181774 0.0
vertex -9.00987767641437 -6.99738578795353 0.0
vertex -8.72382415573816 -6.62459358181775 0.0
endloop
endfacet
facet normal 0.0 0.0 -1.0
outer loop
vertex -1.08266988255016 -8.72459358181774 0.0
vertex -8.72382415573816 -6.62459358181775 0.0
vertex -8.54400339522983 -6.19046786300228 0.0
endloop
endfacet
facet normal 0.0 0.0 -1.0
outer loop
vertex -1.08266988255016 -8.72459358181774 0.0
vertex -8.54400339522983 -6.19046786300228 0.0
vertex -8.48266988255016 -5.72459358181775 0.0
endloop
endfacet
facet normal 0.0 0.0 -1.0
outer loop
vertex -1.08266988255016 -8.72459358181774 0.0
vertex -8.48266988255016 -5.72459358181775 0.0
vertex -2.64151560936216 -6.62459358181775 0.0
endloop
endfacet
facet normal 0.0 0.0 -1.0
outer loop
vertex -2.64151560936216 -6.62459358181775 0.0
vertex -8.48266988255016 -5.72459358181775 0.0
vertex -2.82133636987048 -6.19046786300228 0.0
endloop
endfacet
facet normal 0.0 0.0 -1.0
outer loop
vertex -2.82133636987048 -6.19046786300228 0.0
vertex -8.48266988255016 -5.72459358181775 0.0
vertex -2.88266988255016 -5.72459358181775 0.0
endloop
endfacet
facet normal 0.0 0.0 -1.0
outer loop
vertex -1.08266988255016 -8.72459358181774 0.0
vertex -2.64151560936216 -6.62459358181775 0.0
vertex -2.35546208868594 -6.99738578795353 0.0
endloop
endfacet
facet normal 0.0 0.0 -1.0
outer loop
vertex -1.08266988255016 -8.72459358181774 0.0
vertex -2.35546208868594 -6.99738578795353 0.0
vertex -1.98266988255016 -7.28343930862973 0.0
endloop
endfacet
facet normal 0.0 0.0 -1.0
outer loop
vertex -1.08266988255016 -8.72459358181774 0.0
vertex -1.98266988255016 -7.28343930862973 0.0
vertex -1.5485441637347 -7.46326006913807 0.0
endloop
endfacet
facet normal 0.0 0.0 -1.0
outer loop
vertex -1.08266988255016 -8.72459358181774 0.0
vertex -1.5485441637347 -7.46326006913807 0.0
vertex -1.08266988255016 -7.52459358181774 0.0
endloop
endfacet
facet normal 0.0 0.0 -1.0
outer loop
vertex -1.08266988255016 -8.72459358181774 0.0
vertex -1.08266988255016 -7.52459358181774 0.0
vertex -0.61679560136562 -7.46326006913807 0.0
endloop
endfacet
facet normal 0.0 0.0 -1.0
outer loop
vertex -1.08266988255016 -8.72459358181774 0.0
vertex -0.61679560136562 -7.46326006913807 0.0
vertex -0.3062127472426 -8.62237106068495 0.0
endloop
endfacet
facet normal 0.0 0.0 -1.0
outer loop
vertex -0.3062127472426 -8.62237106068495 0.0
vertex -0.61679560136562 -7.46326006913807 0.0
vertex -0.182669882550159 -7.28343930862973 0.0
endloop
endfacet
facet normal 0.0 0.0 -1.0
outer loop
vertex -0.3062127472426 -8.62237106068495 0.0
vertex -0.182669882550159 -7.28343930862973 0.0
vertex 0.41733011744984 -8.32266979317106 0.0
endloop
endfacet
facet normal 0.0 0.0 -1.0
outer loop
vertex 0.41733011744984 -8.32266979317106 0.0
vertex -0.182669882550159 -7.28343930862973 0.0
vertex 0.190122323585627 -6.99738578795353 0.0
endloop
endfacet
facet normal 0.0 0.0 -1.0
outer loop
vertex 0.41733011744984 -8.32266979317106 0.0
vertex 0.190122323585627 -6.99738578795353 0.0
vertex 0.476175844261818 -6.62459358181775 0.0
endloop
endfacet
facet normal 0.0 0.0 -1.0
outer loop
vertex 0.41733011744984 -8.32266979317106 0.0
vertex 0.476175844261818 -6.62459358181775 0.0
vertex 5.91733011744984 -6.22459358181775 0.0
endloop
endfacet
facet normal 0.0 0.0 -1.0
outer loop
vertex 5.91733011744984 -6.22459358181775 0.0
vertex 0.476175844261818 -6.62459358181775 0.0
vertex 0.655996604770166 -6.19046786300228 0.0
endloop
endfacet
facet normal 0.0 0.0 -1.0
outer loop
vertex 5.91733011744984 -6.22459358181775 0.0
vertex 0.655996604770166 -6.19046786300228 0.0
vertex 0.717330117449839 -5.72459358181775 0.0
endloop
endfacet
facet normal 0.0 0.0 -1.0
outer loop
vertex 5.91733011744984 -6.22459358181775 0.0
vertex 0.717330117449839 -5.72459358181775 0.0
vertex 5.91733011744984 -5.22459358181775 0.0
endloop
endfacet
facet normal -0.793353340291236 -0.60876142900872 0.0
outer loop
vertex -12.8807460939035 -7.22459358181774 4.0
vertex -12.4039902261098 -7.84591392537739 0.0
vertex -12.4039902261098 -7.84591392537739 4.0
endloop
endfacet
facet normal -0.793353340291236 -0.60876142900872 0.0
outer loop
vertex -12.4039902261098 -7.84591392537739 0.0
vertex -12.8807460939035 -7.22459358181774 4.0
vertex -12.8807460939035 -7.22459358181774 0.0
endloop
endfacet
facet normal -0.793353340291234 0.608761429008722 0.0
outer loop
vertex -12.4039902261098 -3.60327323825811 4.0
vertex -12.8807460939035 -4.22459358181775 0.0
vertex -12.8807460939035 -4.22459358181775 4.0
endloop
endfacet
facet normal -0.793353340291234 0.608761429008722 0.0
outer loop
vertex -12.8807460939035 -4.22459358181775 0.0
vertex -12.4039902261098 -3.60327323825811 4.0
vertex -12.4039902261098 -3.60327323825811 0.0
endloop
endfacet
facet normal -0.793353340291246 0.608761429008707 0.0
outer loop
vertex 0.476175844261818 -6.62459358181775 4.0
vertex 0.190122323585627 -6.99738578795353 0.0
vertex 0.190122323585627 -6.99738578795353 4.0
endloop
endfacet
facet normal -0.793353340291246 0.608761429008707 0.0
outer loop
vertex 0.190122323585627 -6.99738578795353 0.0
vertex 0.476175844261818 -6.62459358181775 4.0
vertex 0.476175844261818 -6.62459358181775 0.0
endloop
endfacet
facet normal -0.991444861373811 0.130526192220046 0.0
outer loop
vertex 0.717330117449839 -5.72459358181775 4.0
vertex 0.655996604770166 -6.19046786300228 0.0
vertex 0.655996604770166 -6.19046786300228 4.0
endloop
endfacet
facet normal -0.991444861373811 0.130526192220046 0.0
outer loop
vertex 0.655996604770166 -6.19046786300228 0.0
vertex 0.717330117449839 -5.72459358181775 4.0
vertex 0.717330117449839 -5.72459358181775 0.0
endloop
endfacet
facet normal -0.130526192220047 0.991444861373811 0.0
outer loop
vertex -1.08266988255016 -7.52459358181774 4.0
vertex -0.61679560136562 -7.46326006913807 0.0
vertex -1.08266988255016 -7.52459358181774 0.0
endloop
endfacet
facet normal -0.130526192220047 0.991444861373811 0.0
outer loop
vertex -0.61679560136562 -7.46326006913807 0.0
vertex -1.08266988255016 -7.52459358181774 4.0
vertex -0.61679560136562 -7.46326006913807 4.0
endloop
endfacet
facet normal 0.608761429008719 0.793353340291237 0.0
outer loop
vertex -11.5554620886859 -6.99738578795353 4.0
vertex -11.1826698825502 -7.28343930862973 0.0
vertex -11.5554620886859 -6.99738578795353 0.0
endloop
endfacet
facet normal 0.608761429008719 0.793353340291237 0.0
outer loop
vertex -11.1826698825502 -7.28343930862973 0.0
vertex -11.5554620886859 -6.99738578795353 4.0
vertex -11.1826698825502 -7.28343930862973 4.0
endloop
endfacet
facet normal 0.356416322093477 0.934327247459561 -1.55805633816149e-16
outer loop
vertex 5.91733011744984 -5.22459358181775 0.0
vertex 3.91733011744984 -4.46165677768927 3.0
vertex 5.91733011744984 -5.22459358181775 4.0
endloop
endfacet
facet normal 0.356416322093477 0.934327247459561 -1.55805633816149e-16
outer loop
vertex 3.91733011744984 -4.46165677768927 3.0
vertex 5.91733011744984 -5.22459358181775 0.0
vertex 1.91733011744984 -3.6987199735608 3.0
endloop
endfacet
facet normal 0.356416322093477 0.934327247459561 -1.55805633816149e-16
outer loop
vertex 5.91733011744984 -5.22459358181775 4.0
vertex 3.91733011744984 -4.46165677768927 3.0
vertex 3.91733011744984 -4.46165677768927 4.0
endloop
endfacet
facet normal 0.356416322093477 0.934327247459561 -1.55805633816149e-16
outer loop
vertex 0.41733011744984 -3.12651737046444 4.0
vertex 5.91733011744984 -5.22459358181775 0.0
vertex 0.41733011744984 -3.12651737046444 0.0
endloop
endfacet
facet normal 0.356416322093477 0.934327247459561 -1.55805633816149e-16
outer loop
vertex 5.91733011744984 -5.22459358181775 0.0
vertex 0.41733011744984 -3.12651737046444 4.0
vertex 1.91733011744984 -3.6987199735608 3.0
endloop
endfacet
facet normal 0.356416322093477 0.934327247459561 -1.55805633816149e-16
outer loop
vertex 1.91733011744984 -3.6987199735608 3.0
vertex 0.41733011744984 -3.12651737046444 4.0
vertex 1.91733011744984 -3.6987199735608 4.0
endloop
endfacet
facet normal -0.608761429008718 -0.793353340291237 0.0
outer loop
vertex -9.00987767641437 -4.45180137568197 4.0
vertex -9.38266988255016 -4.16574785500576 0.0
vertex -9.00987767641437 -4.45180137568197 0.0
endloop
endfacet
facet normal -0.608761429008718 -0.793353340291237 0.0
outer loop
vertex -9.38266988255016 -4.16574785500576 0.0
vertex -9.00987767641437 -4.45180137568197 4.0
vertex -9.38266988255016 -4.16574785500576 4.0
endloop
endfacet
facet normal -0.923879532511295 0.382683432365069 0.0
outer loop
vertex -8.54400339522983 -6.19046786300228 4.0
vertex -8.72382415573816 -6.62459358181775 0.0
vertex -8.72382415573816 -6.62459358181775 4.0
endloop
endfacet
facet normal -0.923879532511295 0.382683432365069 0.0
outer loop
vertex -8.72382415573816 -6.62459358181775 0.0
vertex -8.54400339522983 -6.19046786300228 4.0
vertex -8.54400339522983 -6.19046786300228 0.0
endloop
endfacet
facet normal 0.965925826289068 0.0 0.258819045102524
outer loop
vertex -6.45541054358141 -2.72459358181776 3.79294476391798
vertex -6.48266988255016 -8.72459358181774 4.0
vertex -6.45541054358141 -8.72459358181774 3.79294476391798
endloop
endfacet
facet normal 0.99144486137381 0.0 0.130526192220056
outer loop
vertex -6.48266988255016 -8.72459358181774 4.0
vertex -6.45541054358141 -2.72459358181776 3.79294476391798
vertex -6.48266988255016 -2.72459358181776 4.0
endloop
endfacet
facet normal 0.0 0.0 1.0
outer loop
vertex -13.1804473614173 -6.50105071712531 4.0
vertex -13.1804473614173 -4.94813644651019 4.0
vertex -13.2826698825501 -5.72459358181775 4.0
endloop
endfacet
facet normal 0.0 0.0 1.0
outer loop
vertex -13.1804473614173 -4.94813644651019 4.0
vertex -13.1804473614173 -6.50105071712531 4.0
vertex -12.8807460939035 -7.22459358181774 4.0
endloop
endfacet
facet normal 0.0 0.0 1.0
outer loop
vertex -13.1804473614173 -4.94813644651019 4.0
vertex -12.8807460939035 -7.22459358181774 4.0
vertex -12.8807460939035 -4.22459358181775 4.0
endloop
endfacet
facet normal 0.0 0.0 1.0
outer loop
vertex -12.8807460939035 -4.22459358181775 4.0
vertex -12.8807460939035 -7.22459358181774 4.0
vertex -12.4039902261098 -7.84591392537739 4.0
endloop
endfacet
facet normal 0.0 0.0 1.0
outer loop
vertex -12.8807460939035 -4.22459358181775 4.0
vertex -12.4039902261098 -7.84591392537739 4.0
vertex -12.4039902261098 -3.60327323825811 4.0
endloop
endfacet
facet normal 0.0 0.0 1.0
outer loop
vertex -12.4039902261098 -3.60327323825811 4.0
vertex -12.4039902261098 -7.84591392537739 4.0
vertex -11.7826698825502 -8.32266979317106 4.0
endloop
endfacet
facet normal 0.0 0.0 1.0
outer loop
vertex -12.4039902261098 -3.60327323825811 4.0
vertex -11.7826698825502 -8.32266979317106 4.0
vertex -12.0826698825502 -5.72459358181775 4.0
endloop
endfacet
facet normal 0.0 0.0 1.0
outer loop
vertex -12.0826698825502 -5.72459358181775 4.0
vertex -11.7826698825502 -8.32266979317106 4.0
vertex -12.0213363698705 -6.19046786300228 4.0
endloop
endfacet
facet normal 0.0 0.0 1.0
outer loop
vertex -12.0213363698705 -6.19046786300228 4.0
vertex -11.7826698825502 -8.32266979317106 4.0
vertex -11.8415156093622 -6.62459358181775 4.0
endloop
endfacet
facet normal 0.0 0.0 1.0
outer loop
vertex -11.8415156093622 -6.62459358181775 4.0
vertex -11.7826698825502 -8.32266979317106 4.0
vertex -11.5554620886859 -6.99738578795353 4.0
endloop
endfacet
facet normal 0.0 0.0 1.0
outer loop
vertex -11.5554620886859 -6.99738578795353 4.0
vertex -11.7826698825502 -8.32266979317106 4.0
vertex -11.0591270178577 -8.62237106068495 4.0
endloop
endfacet
facet normal 0.0 0.0 1.0
outer loop
vertex -11.5554620886859 -6.99738578795353 4.0
vertex -11.0591270178577 -8.62237106068495 4.0
vertex -11.1826698825502 -7.28343930862973 4.0
endloop
endfacet
facet normal 0.0 0.0 1.0
outer loop
vertex -11.1826698825502 -7.28343930862973 4.0
vertex -11.0591270178577 -8.62237106068495 4.0
vertex -10.7485441637347 -7.46326006913806 4.0
endloop
endfacet
facet normal 0.0 0.0 1.0
outer loop
vertex -10.7485441637347 -7.46326006913806 4.0
vertex -11.0591270178577 -8.62237106068495 4.0
vertex -10.2826698825502 -8.72459358181774 4.0
endloop
endfacet
facet normal 0.0 0.0 1.0
outer loop
vertex -10.7485441637347 -7.46326006913806 4.0
vertex -10.2826698825502 -8.72459358181774 4.0
vertex -10.2826698825502 -7.52459358181774 4.0
endloop
endfacet
facet normal 0.0 0.0 1.0
outer loop
vertex -10.2826698825502 -7.52459358181774 4.0
vertex -10.2826698825502 -8.72459358181774 4.0
vertex -6.48266988255016 -8.72459358181774 4.0
endloop
endfacet
facet normal 0.0 0.0 1.0
outer loop
vertex -10.2826698825502 -7.52459358181774 4.0
vertex -6.48266988255016 -8.72459358181774 4.0
vertex -9.81679560136562 -7.46326006913807 4.0
endloop
endfacet
facet normal 0.0 0.0 1.0
outer loop
vertex -9.81679560136562 -7.46326006913807 4.0
vertex -6.48266988255016 -8.72459358181774 4.0
vertex -9.38266988255016 -7.28343930862973 4.0
endloop
endfacet
facet normal 0.0 0.0 1.0
outer loop
vertex -9.38266988255016 -7.28343930862973 4.0
vertex -6.48266988255016 -8.72459358181774 4.0
vertex -9.00987767641437 -6.99738578795353 4.0
endloop
endfacet
facet normal 0.0 0.0 1.0
outer loop
vertex -9.00987767641437 -6.99738578795353 4.0
vertex -6.48266988255016 -8.72459358181774 4.0
vertex -8.72382415573816 -6.62459358181775 4.0
endloop
endfacet
facet normal 0.0 0.0 1.0
outer loop
vertex -8.72382415573816 -6.62459358181775 4.0
vertex -6.48266988255016 -8.72459358181774 4.0
vertex -8.54400339522983 -6.19046786300228 4.0
endloop
endfacet
facet normal 0.0 0.0 1.0
outer loop
vertex -8.54400339522983 -6.19046786300228 4.0
vertex -6.48266988255016 -8.72459358181774 4.0
vertex -8.48266988255016 -5.72459358181775 4.0
endloop
endfacet
facet normal 0.0 0.0 1.0
outer loop
vertex -12.0826698825502 -5.72459358181775 4.0
vertex -11.7826698825502 -3.12651737046444 4.0
vertex -12.4039902261098 -3.60327323825811 4.0
endloop
endfacet
facet normal 0.0 0.0 1.0
outer loop
vertex -11.7826698825502 -3.12651737046444 4.0
vertex -12.0826698825502 -5.72459358181775 4.0
vertex -12.0213363698705 -5.25871930063321 4.0
endloop
endfacet
facet normal 0.0 0.0 1.0
outer loop
vertex -11.7826698825502 -3.12651737046444 4.0
vertex -12.0213363698705 -5.25871930063321 4.0
vertex -11.8415156093621 -4.82459358181775 4.0
endloop
endfacet
facet normal 0.0 0.0 1.0
outer loop
vertex -11.7826698825502 -3.12651737046444 4.0
vertex -11.8415156093621 -4.82459358181775 4.0
vertex -11.5554620886859 -4.45180137568197 4.0
endloop
endfacet
facet normal 0.0 0.0 1.0
outer loop
vertex -11.7826698825502 -3.12651737046444 4.0
vertex -11.5554620886859 -4.45180137568197 4.0
vertex -11.0591270178577 -2.82681610295055 4.0
endloop
endfacet
facet normal 0.0 0.0 1.0
outer loop
vertex -11.0591270178577 -2.82681610295055 4.0
vertex -11.5554620886859 -4.45180137568197 4.0
vertex -11.1826698825502 -4.16574785500576 4.0
endloop
endfacet
facet normal 0.0 0.0 1.0
outer loop
vertex -11.0591270178577 -2.82681610295055 4.0
vertex -11.1826698825502 -4.16574785500576 4.0
vertex -10.7485441637347 -3.98592709449744 4.0
endloop
endfacet
facet normal 0.0 0.0 1.0
outer loop
vertex -11.0591270178577 -2.82681610295055 4.0
vertex -10.7485441637347 -3.98592709449744 4.0
vertex -10.2826698825502 -2.72459358181776 4.0
endloop
endfacet
facet normal 0.0 0.0 1.0
outer loop
vertex -10.2826698825502 -2.72459358181776 4.0
vertex -10.7485441637347 -3.98592709449744 4.0
vertex -10.2826698825502 -3.92459358181776 4.0
endloop
endfacet
facet normal 0.0 0.0 1.0
outer loop
vertex -10.2826698825502 -2.72459358181776 4.0
vertex -10.2826698825502 -3.92459358181776 4.0
vertex -9.81679560136562 -3.98592709449744 4.0
endloop
endfacet
facet normal 0.0 0.0 1.0
outer loop
vertex -10.2826698825502 -2.72459358181776 4.0
vertex -9.81679560136562 -3.98592709449744 4.0
vertex -6.48266988255016 -2.72459358181776 4.0
endloop
endfacet
facet normal 0.0 0.0 1.0
outer loop
vertex -6.48266988255016 -2.72459358181776 4.0
vertex -9.81679560136562 -3.98592709449744 4.0
vertex -9.38266988255016 -4.16574785500576 4.0
endloop
endfacet
facet normal 0.0 0.0 1.0
outer loop
vertex -6.48266988255016 -2.72459358181776 4.0
vertex -9.38266988255016 -4.16574785500576 4.0
vertex -9.00987767641437 -4.45180137568197 4.0
endloop
endfacet
facet normal 0.0 0.0 1.0
outer loop
vertex -6.48266988255016 -2.72459358181776 4.0
vertex -9.00987767641437 -4.45180137568197 4.0
vertex -8.72382415573816 -4.82459358181775 4.0
endloop
endfacet
facet normal 0.0 0.0 1.0
outer loop
vertex -6.48266988255016 -2.72459358181776 4.0
vertex -8.72382415573816 -4.82459358181775 4.0
vertex -8.54400339522983 -5.25871930063321 4.0
endloop
endfacet
facet normal 0.0 0.0 1.0
outer loop
vertex -6.48266988255016 -2.72459358181776 4.0
vertex -8.54400339522983 -5.25871930063321 4.0
vertex -8.48266988255016 -5.72459358181775 4.0
endloop
endfacet
facet normal 0.0 0.0 1.0
outer loop
vertex -6.48266988255016 -2.72459358181776 4.0
vertex -8.48266988255016 -5.72459358181775 4.0
vertex -6.48266988255016 -8.72459358181774 4.0
endloop
endfacet
facet normal -0.99144486137381 0.0 0.130526192220052
outer loop
vertex -4.88266988255016 -2.72459358181776 4.0
vertex -4.9099292215189 -8.72459358181774 3.79294476391798
vertex -4.88266988255016 -8.72459358181774 4.0
endloop
endfacet
facet normal -0.965925826289068 0.0 0.258819045102521
outer loop
vertex -4.9099292215189 -8.72459358181774 3.79294476391798
vertex -4.88266988255016 -2.72459358181776 4.0
vertex -4.9099292215189 -2.72459358181776 3.79294476391798
endloop
endfacet
facet normal -0.965925826289068 0.0 0.258819045102521
outer loop
vertex -4.9099292215189 -2.72459358181776 3.79294476391798
vertex -4.98984955952261 -8.72459358181774 3.6
vertex -4.9099292215189 -8.72459358181774 3.79294476391798
endloop
endfacet
facet normal -0.866025403784438 0.0 0.500000000000001
outer loop
vertex -4.98984955952261 -8.72459358181774 3.6
vertex -4.9099292215189 -2.72459358181776 3.79294476391798
vertex -4.98984955952261 -2.72459358181776 3.6
endloop
endfacet
facet normal -0.866025403784438 0.0 0.500000000000001
outer loop
vertex -4.98984955952261 -2.72459358181776 3.6
vertex -5.11698445760092 -8.72459358181774 3.43431457505076
vertex -4.98984955952261 -8.72459358181774 3.6
endloop
endfacet
facet normal -0.707106781186548 0.0 0.707106781186548
outer loop
vertex -5.11698445760092 -8.72459358181774 3.43431457505076
vertex -4.98984955952261 -2.72459358181776 3.6
vertex -5.11698445760092 -2.72459358181776 3.43431457505076
endloop
endfacet
facet normal -0.707106781186548 0.0 0.707106781186548
outer loop
vertex -5.11698445760092 -8.72459358181774 3.43431457505076
vertex -5.28266988255016 -2.72459358181776 3.30717967697245
vertex -5.28266988255016 -8.72459358181774 3.30717967697245
endloop
endfacet
facet normal -0.500000000000001 0.0 0.866025403784438
outer loop
vertex -5.28266988255016 -2.72459358181776 3.30717967697245
vertex -5.11698445760092 -8.72459358181774 3.43431457505076
vertex -5.11698445760092 -2.72459358181776 3.43431457505076
endloop
endfacet
facet normal -0.500000000000001 0.0 0.866025403784438
outer loop
vertex -5.28266988255016 -8.72459358181774 3.30717967697245
vertex -5.47561464646814 -2.72459358181776 3.22725933896874
vertex -5.47561464646814 -8.72459358181774 3.22725933896874
endloop
endfacet
facet normal -0.258819045102521 0.0 0.965925826289068
outer loop
vertex -5.47561464646814 -2.72459358181776 3.22725933896874
vertex -5.28266988255016 -8.72459358181774 3.30717967697245
vertex -5.28266988255016 -2.72459358181776 3.30717967697245
endloop
endfacet
facet normal -0.258819045102521 0.0 0.965925826289068
outer loop
vertex -5.47561464646814 -8.72459358181774 3.22725933896874
vertex -5.68266988255016 -2.72459358181776 3.2
vertex -5.68266988255016 -8.72459358181774 3.2
endloop
endfacet
facet normal 0.0 0.0 1.0
outer loop
vertex -5.68266988255016 -2.72459358181776 3.2
vertex -5.47561464646814 -8.72459358181774 3.22725933896874
vertex -5.47561464646814 -2.72459358181776 3.22725933896874
endloop
endfacet
facet normal 0.0 0.0 1.0
outer loop
vertex -5.68266988255016 -8.72459358181774 3.2
vertex -5.88972511863217 -2.72459358181776 3.22725933896874
vertex -5.88972511863217 -8.72459358181774 3.22725933896874
endloop
endfacet
facet normal 0.258819045102521 0.0 0.965925826289068
outer loop
vertex -5.88972511863217 -2.72459358181776 3.22725933896874
vertex -5.68266988255016 -8.72459358181774 3.2
vertex -5.68266988255016 -2.72459358181776 3.2
endloop
endfacet
facet normal 0.258819045102521 0.0 0.965925826289068
outer loop
vertex -5.88972511863217 -8.72459358181774 3.22725933896874
vertex -6.08266988255016 -2.72459358181776 3.30717967697245
vertex -6.08266988255016 -8.72459358181774 3.30717967697245
endloop
endfacet
facet normal 0.500000000000001 0.0 0.866025403784438
outer loop
vertex -6.08266988255016 -2.72459358181776 3.30717967697245
vertex -5.88972511863217 -8.72459358181774 3.22725933896874
vertex -5.88972511863217 -2.72459358181776 3.22725933896874
endloop
endfacet
facet normal 0.500000000000001 0.0 0.866025403784438
outer loop
vertex -6.08266988255016 -8.72459358181774 3.30717967697245
vertex -6.24835530749939 -2.72459358181776 3.43431457505076
vertex -6.24835530749939 -8.72459358181774 3.43431457505076
endloop
endfacet
facet normal 0.707106781186549 0.0 0.707106781186547
outer loop
vertex -6.24835530749939 -2.72459358181776 3.43431457505076
vertex -6.08266988255016 -8.72459358181774 3.30717967697245
vertex -6.08266988255016 -2.72459358181776 3.30717967697245
endloop
endfacet
facet normal 0.707106781186549 0.0 0.707106781186547
outer loop
vertex -6.24835530749939 -2.72459358181776 3.43431457505076
vertex -6.37549020557771 -8.72459358181774 3.6
vertex -6.24835530749939 -8.72459358181774 3.43431457505076
endloop
endfacet
facet normal 0.866025403784438 0.0 0.500000000000001
outer loop
vertex -6.37549020557771 -8.72459358181774 3.6
vertex -6.24835530749939 -2.72459358181776 3.43431457505076
vertex -6.37549020557771 -2.72459358181776 3.6
endloop
endfacet
facet normal 0.866025403784438 0.0 0.500000000000001
outer loop
vertex -6.37549020557771 -2.72459358181776 3.6
vertex -6.45541054358141 -8.72459358181774 3.79294476391798
vertex -6.37549020557771 -8.72459358181774 3.6
endloop
endfacet
facet normal 0.965925826289068 0.0 0.258819045102524
outer loop
vertex -6.45541054358141 -8.72459358181774 3.79294476391798
vertex -6.37549020557771 -2.72459358181776 3.6
vertex -6.45541054358141 -2.72459358181776 3.79294476391798
endloop
endfacet
endsolid YarnHolderPalo
